<svg width="125" height="139" viewBox="0 0 125 139" fill="none" xmlns="http://www.w3.org/2000/svg">
<path d="M26.8218 97.7817V45.248H0V21.049H26.8218V0H51.0206V21.049H77.8425V45.248H51.0206V97.7817H26.8218Z" fill="#5AA469"/>
<path d="M42.9204 48.3844V37.1475H57.5139H69.742V29.1496H42.9204V8.10059H34.9219V29.1496H8.10034V37.1475H34.9219V89.6813H42.9204V48.3844Z" fill="#529A61"/>
<path d="M108.36 112.273C92.2763 117.668 74.8637 109.003 69.4684 92.9192C64.073 76.835 72.738 59.4225 88.8221 54.0271C89.869 53.6759 90.9222 53.3873 91.9765 53.1535C84.2855 50.5341 75.7062 50.3215 67.4084 53.1049C47.3005 59.8501 36.468 81.6188 43.2131 101.726C49.9581 121.834 71.7263 132.667 91.8346 125.922C100.132 123.138 106.848 117.795 111.404 111.068C110.421 111.517 109.407 111.922 108.36 112.273Z" fill="#529A61"/>
<path d="M92.9711 68.9332L100.705 76.7181L111.503 74.7605L106.489 84.5218L111.687 94.1857L100.854 92.4333L93.2693 100.364L91.5885 89.52L81.7027 84.7568L91.4964 79.8072L92.9711 68.9332Z" fill="#529A61"/>
</svg>
