<svg width="115" height="115" viewBox="0 0 115 115" fill="none" xmlns="http://www.w3.org/2000/svg">
<path d="M102.61 46.9136H59.3048C52.4727 46.9136 46.9145 52.4718 46.9145 59.3039V82.8318L35.6945 90.8458C34.8092 91.4775 34.2837 92.4987 34.2837 93.5867C34.2837 94.6755 34.8092 95.6968 35.6945 96.3285L47.0496 104.439C47.9366 110.407 53.0947 115 59.3048 115H102.61C109.442 115 115 109.442 115 102.609V59.3039C115 52.4718 109.442 46.9136 102.61 46.9136ZM88.0487 94.2553C87.2547 94.2553 86.6414 94.0035 86.4615 93.3173L85.0893 88.5172H76.8244L75.4539 93.3173C75.2731 94.0035 74.6599 94.2553 73.8658 94.2553C72.6024 94.2553 70.9064 93.4621 70.9064 92.3075C70.9064 92.2347 70.9424 92.0908 70.9784 91.946L77.9439 69.2464C78.2685 68.1637 79.6039 67.6575 80.9393 67.6575C82.3106 67.6575 83.646 68.1637 83.9706 69.2464L90.9361 91.946C90.9721 92.0908 91.0081 92.1987 91.0081 92.3075C91.0081 93.4253 89.3121 94.2553 88.0487 94.2553Z" fill="#51ADCF"/>
<path d="M77.7991 84.8356H84.0794L80.9383 73.757L77.7991 84.8356Z" fill="#51ADCF"/>
<path d="M40.1761 59.3039C40.1761 54.7801 41.758 50.6213 44.3928 47.3426C40.549 47.3426 36.9825 46.1397 34.0424 44.0963C31.1023 46.1406 27.5357 47.3426 23.691 47.3426C22.6426 47.3426 21.7915 46.4915 21.7915 45.4422C21.7915 44.3928 22.6426 43.5426 23.691 43.5426C26.3837 43.5426 28.9035 42.7969 31.061 41.5054C28.4587 38.6969 26.7285 35.0706 26.31 31.0575H23.6919C22.6426 31.0575 21.7915 30.2073 21.7915 29.158C21.7915 28.1086 22.6426 27.2576 23.6919 27.2576H32.1437V22.6443C32.1437 21.5941 32.9939 20.7439 34.0432 20.7439C35.0926 20.7439 35.9428 21.5941 35.9428 22.6443V27.2576H44.3946C45.4439 27.2576 46.295 28.1086 46.295 29.158C46.295 30.2073 45.4439 31.0575 44.3946 31.0575H41.7765C41.358 35.0706 39.6278 38.6969 37.0255 41.5054C39.1821 42.7986 41.7028 43.5426 44.3946 43.5426C45.3974 43.5426 46.2169 44.32 46.288 45.3053C49.7054 42.1257 54.2809 40.1752 59.3056 40.1752H68.0865V32.1683L79.3064 24.1543C80.1908 23.5226 80.7164 22.5013 80.7164 21.4133C80.7164 20.3245 80.1908 19.3032 79.3064 18.6715L67.9514 10.561C67.0634 4.59309 61.9053 0 55.6952 0H12.3912C5.5582 0 0 5.5582 0 12.3904V55.6961C0 62.5283 5.5582 68.0865 12.3912 68.0865H40.1761V59.3039Z" fill="#28ABB9"/>
<path d="M34.0424 39.1311C36.1218 36.9736 37.5335 34.1722 37.9467 31.0583H30.1389C30.5522 34.1722 31.9647 36.9736 34.0424 39.1311Z" fill="#28ABB9"/>
</svg>
