<svg width="158" height="184" viewBox="0 0 158 184" fill="none" xmlns="http://www.w3.org/2000/svg">
<path d="M75.3575 106.308C76.3963 106.231 73.5415 98.7235 72.5955 96.4656L72.0259 95.6193C67.6299 89.2237 61.3499 84.2038 53.9695 81.3573V29.2255H36.6807V77.3014C28.8203 83.9206 23.4647 90.5986 20.0635 97.1123L20.3671 108.529L75.3575 106.308Z" fill="white"/>
<path d="M20.3679 24.391H41.6259V39.2367H20.3679V24.391Z" fill="#E8D6FF"/>
<path d="M43.4483 91.3872C47.4467 91.3872 50.6879 88.1739 50.6879 84.21C50.6879 80.2462 47.4467 77.0328 43.4483 77.0328C39.45 77.0328 36.2087 80.2462 36.2087 84.21C36.2087 88.1739 39.45 91.3872 43.4483 91.3872Z" fill="#5EAAA8"/>
<path d="M35.1951 64.5977C37.5404 64.5977 39.4415 62.7129 39.4415 60.3879C39.4415 58.0629 37.5404 56.1781 35.1951 56.1781C32.8499 56.1781 30.9487 58.0629 30.9487 60.3879C30.9487 62.7129 32.8499 64.5977 35.1951 64.5977Z" fill="#5EAAA8"/>
<path d="M37.2725 11.1874C40.3277 11.1874 42.8045 8.73196 42.8045 5.70306C42.8045 2.67416 40.3277 0.21875 37.2725 0.21875C34.2172 0.21875 31.7405 2.67416 31.7405 5.70306C31.7405 8.73196 34.2172 11.1874 37.2725 11.1874Z" fill="#5EAAA8"/>
<path d="M2.90356 105.334H23.826C24.974 101.851 26.604 98.5832 28.6456 95.6146H28.6292L28.6424 95.6122C32.1236 90.5498 36.7892 86.3515 42.2444 83.4099C44.9688 81.9407 46.704 79.1525 46.704 76.0781V29.2255H25.7776V81.3577C18.3976 84.2042 12.1128 89.221 7.71596 95.6162L7.71836 95.6166C5.68476 98.5736 4.05396 101.844 2.90356 105.334Z" fill="#E8D6FF"/>
<path d="M46.5335 77.7244C45.5963 77.2854 44.5531 77.0328 43.4479 77.0328C39.4495 77.0328 36.2083 80.2461 36.2083 84.21C36.2083 85.1955 36.4095 86.1341 36.7719 86.9887C38.4863 85.6511 40.3147 84.4507 42.2439 83.4102C44.4719 82.2086 46.0367 80.1251 46.5335 77.7244Z" fill="#2C706E"/>
<path d="M62.5649 100.993C52.2613 103.882 41.4701 101.886 31.0985 100.542C12.5389 98.135 11.1545 100.124 7.46967 100.992C5.84607 101.861 6.31767 101.456 3.67167 103.19C3.67007 103.194 3.66887 103.197 3.66767 103.201C4.08967 102.937 3.94007 103.042 3.64847 103.252C1.92807 107.606 0.980469 112.345 0.980469 117.304C0.980469 138.599 18.3937 155.862 39.8737 155.862C61.3537 155.862 78.7669 138.599 78.7669 117.304C78.7669 109.626 76.4981 102.476 72.5961 96.4667C69.4941 98.4189 66.1585 99.9857 62.5649 100.993Z" fill="#5EAAA8"/>
<path d="M49.4909 112.8C63.4764 111.716 74.4871 106.694 74.0839 101.585C73.6806 96.4754 62.0163 93.2127 48.0308 94.2974C34.0453 95.3821 23.0346 100.404 23.4378 105.513C23.8411 110.622 35.5054 113.885 49.4909 112.8Z" fill="#2C706E"/>
<path d="M62.5649 100.993C52.2613 103.882 41.4701 101.886 31.0985 100.542C12.5389 98.135 11.1545 100.124 7.46967 100.992C5.84607 101.861 6.31767 101.456 3.67167 103.19C3.67007 103.194 3.66887 103.197 3.66767 103.201C4.08967 102.937 3.94007 103.042 3.64847 103.252C1.92807 107.606 0.980469 112.345 0.980469 117.304C0.980469 138.599 18.3937 155.862 39.8737 155.862C61.3537 155.862 78.7669 138.599 78.7669 117.304C78.7669 109.626 76.4981 102.476 72.5961 96.4667C69.4941 98.4189 66.1585 99.9857 62.5649 100.993Z" fill="#5EAAA8"/>
<path d="M50.337 154.448C33.9394 149.917 21.907 135.004 21.907 117.303C21.907 111.059 23.4122 105.167 26.0714 99.9508C12.2446 98.5184 10.7898 100.21 7.47016 100.991C5.84856 101.86 6.31616 101.457 3.68136 103.184C3.67976 103.187 3.67856 103.191 3.67696 103.195C4.08136 102.943 3.94096 103.041 3.65816 103.245C1.90136 107.688 0.980957 112.504 0.980957 117.303C0.980557 142.414 25.0234 161.316 50.337 154.448Z" fill="#2C706E"/>
<path d="M29.815 146.324C33.5397 146.324 36.5591 143.331 36.5591 139.638C36.5591 135.946 33.5397 132.952 29.815 132.952C26.0904 132.952 23.071 135.946 23.071 139.638C23.071 143.331 26.0904 146.324 29.815 146.324Z" fill="#2C706E"/>
<path d="M55.7195 132.098C57.7411 132.098 59.3799 130.473 59.3799 128.469C59.3799 126.465 57.7411 124.84 55.7195 124.84C53.6979 124.84 52.0591 126.465 52.0591 128.469C52.0591 130.473 53.6979 132.098 55.7195 132.098Z" fill="#2C706E"/>
<path d="M43.4486 119.276C46.6368 119.276 49.2214 116.714 49.2214 113.553C49.2214 110.393 46.6368 107.83 43.4486 107.83C40.2604 107.83 37.6758 110.393 37.6758 113.553C37.6758 116.714 40.2604 119.276 43.4486 119.276Z" fill="#2C706E"/>
<path d="M59.3799 39.2366H42.6827C38.5475 39.2366 35.1951 35.9131 35.1951 31.8136C35.1951 27.714 38.5475 24.3905 42.6827 24.3905H59.3799V39.2366Z" fill="white"/>
<path d="M36.209 57.8113C39.0418 57.8113 41.3382 55.5347 41.3382 52.7263C41.3382 49.918 39.0418 47.6414 36.209 47.6414C33.3763 47.6414 31.0798 49.918 31.0798 52.7263C31.0798 55.5347 33.3763 57.8113 36.209 57.8113Z" fill="#2C706E"/>
<path d="M75.7847 106.308C76.8235 106.231 73.9687 98.7235 73.0227 96.4656L72.4531 95.6193C68.0571 89.2237 61.7771 84.2038 54.3967 81.3573V29.2255H37.1079V77.3014C29.2475 83.9206 23.8919 90.5986 20.4907 97.1123L20.7943 108.529L75.7847 106.308Z" fill="white"/>
<path d="M20.7952 24.391H42.0532V39.2367H20.7952V24.391Z" fill="#E8D6FF"/>
<path d="M43.8756 91.3872C47.8739 91.3872 51.1152 88.1739 51.1152 84.21C51.1152 80.2462 47.8739 77.0328 43.8756 77.0328C39.8773 77.0328 36.636 80.2462 36.636 84.21C36.636 88.1739 39.8773 91.3872 43.8756 91.3872Z" fill="#5EAAA8"/>
<path d="M35.6224 64.5977C37.9676 64.5977 39.8688 62.7129 39.8688 60.3879C39.8688 58.0629 37.9676 56.1781 35.6224 56.1781C33.2772 56.1781 31.376 58.0629 31.376 60.3879C31.376 62.7129 33.2772 64.5977 35.6224 64.5977Z" fill="#5EAAA8"/>
<path d="M37.6997 11.1874C40.755 11.1874 43.2317 8.73196 43.2317 5.70306C43.2317 2.67416 40.755 0.21875 37.6997 0.21875C34.6445 0.21875 32.1677 2.67416 32.1677 5.70306C32.1677 8.73196 34.6445 11.1874 37.6997 11.1874Z" fill="#5EAAA8"/>
<path d="M3.33081 105.334H24.2532C25.4012 101.851 27.0312 98.5832 29.0728 95.6146H29.0564L29.0696 95.6122C32.5508 90.5498 37.2164 86.3515 42.6716 83.4099C45.396 81.9407 47.1312 79.1525 47.1312 76.0781V29.2255H26.2048V81.3577C18.8248 84.2042 12.54 89.221 8.14321 95.6162L8.14561 95.6166C6.11161 98.5736 4.48121 101.844 3.33081 105.334Z" fill="#E8D6FF"/>
<path d="M46.9612 77.7244C46.024 77.2854 44.9808 77.0328 43.8756 77.0328C39.8772 77.0328 36.636 80.2461 36.636 84.21C36.636 85.1955 36.8372 86.1341 37.1996 86.9887C38.914 85.6511 40.7424 84.4507 42.6716 83.4102C44.8996 82.2086 46.4644 80.1251 46.9612 77.7244Z" fill="#2C706E"/>
<path d="M62.9921 100.993C52.6885 103.882 41.8973 101.886 31.5257 100.542C12.9661 98.135 11.5817 100.124 7.89691 100.992C6.27331 101.861 6.74491 101.456 4.09891 103.19C4.09731 103.194 4.09611 103.197 4.09491 103.201C4.51691 102.937 4.36732 103.042 4.07572 103.252C2.35532 107.606 1.40771 112.345 1.40771 117.304C1.40771 138.599 18.8209 155.862 40.3009 155.862C61.7809 155.862 79.1941 138.599 79.1941 117.304C79.1941 109.626 76.9253 102.476 73.0233 96.4667C69.9213 98.4189 66.5857 99.9857 62.9921 100.993Z" fill="#5EAAA8"/>
<path d="M49.9187 112.8C63.9042 111.715 74.9148 106.694 74.5116 101.585C74.1084 96.4752 62.444 93.2125 48.4585 94.2972C34.473 95.3819 23.4624 100.403 23.8656 105.513C24.2688 110.622 35.9332 113.885 49.9187 112.8Z" fill="#2C706E"/>
<path d="M62.9921 100.993C52.6885 103.882 41.8973 101.886 31.5257 100.542C12.9661 98.135 11.5817 100.124 7.89691 100.992C6.27331 101.861 6.74491 101.456 4.09891 103.19C4.09731 103.194 4.09611 103.197 4.09491 103.201C4.51691 102.937 4.36732 103.042 4.07572 103.252C2.35532 107.606 1.40771 112.345 1.40771 117.304C1.40771 138.599 18.8209 155.862 40.3009 155.862C61.7809 155.862 79.1941 138.599 79.1941 117.304C79.1941 109.626 76.9253 102.476 73.0233 96.4667C69.9213 98.4189 66.5857 99.9857 62.9921 100.993Z" fill="#5EAAA8"/>
<path d="M50.7642 154.448C34.3666 149.917 22.3342 135.004 22.3342 117.303C22.3342 111.059 23.8394 105.167 26.4986 99.9508C12.6718 98.5184 11.217 100.21 7.8974 100.991C6.2758 101.86 6.7434 101.457 4.1086 103.184C4.107 103.187 4.1058 103.191 4.1042 103.195C4.5086 102.943 4.3682 103.041 4.0854 103.245C2.3286 107.688 1.4082 112.504 1.4082 117.303C1.4078 142.414 25.4506 161.316 50.7642 154.448Z" fill="#2C706E"/>
<path d="M30.2418 146.324C33.9664 146.324 36.9858 143.331 36.9858 139.638C36.9858 135.946 33.9664 132.952 30.2418 132.952C26.5172 132.952 23.4978 135.946 23.4978 139.638C23.4978 143.331 26.5172 146.324 30.2418 146.324Z" fill="#2C706E"/>
<path d="M56.1467 132.098C58.1683 132.098 59.8071 130.473 59.8071 128.469C59.8071 126.465 58.1683 124.84 56.1467 124.84C54.1251 124.84 52.4863 126.465 52.4863 128.469C52.4863 130.473 54.1251 132.098 56.1467 132.098Z" fill="#2C706E"/>
<path d="M43.8758 119.276C47.0641 119.276 49.6486 116.714 49.6486 113.553C49.6486 110.393 47.0641 107.83 43.8758 107.83C40.6876 107.83 38.103 110.393 38.103 113.553C38.103 116.714 40.6876 119.276 43.8758 119.276Z" fill="#2C706E"/>
<path d="M59.8066 39.2366H43.1094C38.9742 39.2366 35.6218 35.9131 35.6218 31.8136C35.6218 27.714 38.9742 24.3905 43.1094 24.3905H59.8066V39.2366Z" fill="white"/>
<path d="M36.636 57.8113C39.4688 57.8113 41.7652 55.5347 41.7652 52.7263C41.7652 49.918 39.4688 47.6414 36.636 47.6414C33.8033 47.6414 31.5068 49.918 31.5068 52.7263C31.5068 55.5347 33.8033 57.8113 36.636 57.8113Z" fill="#2C706E"/>
<path d="M117.648 56.5604C117.747 57.0311 117.801 57.5106 117.801 57.9928L102.375 152.175H144.95L134.35 136.647L127.082 125.999V56.5604H117.648Z" fill="white"/>
<path d="M80.1179 153.498L104.416 149.185L117.718 129.698C119.363 127.287 120.242 124.443 120.242 121.533V56.5604H98.8887V125.999L91.6203 136.647L80.1179 153.498Z" fill="#E8D6FF"/>
<path d="M93.4707 51.7264H115.361V66.5721H93.4707V51.7264Z" fill="#E8D6FF"/>
<path d="M117.548 134.473C120.888 134.473 123.595 131.789 123.595 128.478C123.595 125.167 120.888 122.483 117.548 122.483C114.208 122.483 111.5 125.167 111.5 128.478C111.5 131.789 114.208 134.473 117.548 134.473Z" fill="#5EAAA8"/>
<path d="M120.15 123.073C119.361 122.698 118.481 122.483 117.548 122.483C114.208 122.483 111.5 125.167 111.5 128.478C111.5 130.839 112.88 132.876 114.882 133.853L117.718 129.698C119.071 127.715 119.896 125.438 120.15 123.073Z" fill="#2C706E"/>
<path d="M109.741 98.7386C112.087 98.7386 113.989 96.8531 113.989 94.5272C113.989 92.2013 112.087 90.3158 109.741 90.3158C107.395 90.3158 105.493 92.2013 105.493 94.5272C105.493 96.8531 107.395 98.7386 109.741 98.7386Z" fill="#2C706E"/>
<path d="M114.507 78.5851C117.61 78.5851 120.126 76.0908 120.126 73.0139C120.126 69.937 117.61 67.4427 114.507 67.4427C111.403 67.4427 108.887 69.937 108.887 73.0139C108.887 76.0908 111.403 78.5851 114.507 78.5851Z" fill="#2C706E"/>
<path d="M107.097 45.8513C110.398 45.8513 113.075 43.1983 113.075 39.9257C113.075 36.653 110.398 34 107.097 34C103.796 34 101.12 36.653 101.12 39.9257C101.12 43.1983 103.796 45.8513 107.097 45.8513Z" fill="#5EAAA8"/>
<path d="M135.188 137.874C135.188 141.626 131.696 151.459 123.452 151.459C115.208 151.459 104.19 151.093 104.19 147.341C104.19 143.59 115.344 139.352 123.452 137.875C129.476 136.777 135.188 137.874 135.188 137.874Z" fill="#2C706E"/>
<path d="M132.482 66.5721H114.585C110.45 66.5721 107.097 63.2486 107.097 59.149C107.097 55.0495 110.45 51.726 114.585 51.726H132.482V66.5721Z" fill="white"/>
<path d="M156.269 168.759L135.187 137.874C129.38 141.427 122.304 143.028 115.551 142.816C113.028 142.737 110.614 142.263 108.213 141.731L87.9442 163.371C85.8222 165.637 84.8274 168.721 85.2302 171.787C86.143 178.732 92.111 183.928 99.1758 183.928H148.148C156.011 183.928 160.676 175.214 156.269 168.759Z" fill="#5EAAA8"/>
<path d="M91.0547 168.759L109.338 141.974C106.501 141.378 103.703 140.628 100.786 140.27C96.3923 139.731 91.9443 140.164 87.9363 142.045L69.7015 168.758C65.2947 175.214 69.9599 183.928 77.8227 183.928H99.1763C91.3131 183.928 86.6483 175.214 91.0547 168.759Z" fill="#2C706E"/>
<path d="M114.567 156.782C116.76 156.782 118.537 155.02 118.537 152.846C118.537 150.673 116.76 148.91 114.567 148.91C112.375 148.91 110.597 150.673 110.597 152.846C110.597 155.02 112.375 156.782 114.567 156.782Z" fill="#2C706E"/>
<path d="M131.119 172.601C134.074 172.601 136.47 170.226 136.47 167.296C136.47 164.367 134.074 161.992 131.119 161.992C128.164 161.992 125.768 164.367 125.768 167.296C125.768 170.226 128.164 172.601 131.119 172.601Z" fill="#2C706E"/>
</svg>
