<svg width="100" height="126" viewBox="0 0 100 126" fill="none" xmlns="http://www.w3.org/2000/svg">
<path d="M0 107.443V14.703C0 6.58276 6.58276 0 14.703 0H96.324C98.354 0 99.9997 1.64575 99.9997 3.67574V90.5842L49.9795 110.7L0 107.443Z" fill="#5B4431"/>
<path d="M96.3242 0H49.9795V110.7L99.9997 90.5842V3.67574C99.9999 1.64575 98.3542 0 96.3242 0V0Z" fill="#5B4431"/>
<path d="M100 90.584V97.9355L97.5495 107.994L100 118.052V121.727C100 123.757 98.3542 125.403 96.3242 125.403H14.9958C6.72709 125.403 0.000244141 118.676 0.000244141 110.408V107.442C0.000244141 98.1465 7.56296 90.5837 16.8587 90.5837H100V90.584Z" fill="#5B4431"/>
<path d="M49.9795 90.584V125.403H96.324C98.3539 125.403 99.9997 123.757 99.9997 121.727V118.052L97.5492 107.994L99.9997 97.9355V90.584H49.9795Z" fill="#5B4431"/>
<path d="M14.9959 118.051C10.7808 118.051 7.35181 114.622 7.35181 110.407V107.442C7.35181 102.2 11.6166 97.9351 16.8587 97.9351H100L97.5496 107.993L100 118.051H14.9959V118.051Z" fill="#F5EAD8"/>
<path d="M49.9795 97.9353H99.9997V118.051H49.9795V97.9353Z" fill="#EAD5B0"/>
<path d="M82.5771 34.8837L51.4395 21.4075C50.5078 21.0041 49.4511 21.0041 48.5195 21.4075L17.3818 34.8835C15.5187 35.6897 14.662 37.8537 15.4684 39.7168C16.0676 41.1011 17.4163 41.9279 18.8342 41.9316C18.8366 41.9316 18.8391 41.9323 18.8418 41.9323H18.8555C18.866 41.9323 18.8763 41.9326 18.8869 41.9323H24.2493V68.5204H22.7966C20.7666 68.5204 19.1209 70.1662 19.1209 72.1962C19.1209 74.2262 20.7666 75.8719 22.7966 75.8719H77.1625C79.1925 75.8719 80.8383 74.2262 80.8383 72.1962C80.8383 70.1662 79.1925 68.5204 77.1625 68.5204H75.7099V41.9328H81.0966C81.1029 41.9328 81.1093 41.9338 81.1157 41.9338C82.537 41.9338 83.8904 41.1046 84.4907 39.7171C85.2969 37.854 84.4403 35.6899 82.5771 34.8837ZM49.9795 28.7862L63.3694 34.5811H36.5895L49.9795 28.7862ZM53.6552 41.9328V68.5209H46.3037V41.9328H53.6552ZM31.6008 41.9328H38.9522V68.5209H31.6008V41.9328ZM68.3582 68.5209H61.0067V41.9328H68.3582V68.5209Z" fill="#EAD5B0"/>
<path d="M82.5772 34.8841L51.4395 21.4079C50.9737 21.2062 50.4765 21.1055 49.9795 21.1055V28.7865L63.3695 34.5815H49.9795V41.9329H53.6552V68.521H49.9795V75.8725H77.1623C79.1923 75.8725 80.8381 74.2268 80.8381 72.1968C80.8381 70.1668 79.1923 68.521 77.1623 68.521H75.7097V41.9332H81.0963C81.1027 41.9332 81.1091 41.9342 81.1155 41.9342C82.5367 41.9342 83.8901 41.1049 84.4905 39.7175C85.297 37.8543 84.4403 35.6903 82.5772 34.8841ZM68.3582 68.5213H61.0067V41.9332H68.3582V68.5213Z" fill="#AF947B"/>
</svg>
