<svg width="116" height="115" viewBox="0 0 116 115" fill="none" xmlns="http://www.w3.org/2000/svg">
<path d="M74.5605 77.3622C75.1144 76.0793 75.6704 74.812 76.2273 73.5607C75.4753 67.4994 72.7865 61.6346 68.6411 56.7271C65.7044 53.2506 63.8074 48.9116 63.8074 43.5026C63.8074 31.0808 72.7 24.747 83.2952 21.609C93.7016 18.5272 92.9173 3.68295 82.2675 1.5714C45.1071 -5.79624 4.13285 13.0507 0.275399 51.6604C-1.66692 71.1017 6.89714 87.2543 18.6349 99.9586C31.0439 113.39 51.6788 113.811 64.7802 102.727C67.2878 95.1989 70.6126 86.5054 74.5605 77.3622Z" fill="#FFABE1"/>
<path d="M36.0281 99.9589C24.2906 87.2547 15.7263 71.1022 17.6686 51.6607C20.6737 21.5823 46.2048 3.49881 74.9101 0.458948C39.8867 -3.23498 3.87955 15.5859 0.275394 51.6607C-1.66693 71.1022 6.89736 87.2547 18.6349 99.9589C27.4262 109.474 40.3457 112.458 51.7905 109.449C45.9642 107.906 40.4692 104.766 36.0281 99.9589Z" fill="#9F5F80"/>
<path d="M47.4534 28.2747C51.6951 28.2747 55.1337 24.8658 55.1337 20.6607C55.1337 16.4556 51.6951 13.0466 47.4534 13.0466C43.2118 13.0466 39.7732 16.4556 39.7732 20.6607C39.7732 24.8658 43.2118 28.2747 47.4534 28.2747Z" fill="#DA9FF9"/>
<path d="M43.984 97.641C48.9778 97.641 53.0261 93.6276 53.0261 88.6768C53.0261 83.726 48.9778 79.7126 43.984 79.7126C38.9902 79.7126 34.9419 83.726 34.9419 88.6768C34.9419 93.6276 38.9902 97.641 43.984 97.641Z" fill="#DA9FF9"/>
<path d="M28.5274 49.6664C33.8799 49.6664 38.219 45.3647 38.219 40.0583C38.219 34.7519 33.8799 30.4502 28.5274 30.4502C23.1748 30.4502 18.8357 34.7519 18.8357 40.0583C18.8357 45.3647 23.1748 49.6664 28.5274 49.6664Z" fill="#DA9FF9"/>
<path d="M25.2503 77.2131C30.6028 77.2131 34.9419 72.9114 34.9419 67.6049C34.9419 62.2985 30.6028 57.9968 25.2503 57.9968C19.8977 57.9968 15.5586 62.2985 15.5586 67.6049C15.5586 72.9114 19.8977 77.2131 25.2503 77.2131Z" fill="#DA9FF9"/>
<path d="M48.4111 20.6607C48.4111 18.0433 49.7435 15.735 51.7724 14.3647C50.5417 13.5334 49.055 13.0469 47.4534 13.0469C43.2117 13.0469 39.7732 16.4558 39.7732 20.6609C39.7732 24.866 43.2117 28.2749 47.4534 28.2749C49.055 28.2749 50.5417 27.7884 51.7724 26.9569C49.7438 25.5864 48.4111 23.2781 48.4111 20.6607Z" fill="#9F5F80"/>
<path d="M43.5798 88.6768C43.5798 85.2769 45.4893 82.3192 48.303 80.7998C47.0197 80.1066 45.5482 79.7126 43.984 79.7126C38.9903 79.7126 34.9419 83.726 34.9419 88.6768C34.9419 93.6276 38.9901 97.641 43.984 97.641C45.5482 97.641 47.0197 97.247 48.303 96.5539C45.4893 95.0344 43.5798 92.0767 43.5798 88.6768Z" fill="#9F5F80"/>
<path d="M27.4736 40.0583C27.4736 36.2909 29.662 33.0319 32.8463 31.4571C31.5456 30.8138 30.0798 30.4502 28.5274 30.4502C23.1748 30.4502 18.8357 34.7519 18.8357 40.0583C18.8357 45.3647 23.1748 49.6664 28.5274 49.6664C30.0798 49.6664 31.5456 49.3026 32.8463 48.6595C29.662 47.0848 27.4736 43.8257 27.4736 40.0583Z" fill="#9F5F80"/>
<path d="M24.1965 67.6049C24.1965 63.8373 26.3849 60.5785 29.5692 59.0038C28.2685 58.3607 26.8027 57.9968 25.2503 57.9968C19.8977 57.9968 15.5586 62.2985 15.5586 67.6049C15.5586 72.9113 19.8977 77.2131 25.2503 77.2131C26.8027 77.2131 28.2685 76.8492 29.5692 76.2061C26.3851 74.6314 24.1965 71.3723 24.1965 67.6049Z" fill="#9F5F80"/>
<path d="M94.7942 63.1305L84.291 58.8113L82.7893 59.1828C80.0105 64.7053 77.1427 70.8418 74.3272 77.3622C69.4962 88.5502 65.5969 99.0678 62.9882 107.597C62.1601 110.305 63.4545 113.206 66.0271 114.432C68.7787 115.743 72.082 114.713 73.5841 112.078C78.0066 104.321 82.9883 94.2672 87.8158 83.0866C90.6313 76.566 93.1305 70.2729 95.2428 64.4676L94.7942 63.1305Z" fill="#FFABE1"/>
<path d="M69.6403 108.463C72.249 99.9337 76.1483 89.4163 80.9793 78.2283C83.6716 71.9932 86.4114 66.1107 89.0758 60.7791L84.291 58.8115L82.7893 59.183C80.0105 64.7055 77.1427 70.842 74.3272 77.3625C69.4962 88.5505 65.5969 99.068 62.9882 107.597C62.1601 110.305 63.4545 113.207 66.0271 114.432C67.7445 115.25 69.6768 115.157 71.2519 114.33C69.6639 112.871 68.9842 110.608 69.6403 108.463Z" fill="#9F5F80"/>
<path d="M95.7168 35.9857L103.249 39.1824C103.592 39.3279 103.878 39.5489 104.101 39.8162C106.788 38.2967 111.567 34.9927 113.843 29.7207C116.351 23.9121 114.436 13.3712 113.412 8.79206C113.161 7.66677 111.877 7.12187 110.882 7.71821C106.833 10.1447 97.818 16.0472 95.3099 21.8556C93.0336 27.1276 93.9204 32.8356 94.6667 35.8126C95.0154 35.7876 95.3743 35.8402 95.7168 35.9857Z" fill="#FFABE1"/>
<path d="M101.223 25.4808C103.285 20.7053 109.743 15.8684 114.226 12.9498C113.952 11.3218 113.657 9.88569 113.412 8.79206C113.161 7.66677 111.877 7.12187 110.882 7.71821C106.833 10.1447 97.818 16.0472 95.3099 21.8556C93.0336 27.1274 93.9204 32.8356 94.6667 35.8126C95.0152 35.7874 95.374 35.8402 95.7168 35.9855L100.242 37.9059C99.6375 34.7398 99.2917 29.9539 101.223 25.4808Z" fill="#9F5F80"/>
<path d="M91.9066 42.6934C89.1342 47.1278 86.0226 52.7442 82.7891 59.1826L95.2427 64.4677C97.7098 57.704 99.6609 51.5951 100.984 46.5454C100.703 46.5398 100.42 46.4836 100.147 46.3677L92.6142 43.1711C92.3409 43.0552 92.1042 42.8906 91.9066 42.6934Z" fill="#FFABE1"/>
<path d="M89.4414 60.0487C92.2764 54.4036 95.0175 49.391 97.5186 45.2526L92.6142 43.1713C92.3412 43.0554 92.1044 42.8908 91.9066 42.6936C89.1342 47.1281 86.0226 52.7444 82.7891 59.1829L88.6353 61.6639C88.9049 61.1203 89.1736 60.5808 89.4414 60.0487Z" fill="#9F5F80"/>
<path d="M103.349 38.9511L95.8169 35.7545C94.6641 35.2653 93.3295 35.7951 92.836 36.9379L91.321 40.4468C90.8275 41.5896 91.362 42.9128 92.5147 43.402L100.047 46.5986C101.2 47.0878 102.535 46.5579 103.028 45.4151L104.543 41.9063C105.037 40.7635 104.502 39.4405 103.349 38.9511Z" fill="#FFABE1"/>
<path d="M96.9404 42.8454L98.5674 39.0776C98.8932 38.3229 99.5611 37.8186 100.315 37.6632L95.8169 35.7545C94.6641 35.2653 93.3295 35.7951 92.836 36.9379L91.321 40.4468C90.8275 41.5896 91.362 42.9128 92.5147 43.402L97.4495 45.4962C96.7728 44.8181 96.5383 43.7764 96.9404 42.8454Z" fill="#9F5F80"/>
</svg>
