<svg width="100" height="100" viewBox="0 0 100 100" fill="none" xmlns="http://www.w3.org/2000/svg">
<path d="M100 50C100 65.7646 92.7025 79.8218 81.3034 88.9862C81.0486 88.9 80.777 88.8504 80.4932 88.8504C79.1 88.8504 77.9701 89.9803 77.9701 91.3734C77.9701 91.3986 77.9732 91.423 77.9739 91.4482C74.4957 93.7996 70.7047 95.7222 66.6779 97.1466C66.3071 96.9337 65.8791 96.8094 65.4213 96.8094C64.4165 96.8094 63.5513 97.3991 63.1454 98.2498C59.5078 99.2386 55.706 99.8268 51.7883 99.9649C51.3435 99.5728 50.7614 99.3324 50.1221 99.3324C49.4774 99.3324 48.8914 99.5758 48.4459 99.9733C44.5572 99.855 40.7814 99.292 37.1651 98.3337C36.7599 97.4815 35.894 96.891 34.8877 96.891C34.4177 96.891 33.9798 97.0222 33.6029 97.2458C29.6227 95.8641 25.8713 93.9949 22.4197 91.7076C22.4342 91.5985 22.4442 91.4871 22.4442 91.3734C22.4442 89.9803 21.315 88.8504 19.9219 88.8504C19.5328 88.8504 19.1658 88.9412 18.8362 89.0991C7.35779 79.937 0 65.8287 0 50C0 22.3854 22.3854 0 50 0C77.6146 0 100 22.3854 100 50Z" fill="#01CFFA"/>
<path d="M16.127 73.6086C16.127 75.0246 14.9795 76.1721 13.5635 76.1721C12.1475 76.1721 11 75.0246 11 73.6086C11 72.1926 12.1475 71.0451 13.5635 71.0451C14.9795 71.0451 16.127 72.1926 16.127 73.6086ZM13.5635 62.8664C12.1475 62.8664 11 64.0139 11 65.4299C11 66.8459 12.1475 67.9934 13.5635 67.9934C14.9795 67.9934 16.127 66.8459 16.127 65.4299C16.127 64.0139 14.9795 62.8664 13.5635 62.8664ZM13.5635 54.6877C12.1475 54.6877 11 55.8351 11 57.2512C11 58.6672 12.1475 59.8146 13.5635 59.8146C14.9795 59.8146 16.127 58.6672 16.127 57.2512C16.127 55.8351 14.9795 54.6877 13.5635 54.6877ZM74.1104 84.717C72.6943 84.717 71.5469 85.8644 71.5469 87.2805C71.5469 88.6965 72.6943 89.8439 74.1104 89.8439C75.5264 89.8439 76.6738 88.6965 76.6738 87.2805C76.6738 85.8644 75.5264 84.717 74.1104 84.717ZM74.1104 76.5383C72.6943 76.5383 71.5469 77.6857 71.5469 79.1017C71.5469 80.5178 72.6943 81.6652 74.1104 81.6652C75.5264 81.6652 76.6738 80.5178 76.6738 79.1017C76.6738 77.6857 75.5264 76.5383 74.1104 76.5383ZM74.1104 68.3596C72.6943 68.3596 71.5469 69.507 71.5469 70.923C71.5469 72.3391 72.6943 73.4865 74.1104 73.4865C75.5264 73.4865 76.6738 72.3391 76.6738 70.923C76.6738 69.507 75.5264 68.3596 74.1104 68.3596ZM87.7822 60.9133C86.3662 60.9133 85.2188 62.0607 85.2188 63.4767C85.2188 64.8928 86.3662 66.0402 87.7822 66.0402C89.1982 66.0402 90.3457 64.8928 90.3457 63.4767C90.3457 62.0607 89.1982 60.9133 87.7822 60.9133ZM43.589 65.1895C42.1737 65.1895 41.0255 66.3378 41.0255 67.753C41.0255 69.169 42.1737 70.3165 43.589 70.3165C45.005 70.3165 46.1524 69.169 46.1524 67.753C46.1524 66.3378 45.005 65.1895 43.589 65.1895ZM43.5928 57.007C42.1768 57.007 41.0293 58.1545 41.0293 59.5705C41.0293 60.9865 42.1768 62.134 43.5928 62.134C45.0088 62.134 46.1562 60.9865 46.1562 59.5705C46.1562 58.1545 45.0088 57.007 43.5928 57.007ZM58.4854 33.9357C57.0693 33.9357 55.9219 35.0832 55.9219 36.4992C55.9219 37.9152 57.0693 39.0627 58.4854 39.0627C59.9014 39.0627 61.0488 37.9152 61.0488 36.4992C61.0488 35.0832 59.9014 33.9357 58.4854 33.9357ZM58.4854 25.757C57.0693 25.757 55.9219 26.9045 55.9219 28.3205C55.9219 29.7365 57.0693 30.884 58.4854 30.884C59.9014 30.884 61.0488 29.7365 61.0488 28.3205C61.0488 26.9045 59.9014 25.757 58.4854 25.757ZM58.4854 17.5783C57.0693 17.5783 55.9219 18.7258 55.9219 20.1418C55.9219 21.5578 57.0693 22.7053 58.4854 22.7053C59.9014 22.7053 61.0488 21.5578 61.0488 20.1418C61.0488 18.7258 59.9014 17.5783 58.4854 17.5783Z" fill="#E9E9E9"/>
<path d="M13.82 44.7368C12.7534 43.6374 12.1652 42.1886 12.1652 40.6559V37.1136C12.1652 37.0991 12.1637 37.0853 12.1637 37.0708C13.4103 36.7573 14.5921 36.1141 15.5671 35.1383C18.4427 32.2635 18.4427 27.6027 15.5671 24.7272C12.6924 21.8525 8.03159 21.8525 5.15607 24.7272C2.28131 27.6027 2.28131 32.2635 5.15607 35.1383C6.05481 36.037 7.1275 36.6543 8.26505 36.9915C8.26276 37.0319 8.25894 37.0724 8.25894 37.1136V40.6559C8.25894 43.2102 9.23856 45.6257 11.017 47.4575L17.7118 54.3552C18.7784 55.4546 19.3666 56.9042 19.3666 58.4362V89.0133C20.6201 90.0196 21.924 90.9672 23.2728 91.8514V58.4362C23.2728 55.8826 22.2932 53.4672 20.5148 51.6346L13.82 44.7368ZM10.3616 32.8625C8.74417 32.8625 7.43192 31.551 7.43192 29.9328C7.43192 28.3153 8.74417 27.0031 10.3616 27.0031C11.9798 27.0031 13.2913 28.3153 13.2913 29.9328C13.2913 31.551 11.9798 32.8625 10.3616 32.8625ZM92.5447 22.7199C90.7769 22.8023 89.0336 23.518 87.684 24.8676C84.8092 27.7424 84.8092 32.4039 87.684 35.2787C88.63 36.2247 89.7691 36.8572 90.9738 37.1807V44.0433C90.9738 45.6089 90.365 47.0798 89.2579 48.1869L81.1281 56.316C79.284 58.1608 78.2678 60.6129 78.2678 63.2213V91.682C79.6174 90.7856 80.9213 89.8258 82.174 88.8065V63.2213C82.174 61.6566 82.7836 60.1848 83.8907 59.0778L92.0198 50.9487C93.8646 49.1039 94.88 46.6518 94.88 44.0433V37.1601C96.0573 36.8305 97.1689 36.2049 98.0951 35.2787C98.1836 35.1902 98.2698 35.1002 98.3529 35.0078C96.9751 30.6202 95.0074 26.4942 92.5447 22.7199ZM92.8895 33.0028C91.2721 33.0028 89.9598 31.6913 89.9598 30.0731C89.9598 28.455 91.2721 27.1435 92.8895 27.1435C94.5077 27.1435 95.8192 28.455 95.8192 30.0731C95.8192 31.6913 94.5077 33.0028 92.8895 33.0028ZM77.482 14.9616C74.6064 12.0868 69.9456 12.0868 67.0709 14.9616C64.1954 17.8364 64.1954 22.4979 67.0709 25.3727C67.9994 26.3012 69.1148 26.9283 70.2958 27.2571V39.3047C70.2958 40.8695 69.6862 42.3412 68.5792 43.4475L54.3466 57.6809L45.6834 49.0177L49.8834 44.7941C51.7152 42.9516 52.7238 40.5063 52.7238 37.9085V14.4283C53.8675 14.0926 54.9455 13.4739 55.8481 12.5721C58.7228 9.69656 58.7228 5.03576 55.8481 2.161C52.9725 -0.714516 48.3117 -0.714516 45.437 2.161C42.5615 5.03576 42.5615 9.69656 45.437 12.5721C46.4059 13.541 47.5793 14.1826 48.8176 14.4977V37.9085C48.8176 39.4672 48.2126 40.9351 47.1132 42.0399L42.9216 46.2551L32.1946 35.5289C31.0876 34.4219 30.478 32.9502 30.478 31.3854V27.2892C31.7041 26.9703 32.863 26.3332 33.8235 25.3727C36.6983 22.4979 36.6983 17.8364 33.8235 14.9616C30.948 12.0868 26.2872 12.0868 23.4124 14.9616C20.5369 17.8364 20.5369 22.4979 23.4124 25.3727C24.3242 26.2844 25.4152 26.9062 26.5718 27.2396V31.3854C26.5718 33.9939 27.588 36.446 29.4328 38.2908L40.1674 49.0253L36.9325 52.2785C35.1007 54.121 34.0921 56.5662 34.0921 59.164V97.1958C35.3715 97.6444 36.6739 98.045 37.9983 98.3898V59.164C37.9983 57.6053 38.6041 56.1382 39.7027 55.0327L42.9292 51.7872L51.587 60.445C49.801 62.2783 48.8176 64.6908 48.8176 67.255V99.9676C49.4233 99.9889 50.0314 100 50.6425 100C51.3398 100 52.0334 99.9859 52.7238 99.9576V67.255C52.7238 65.7337 53.3006 64.3024 54.3496 63.2076L61.8272 70.6852C62.9335 71.7914 63.5431 73.2632 63.5431 74.8279V98.3204C64.8675 97.9679 66.1706 97.562 67.4493 97.1058V74.8279C67.4493 72.2202 66.4338 69.7674 64.5891 67.9226L57.1092 60.4427L71.3418 46.2101C73.1859 44.3653 74.2021 41.9132 74.2021 39.3047V27.2716C75.4037 26.9474 76.539 26.3157 77.482 25.3727C80.3567 22.4979 80.3567 17.8364 77.482 14.9616ZM47.7121 7.36654C47.7121 5.74834 49.0243 4.43685 50.6418 4.43685C52.2599 4.43685 53.5714 5.74834 53.5714 7.36654C53.5714 8.98397 52.2599 10.2962 50.6418 10.2962C49.0243 10.2962 47.7121 8.98397 47.7121 7.36654ZM28.6172 23.0968C26.9998 23.0968 25.6875 21.7853 25.6875 20.1671C25.6875 18.5497 26.9998 17.2375 28.6172 17.2375C30.2354 17.2375 31.5469 18.5497 31.5469 20.1671C31.5469 21.7853 30.2354 23.0968 28.6172 23.0968ZM72.2764 23.0968C70.6582 23.0968 69.3467 21.7853 69.3467 20.1671C69.3467 18.5497 70.6582 17.2375 72.2764 17.2375C73.8939 17.2375 75.2061 18.5497 75.2061 20.1671C75.2061 21.7853 73.8939 23.0968 72.2764 23.0968ZM60.46 36.4994C60.46 37.6056 59.7574 38.5456 58.7755 38.9049C57.7935 38.5456 57.0909 37.6056 57.0909 36.4994C57.0909 35.3931 57.7935 34.4532 58.7755 34.0938C59.7574 34.4532 60.46 35.3931 60.46 36.4994ZM76.085 79.1019C76.085 80.2082 75.3824 81.1481 74.4005 81.5075C73.4185 81.1481 72.7159 80.2082 72.7159 79.1019C72.7159 77.9957 73.4185 77.0557 74.4005 76.6964C75.3824 77.0557 76.085 77.9957 76.085 79.1019ZM76.085 70.9232C76.085 72.0295 75.3824 72.9694 74.4005 73.3288C73.4185 72.9694 72.7159 72.0295 72.7159 70.9232C72.7159 69.817 73.4185 68.877 74.4005 68.5177C75.3824 68.877 76.085 69.817 76.085 70.9232ZM58.7755 17.7364C59.7574 18.0958 60.46 19.0357 60.46 20.142C60.46 21.2482 59.7574 22.1882 58.7755 22.5475C57.7935 22.1882 57.0909 21.2482 57.0909 20.142C57.0909 19.0357 57.7935 18.0958 58.7755 17.7364ZM89.7569 63.4769C89.7569 64.5832 89.0542 65.5231 88.0723 65.8825C87.0904 65.5231 86.3878 64.5832 86.3878 63.4769C86.3878 62.3707 87.0904 61.4307 88.0723 61.0714C89.0542 61.4307 89.7569 62.3707 89.7569 63.4769ZM76.085 87.2806C76.085 88.3869 75.3824 89.3268 74.4005 89.6862C73.4185 89.3268 72.7159 88.3869 72.7159 87.2806C72.7159 86.1744 73.4185 85.2344 74.4005 84.8751C75.3824 85.2344 76.085 86.1744 76.085 87.2806ZM15.5381 65.4301C15.5381 66.5363 14.8355 67.4763 13.8536 67.8356C12.8717 67.4763 12.169 66.5363 12.169 65.4301C12.169 64.3238 12.8717 63.3838 13.8536 63.0245C14.8355 63.3838 15.5381 64.3238 15.5381 65.4301ZM60.46 28.3207C60.46 29.4269 59.7574 30.3669 58.7755 30.7262C57.7935 30.3669 57.0909 29.4269 57.0909 28.3207C57.0909 27.2144 57.7935 26.2745 58.7755 25.9151C59.7574 26.2745 60.46 27.2144 60.46 28.3207ZM15.5381 57.2513C15.5381 58.3576 14.8355 59.2975 13.8536 59.6569C12.8717 59.2975 12.169 58.3576 12.169 57.2513C12.169 56.1451 12.8717 55.2051 13.8536 54.8458C14.8355 55.2051 15.5381 56.1451 15.5381 57.2513ZM15.5381 73.6088C15.5381 74.715 14.8355 75.655 13.8536 76.0143C12.8717 75.655 12.169 74.715 12.169 73.6088C12.169 72.5025 12.8717 71.5626 13.8536 71.2032C14.8355 71.5626 15.5381 72.5025 15.5381 73.6088ZM45.5674 59.5707C45.5674 60.6769 44.8648 61.6169 43.8829 61.9762C42.901 61.6169 42.1983 60.6769 42.1983 59.5707C42.1983 58.4644 42.901 57.5245 43.8829 57.1651C44.8648 57.5245 45.5674 58.4644 45.5674 59.5707ZM45.5636 67.7532C45.5636 68.8602 44.8617 69.8002 43.8791 70.1588C42.8972 69.7994 42.1945 68.8602 42.1945 67.7532C42.1945 66.6469 42.8972 65.707 43.8791 65.3477C44.8617 65.707 45.5636 66.6469 45.5636 67.7532Z" fill="#40616C"/>
<path d="M53.6105 2.15588C52.7179 1.26324 51.6536 0.648315 50.5236 0.310333C49.3937 0.648315 48.3287 1.26401 47.436 2.15588C44.5613 5.0314 44.5613 9.6922 47.436 12.567C48.3287 13.4596 49.3937 14.0745 50.5236 14.4133C51.6536 14.0745 52.7186 13.4596 53.6105 12.567C56.4853 9.6922 56.4853 5.0314 53.6105 2.15588ZM48.405 10.2911C46.7868 10.2911 45.4753 8.97962 45.4753 7.36142C45.4753 5.74323 46.7868 4.43173 48.405 4.43173C50.0232 4.43173 51.3347 5.74323 51.3347 7.36142C51.3347 8.97962 50.0232 10.2911 48.405 10.2911ZM75.2444 14.9572C74.3518 14.0646 73.2875 13.4497 72.1576 13.1117C71.0276 13.4497 69.9626 14.0646 69.0699 14.9572C66.1952 17.832 66.1952 22.4936 69.0699 25.3683C69.9626 26.261 71.0269 26.8759 72.1576 27.2139C73.2875 26.8759 74.3518 26.261 75.2444 25.3683C78.1192 22.4936 78.1192 17.832 75.2444 14.9572ZM70.0389 23.0925C68.4207 23.0925 67.1092 21.781 67.1092 20.1628C67.1092 18.5446 68.4207 17.2331 70.0389 17.2331C71.6571 17.2331 72.9686 18.5446 72.9686 20.1628C72.9686 21.781 71.6571 23.0925 70.0389 23.0925ZM91.006 23.8165C90.5368 24.1087 90.092 24.4551 89.6838 24.8633C86.8091 27.738 86.8091 32.3996 89.6838 35.2743C90.5764 36.167 91.6407 36.7819 92.7707 37.1199C93.9006 36.7819 94.9656 36.167 95.8583 35.2743C95.9468 35.1858 96.0322 35.095 96.1154 35.0035C94.8703 31.0385 93.1437 27.2871 91.006 23.8165ZM90.6527 32.9985C89.0345 32.9985 87.7231 31.6862 87.7231 30.0688C87.7231 28.4506 89.0345 27.1391 90.6527 27.1391C92.2709 27.1391 93.5824 28.4506 93.5824 30.0688C93.5824 31.687 92.2709 32.9985 90.6527 32.9985ZM31.586 14.9572C30.6933 14.0646 29.629 13.4497 28.4991 13.1117C27.3692 13.4497 26.3041 14.0646 25.4115 14.9572C22.5367 17.832 22.5367 22.4936 25.4115 25.3683C26.3041 26.261 27.3692 26.8759 28.4991 27.2139C29.629 26.8759 30.6933 26.261 31.586 25.3683C34.4607 22.4936 34.4607 17.832 31.586 14.9572ZM26.3804 23.0925C24.7622 23.0925 23.4507 21.781 23.4507 20.1628C23.4507 18.5446 24.7622 17.2331 26.3804 17.2331C27.9986 17.2331 29.3101 18.5446 29.3101 20.1628C29.3101 21.781 27.9986 23.0925 26.3804 23.0925ZM13.3303 24.7229C12.4377 23.8302 11.3734 23.2153 10.2435 22.8773C9.11358 23.2153 8.04852 23.8302 7.15664 24.7229C4.28112 27.5976 4.28112 32.2592 7.15664 35.1339C8.04928 36.0266 9.11358 36.6415 10.2435 36.9795C11.3734 36.6415 12.4385 36.0266 13.3303 35.1339C16.2051 32.2592 16.2051 27.5976 13.3303 24.7229ZM8.12481 32.8581C6.50661 32.8581 5.19512 31.5466 5.19512 29.9284C5.19512 28.3102 6.50661 26.9987 8.12481 26.9987C9.743 26.9987 11.0545 28.3102 11.0545 29.9284C11.0545 31.5466 9.743 32.8581 8.12481 32.8581Z" fill="#3E7E94"/>
</svg>
