<svg width="120" height="122" viewBox="0 0 120 122" fill="none" xmlns="http://www.w3.org/2000/svg">
<path d="M17.1675 63.6819H11.3306C10.3262 63.6837 9.46375 64.3965 9.27292 65.3826L0.0765335 112.582C-0.162086 113.815 0.163664 115.09 0.964441 116.058C1.76522 117.025 2.95696 117.583 4.21281 117.579H49.5018C49.5018 119.889 54.205 121.779 60 121.779C65.795 121.779 70.4982 119.889 70.4982 117.579H115.787C117.043 117.583 118.235 117.025 119.036 116.058C119.836 115.09 120.162 113.815 119.923 112.582L110.727 65.3826C110.536 64.3965 109.674 63.6837 108.669 63.6819H17.1675Z" fill="#E64C3C"/>
<path d="M59.9999 69.7917V109.181C56.9281 107.847 53.7267 106.833 50.4466 106.157C37.9783 103.447 25.013 104.106 12.8842 108.068C12.187 108.281 11.4295 108.12 10.8791 107.642C10.3287 107.164 10.0629 106.437 10.1756 105.716L17.1674 63.6818L17.7553 60.1334C17.9058 59.2329 18.6168 58.5304 19.519 58.3908C20.9467 58.1808 22.4165 57.9708 23.8862 57.8029C26.4519 62.7903 31.5892 65.9261 37.1979 65.9284C37.5758 65.9284 37.9328 65.9074 38.2897 65.8864C39.6878 65.7773 41.0649 65.4807 42.384 65.0046C42.3883 65.0492 42.4027 65.0923 42.426 65.1306C43.997 69.5308 48.1679 72.4655 52.8401 72.4583C55.4711 72.467 58.0156 71.5194 59.9999 69.7917Z" fill="#F5EFCA"/>
<path d="M107.116 108.068C94.9869 104.106 82.0216 103.447 69.5533 106.157C66.2732 106.833 63.0718 107.847 60 109.181V69.7918C60.4416 69.4308 60.8492 69.0302 61.2178 68.595C63.3156 69.4294 65.553 69.8569 67.8106 69.8547H67.9366C68.0457 71.3561 68.6179 72.7866 69.5743 73.949C71.6123 75.9637 74.1597 77.3862 76.944 78.0643C78.9643 78.7093 80.7666 79.9011 82.1511 81.5077C83.3853 83.0367 85.4766 83.5744 87.2952 82.8305C88.8962 82.1389 89.935 80.5641 89.9407 78.8202C89.9429 78.3639 89.8721 77.9102 89.7308 77.4764C89.5208 76.8255 89.2899 76.1746 89.0169 75.5447C88.4904 74.2438 87.7988 73.016 86.9593 71.8914C91.1234 69.6393 94.0478 65.627 94.9169 60.9733C94.9799 60.8893 95.0638 60.8053 95.1268 60.7213C95.8454 59.8761 96.4328 58.9277 96.8695 57.9078C98.0873 58.0548 99.2841 58.2018 100.481 58.3908C101.383 58.5304 102.094 59.2329 102.245 60.1334L102.832 63.6818L109.824 105.716C109.937 106.437 109.671 107.164 109.121 107.642C108.57 108.12 107.813 108.281 107.116 108.068Z" fill="#F9EAB0"/>
<path d="M70.498 117.579C70.498 119.889 65.7948 121.779 59.9999 121.779C54.2049 121.779 49.5017 119.889 49.5017 117.579L50.4465 106.157C53.7266 106.833 56.9281 107.847 59.9999 109.181C63.0716 107.847 66.2731 106.833 69.5532 106.157L70.498 117.579Z" fill="#C03A2B"/>
<path d="M97.7934 53.5197C97.7914 55.0305 97.4769 56.5246 96.8695 57.908C96.4329 58.9278 95.8454 59.8762 95.1268 60.7215C95.0639 60.8054 94.9799 60.8894 94.9169 60.9734C94.0478 65.6271 91.1235 69.6394 86.9593 71.8915C87.7989 73.0161 88.4904 74.2439 89.0169 75.5449C89.2899 76.1747 89.5208 76.8256 89.7308 77.4765C89.8721 77.9104 89.943 78.364 89.9408 78.8203C89.9351 80.5643 88.8962 82.139 87.2952 82.8306C85.4766 83.5745 83.3853 83.0368 82.1511 81.5078C80.7667 79.9013 78.9644 78.7094 76.944 78.0644C74.1598 77.3863 71.6123 75.9638 69.5743 73.9491C68.6179 72.7867 68.0457 71.3562 67.9366 69.8549H67.8107C65.553 69.857 63.3156 69.4295 61.2178 68.5951C60.8492 69.0303 60.4416 69.4309 60 69.7919C58.0157 71.5195 55.4712 72.4671 52.8403 72.4584C48.168 72.4656 43.9972 69.5309 42.4261 65.1307C42.4028 65.0924 42.3885 65.0493 42.3841 65.0047C41.0651 65.4809 39.688 65.7775 38.2898 65.8866C37.9329 65.9075 37.576 65.9285 37.198 65.9285C31.5233 65.9246 26.3365 62.719 23.7951 57.6451C21.2537 52.5713 21.7928 46.4977 25.1881 41.9508C24.9356 41.2651 24.8076 40.5398 24.8102 39.8091C24.7976 36.7062 26.977 34.0258 30.0173 33.4053C30.0286 33.3939 30.0434 33.3865 30.0593 33.3843C30.0383 33.1323 30.0173 32.8804 30.0173 32.6074C30.0145 31.4429 30.2578 30.2909 30.7312 29.227C32.0708 26.1287 35.1242 24.1233 38.4998 24.1249C39.7729 24.1188 41.0302 24.4062 42.1742 24.9647C44.4094 21.2014 48.4632 18.8952 52.8403 18.8968C55.8435 18.8859 58.7448 19.9851 60.9869 21.9833C62.2739 19.9071 64.6151 18.7264 67.0497 18.9256C69.4842 19.1248 71.6023 20.6704 72.5348 22.9281C73.1344 22.8611 73.7372 22.8261 74.3405 22.8231C82.4757 22.8366 89.2457 29.0773 89.9198 37.1846H89.9827C91.7127 37.1846 93.3714 37.8732 94.5927 39.0984C95.8139 40.3236 96.4972 41.9846 96.4916 43.7144C96.4875 44.8457 96.1987 45.9577 95.6518 46.9479C97.0451 48.8556 97.7952 51.1573 97.7934 53.5197Z" fill="#FB7B76"/>
<path d="M95.127 60.7213C95.064 60.8053 94.98 60.8893 94.917 60.9733C94.5471 62.9954 93.776 64.9229 92.6494 66.6423C91.5499 66.9543 90.4119 67.1098 89.269 67.1042C87.1882 67.0983 85.1381 66.602 83.2851 65.6555C82.4079 65.1861 81.5842 64.6229 80.8285 63.9758C79.991 64.3001 79.102 64.4708 78.204 64.4797C75.4306 64.494 72.8902 62.9307 71.6531 60.4484C71.3156 59.777 71.3618 58.9766 71.7745 58.3486C72.1871 57.7206 72.9034 57.3604 73.6536 57.4037C74.4038 57.4471 75.0739 57.8874 75.4115 58.5587C75.8261 59.3548 76.5608 59.9361 77.4309 60.1567C78.301 60.3772 79.2238 60.216 79.9676 59.7135C80.8074 59.1404 81.3103 58.1897 81.3114 57.173C81.3145 56.6862 81.2068 56.2052 80.9965 55.7662C80.5737 54.751 81.006 53.5816 81.9874 53.0853C82.9688 52.5891 84.1668 52.9342 84.7338 53.8765C85.2444 54.9004 85.5103 56.0288 85.5107 57.173C85.4937 58.6401 85.0325 60.0675 84.1879 61.2673C84.5238 61.4982 84.8598 61.7292 85.1957 61.9181C86.4556 62.5666 87.8521 62.9049 89.269 62.905C91.4228 62.9169 93.5065 62.1402 95.127 60.7213Z" fill="#FF5364"/>
<path d="M69.4484 52.478C72.1684 50.604 74.0389 47.7322 74.6534 44.4868C74.8097 43.7438 74.5528 42.9743 73.9814 42.4744C73.41 41.9744 72.6132 41.8219 71.8975 42.0754C71.1819 42.329 70.6589 42.9492 70.5297 43.6973C70.118 45.8629 68.8686 47.7786 67.0527 49.0283C63.5595 51.381 58.8745 50.847 56.0003 47.7685C55.2181 46.9104 53.8885 46.8489 53.0304 47.631C52.1723 48.4132 52.1107 49.7428 52.8928 50.6009C54.674 52.5675 57.0279 53.9247 59.6221 54.4811C58.4459 56.1344 56.5407 57.1143 54.5116 57.1098C53.3521 57.1098 52.412 58.0498 52.412 59.2094C52.412 60.369 53.3521 61.3091 54.5116 61.3091C58.8582 61.3264 62.7582 58.6418 64.2938 54.5755C66.1464 54.2676 67.9072 53.5511 69.4484 52.478Z" fill="#FF5364"/>
<path d="M89.0171 75.5447C87.4738 76.3323 85.8156 76.8709 84.104 77.1404C83.9929 77.1579 83.8804 77.1649 83.768 77.1614C82.6622 77.1716 81.7381 76.3224 81.6549 75.2197C81.5718 74.117 82.3583 73.1388 83.4531 72.9832C84.6704 72.7989 85.8527 72.4308 86.9595 71.8914C87.7991 73.0159 88.4906 74.2438 89.0171 75.5447Z" fill="#FF5364"/>
<path d="M42.237 60.8893C42.131 61.4784 42.0748 62.0754 42.069 62.674C42.0648 63.4617 42.1708 64.2462 42.3839 65.0046C41.0649 65.4807 39.6878 65.7773 38.2897 65.8864C38.0209 64.8578 37.8799 63.8 37.8697 62.737C34.1713 62.3336 31.3678 59.2136 31.3609 55.4932C31.3538 54.3239 32.2913 53.3677 33.4605 53.3516C34.0148 53.3483 34.5476 53.5655 34.9414 53.9554C35.3353 54.3454 35.5579 54.876 35.5601 55.4302V55.4932C35.5915 57.1524 36.905 58.5025 38.5626 58.5797C38.8529 57.6326 39.2547 56.7234 39.7594 55.8712C40.0414 55.3897 40.5057 55.0424 41.0472 54.908C41.5887 54.7736 42.1616 54.8635 42.6359 55.1573C43.6232 55.7676 43.9406 57.0557 43.3498 58.0548C42.8166 58.9276 42.44 59.8869 42.237 60.8893Z" fill="#FF5364"/>
<path d="M73.459 73.1719C72.1974 73.5755 70.8945 73.8361 69.5747 73.9488C68.6183 72.7864 68.0461 71.3558 67.937 69.8545C68.1402 69.8583 68.3435 69.8513 68.5459 69.8335C69.7928 69.7544 71.0261 69.5289 72.2203 69.1616C72.9444 68.9132 73.7463 69.0787 74.3131 69.5933C74.8798 70.108 75.1215 70.8904 74.9438 71.635C74.766 72.3797 74.1971 72.9686 73.459 73.1719Z" fill="#FF5364"/>
<path d="M55.381 35.6936C55.381 34.534 54.4409 33.594 53.2814 33.594C47.9496 33.5998 43.6288 37.9206 43.623 43.2523C43.623 44.4119 44.5631 45.3519 45.7227 45.3519C46.8823 45.3519 47.8223 44.4119 47.8223 43.2523C47.8223 41.8045 48.3975 40.4159 49.4212 39.3922C50.445 38.3684 51.8335 37.7933 53.2814 37.7933C54.4409 37.7933 55.381 36.8532 55.381 35.6936Z" fill="#FF5364"/>
<path d="M27.9764 47.5C27.5951 47.5005 27.221 47.3958 26.8951 47.1977C25.1638 46.1529 23.8538 44.5339 23.1935 42.6226C22.8741 41.7139 22.7115 40.7576 22.7127 39.7944C22.7126 35.036 26.5627 31.1746 31.3211 31.1607C34.0477 31.1503 36.6147 32.4451 38.2268 34.644C38.6743 35.2463 38.7664 36.0417 38.4685 36.7303C38.1705 37.419 37.5278 37.8964 36.7825 37.9828C36.0371 38.0691 35.3023 37.7512 34.8548 37.1489C34.0319 36.026 32.7217 35.3642 31.3295 35.3684C29.3422 35.3795 27.6048 36.7109 27.0771 38.627C26.5495 40.543 27.3605 42.5762 29.0619 43.6031C29.871 44.0896 30.2559 45.0562 30.0027 45.9656C29.7495 46.8751 28.9205 47.5037 27.9764 47.5021V47.5Z" fill="#FF5364"/>
<path d="M73.0324 27.5282C71.8728 27.5282 70.9328 26.5882 70.9328 25.4286C70.9328 22.9894 68.9554 21.012 66.5162 21.012C64.077 21.012 62.0997 22.9894 62.0997 25.4286C62.0997 26.5882 61.1596 27.5282 60 27.5282C58.8404 27.5282 57.9004 26.5882 57.9004 25.4286C57.9004 20.6702 61.7578 16.8127 66.5162 16.8127C71.2746 16.8127 75.1321 20.6702 75.1321 25.4286C75.1321 25.9854 74.9109 26.5195 74.5171 26.9132C74.1233 27.307 73.5893 27.5282 73.0324 27.5282Z" fill="#FF5364"/>
<path d="M92.7272 51.737C91.7523 51.7274 90.9123 51.0481 90.699 50.0968C90.4857 49.1455 90.9553 48.1726 91.8327 47.7477C92.6695 47.3545 93.364 46.712 93.8211 45.9084C94.8892 44.0881 94.5176 41.7661 92.9347 40.3701C91.3518 38.974 89.0016 38.8955 87.329 40.1827C86.4013 40.8785 85.0853 40.6905 84.3895 39.7628C83.6938 38.8351 83.8818 37.5191 84.8095 36.8233C86.2788 35.7109 88.0687 35.104 89.9116 35.0932C93.9681 35.0657 97.4964 37.8666 98.3898 41.8236C99.2832 45.7806 97.3006 49.8258 93.6258 51.5438C93.3445 51.6747 93.0374 51.7407 92.7272 51.737Z" fill="#FF5364"/>
</svg>
