<svg width="762" height="384" viewBox="0 0 762 384" fill="none" xmlns="http://www.w3.org/2000/svg">
<path d="M691.197 0.00314331H768V76.8061H691.197V0.00314331Z" fill="#FAFAFA"/>
<path d="M768 76.8061C768 56.4367 759.908 36.9016 745.505 22.4982C731.102 8.09486 711.566 0.00314331 691.197 0.00314331L768 76.8061C747.631 76.8061 728.095 68.7144 713.692 54.311C699.289 39.9077 691.197 20.3725 691.197 0.00314331" fill="#F3F3F3"/>
<path d="M614.394 0.00296021H691.197V76.8059H614.394V0.00296021Z" fill="#FE9B9B"/>
<path d="M691.197 0.00296021C670.828 0.00296021 651.292 8.09468 636.889 22.498C622.486 36.9014 614.394 56.4365 614.394 76.8059L691.197 0.00296021C691.197 20.3724 683.105 39.9075 668.702 54.3108C654.299 68.7142 634.763 76.8059 614.394 76.8059" fill="#FFF7F7"/>
<path d="M537.6 0.00296021H614.403V76.8059H537.6V0.00296021Z" fill="#F7F7F7"/>
<path d="M614.403 76.8059C614.403 56.4365 606.311 36.9014 591.908 22.498C577.505 8.09468 557.969 0.00296021 537.6 0.00296021V76.8059" fill="#FE8989"/>
<path d="M460.797 0.00296021H537.6V76.8059H460.797V0.00296021Z" fill="#FEA1A1"/>
<path d="M537.6 76.8059C537.6 56.4365 529.508 36.9014 515.105 22.498C500.702 8.09468 481.166 0.00296021 460.797 0.00296021V76.8059" fill="#FD4D4D"/>
<path d="M383.994 0.00296021H460.797V76.8059H383.994V0.00296021Z" fill="#FEC1C1"/>
<path d="M460.797 0.00296021C440.428 0.00296021 420.893 8.09468 406.489 22.498C392.086 36.9014 383.994 56.4365 383.994 76.8059H460.797" fill="#F1F1F1"/>
<path d="M307.2 0.00296021H384.003V76.8059H307.2V0.00296021Z" fill="white"/>
<path d="M384.003 0.00296021C363.634 0.00296021 344.098 8.09468 329.695 22.498C315.292 36.9014 307.2 56.4365 307.2 76.8059L384.003 0.00296021C384.003 20.3724 375.911 39.9075 361.508 54.3108C347.105 68.7142 327.569 76.8059 307.2 76.8059" fill="#E2E2E2"/>
<path d="M230.397 0.00296021H307.2V76.8059H230.397V0.00296021Z" fill="white"/>
<path d="M307.2 76.8059C286.831 76.8059 267.296 68.7142 252.892 54.3108C238.489 39.9075 230.397 20.3724 230.397 0.00296021H307.2" fill="#F1F1F1"/>
<path d="M153.6 0H230.4V76.8H153.6V0Z" fill="white"/>
<path d="M192 0.00296021H230.397V38.4H192V0.00296021Z" fill="white"/>
<path d="M230.397 0.00296021C230.397 5.04533 229.404 10.0383 227.474 14.6969C225.545 19.3554 222.716 23.5883 219.151 27.1538C215.585 30.7193 211.352 33.5476 206.694 35.4772C202.035 37.4068 197.042 38.4 192 38.4V0.00296021" fill="#E6E6E6"/>
<path d="M153.603 0.00296021H192V38.4H153.603V0.00296021Z" fill="#F2F2F2"/>
<path d="M192 38.4C192 28.2165 187.955 18.45 180.754 11.2492C173.553 4.04835 163.786 0.00296021 153.603 0.00296021L192 38.4C186.958 38.4 181.965 37.4068 177.306 35.4772C172.648 33.5476 168.415 30.7193 164.849 27.1538C161.284 23.5883 158.455 19.3554 156.526 14.6969C154.596 10.0383 153.603 5.04533 153.603 0.00296021" fill="#FE6363"/>
<path d="M192 38.4H230.397V76.797H192V38.4Z" fill="#FE9393"/>
<path d="M230.397 38.4C230.397 43.4424 229.404 48.4354 227.474 53.0939C225.545 57.7525 222.716 61.9853 219.151 65.5508C215.585 69.1163 211.352 71.9446 206.694 73.8742C202.035 75.8039 197.042 76.797 192 76.797V38.4" fill="white"/>
<path d="M153.603 38.4H192V76.797H153.603V38.4Z" fill="#E0E0E0"/>
<path d="M192 38.4C186.958 38.4 181.965 39.3932 177.306 41.3228C172.648 43.2524 168.415 46.0807 164.849 49.6462C161.284 53.2117 158.455 57.4446 156.526 62.1031C154.596 66.7617 153.603 71.7547 153.603 76.797L192 38.4C192 48.5835 187.955 58.35 180.754 65.5508C173.553 72.7516 163.786 76.797 153.603 76.797" fill="#E1E1E1"/>
<path d="M76.8001 0H153.6V76.8H76.8001V0Z" fill="white"/>
<path d="M115.206 0.00296021H153.603V38.4H115.206V0.00296021Z" fill="#FD6262"/>
<path d="M153.603 0.00296021C153.603 10.1865 149.558 19.9529 142.357 27.1538C135.156 34.3546 125.39 38.4 115.206 38.4V0.00296021" fill="#EBEBEB"/>
<path d="M76.8002 0.00296021H115.197V38.4H76.8002V0.00296021Z" fill="#FE8989"/>
<path d="M115.197 0.00296021C105.014 0.00296021 95.2473 4.04835 88.0464 11.2492C80.8456 18.45 76.8002 28.2165 76.8002 38.4H115.197" fill="#FE8A8A"/>
<path d="M115.206 38.4H153.603V76.797H115.206V38.4Z" fill="#FE7878"/>
<path d="M153.603 76.797C143.419 76.797 133.653 72.7516 126.452 65.5508C119.251 58.35 115.206 48.5835 115.206 38.4H153.603" fill="#F7F7F7"/>
<path d="M76.8002 38.4H115.197V76.797H76.8002V38.4Z" fill="#FEA6A6"/>
<path d="M115.197 38.4C115.197 48.5835 111.152 58.35 103.951 65.5508C96.7502 72.7516 86.9837 76.797 76.8002 76.797V38.4" fill="#FFF8F8"/>
<path d="M0.000160217 0H76.8002V76.8H0.000160217V0Z" fill="white"/>
<path d="M38.4031 0.00296021H76.8002V38.4H38.4031V0.00296021Z" fill="#E8E8E8"/>
<path d="M76.8002 38.4C71.7578 38.4 66.7648 37.4068 62.1063 35.4772C57.4477 33.5476 53.2149 30.7193 49.6494 27.1538C46.0839 23.5883 43.2556 19.3554 41.326 14.6969C39.3963 10.0383 38.4031 5.04533 38.4031 0.00296021H76.8002" fill="#FD3636"/>
<path d="M0.006073 0.00296021H38.4031V38.4H0.006073V0.00296021Z" fill="#F1F1F1"/>
<path d="M38.4031 38.4C28.2195 38.4 18.4531 34.3546 11.2523 27.1538C4.05145 19.9529 0.006073 10.1865 0.006073 0.00296021H38.4031" fill="#FE6868"/>
<path d="M38.4031 38.4H76.8002V76.797H38.4031V38.4Z" fill="#EEEEEE"/>
<path d="M76.8002 76.797C71.7578 76.797 66.7648 75.8039 62.1063 73.8742C57.4477 71.9446 53.2149 69.1163 49.6494 65.5508C46.0839 61.9853 43.2556 57.7525 41.326 53.0939C39.3963 48.4354 38.4031 43.4424 38.4031 38.4H76.8002" fill="#E6E6E6"/>
<path d="M0.006073 38.4H38.4031V76.797H0.006073V38.4Z" fill="#FE8787"/>
<path d="M38.4031 76.797C38.4031 66.6135 34.3577 56.8471 27.1569 49.6462C19.956 42.4454 10.1896 38.4 0.006073 38.4V76.797" fill="#FE8888"/>
<path d="M691.2 76.8H768V153.6H691.2V76.8Z" fill="white"/>
<path d="M729.603 76.7971H768V115.194H729.603V76.7971Z" fill="#FE8787"/>
<path d="M768 76.7971C757.816 76.7971 748.05 80.8424 740.849 88.0433C733.648 95.2441 729.603 105.011 729.603 115.194L768 76.7971C768 86.9806 763.955 96.747 756.754 103.948C749.553 111.149 739.786 115.194 729.603 115.194" fill="#FCFCFC"/>
<path d="M691.206 76.7971H729.603V115.194H691.206V76.7971Z" fill="#FFE4E4"/>
<path d="M729.603 115.194C729.603 105.011 725.558 95.2441 718.357 88.0433C711.156 80.8424 701.389 76.7971 691.206 76.7971V115.194" fill="#FEB0B0"/>
<path d="M729.603 115.203H768V153.6H729.603V115.203Z" fill="#FEA6A6"/>
<path d="M768 153.6C757.816 153.6 748.05 149.555 740.849 142.354C733.648 135.153 729.603 125.386 729.603 115.203H768" fill="#E0E0E0"/>
<path d="M691.206 115.203H729.603V153.6H691.206V115.203Z" fill="#FDFDFD"/>
<path d="M729.603 153.6C719.419 153.6 709.653 149.555 702.452 142.354C695.251 135.153 691.206 125.386 691.206 115.203H729.603" fill="#FFD1D1"/>
<path d="M614.4 76.8H691.2V153.6H614.4V76.8Z" fill="white"/>
<path d="M652.8 76.7971H691.197V115.194H652.8V76.7971Z" fill="#F7F7F7"/>
<path d="M691.197 76.7971C691.197 86.9806 687.152 96.747 679.951 103.948C672.75 111.149 662.984 115.194 652.8 115.194V76.7971" fill="#EAEAEA"/>
<path d="M614.403 76.7971H652.8V115.194H614.403V76.7971Z" fill="#E8E8E8"/>
<path d="M652.8 76.7971C642.616 76.7971 632.85 80.8424 625.649 88.0433C618.448 95.2441 614.403 105.011 614.403 115.194H652.8" fill="#E1E1E1"/>
<path d="M652.8 115.203H691.197V153.6H652.8V115.203Z" fill="#F8F8F8"/>
<path d="M691.197 115.203C681.013 115.203 671.247 119.248 664.046 126.449C656.845 133.65 652.8 143.416 652.8 153.6L691.197 115.203C691.197 125.386 687.152 135.153 679.951 142.354C672.75 149.555 662.984 153.6 652.8 153.6" fill="#F0F0F0"/>
<path d="M614.403 115.203H652.8V153.6H614.403V115.203Z" fill="#FE9696"/>
<path d="M652.8 153.6C652.8 143.416 648.755 133.65 641.554 126.449C634.353 119.248 624.586 115.203 614.403 115.203L652.8 153.6C642.616 153.6 632.85 149.555 625.649 142.354C618.448 135.153 614.403 125.386 614.403 115.203" fill="#FFD4D4"/>
<path d="M537.6 76.8H614.4V153.6H537.6V76.8Z" fill="white"/>
<path d="M576.006 76.7971H614.403V115.194H576.006V76.7971Z" fill="#FD4242"/>
<path d="M614.403 115.194C604.219 115.194 594.453 111.149 587.252 103.948C580.051 96.747 576.006 86.9806 576.006 76.7971H614.403" fill="#F0F0F0"/>
<path d="M537.6 76.7971H575.997V115.194H537.6V76.7971Z" fill="#E9E9E9"/>
<path d="M575.997 115.194C575.997 105.011 571.952 95.2441 564.751 88.0433C557.55 80.8424 547.784 76.7971 537.6 76.7971V115.194" fill="#FE7C7C"/>
<path d="M576.006 115.203H614.403V153.6H576.006V115.203Z" fill="#F3F3F3"/>
<path d="M614.403 115.203C614.403 125.386 610.358 135.153 603.157 142.354C595.956 149.555 586.189 153.6 576.006 153.6V115.203" fill="#FE8E8E"/>
<path d="M537.6 115.203H575.997V153.6H537.6V115.203Z" fill="#FE7E7E"/>
<path d="M575.997 115.203C565.814 115.203 556.047 119.248 548.846 126.449C541.646 133.65 537.6 143.416 537.6 153.6L575.997 115.203C575.997 125.386 571.952 135.153 564.751 142.354C557.55 149.555 547.784 153.6 537.6 153.6" fill="#F1F1F1"/>
<path d="M460.8 76.8H537.6V153.6H460.8V76.8Z" fill="white"/>
<path d="M499.203 76.7971H537.6V115.194H499.203V76.7971Z" fill="#FFDBDB"/>
<path d="M537.6 76.7971C537.6 86.9806 533.555 96.747 526.354 103.948C519.153 111.149 509.386 115.194 499.203 115.194V76.7971" fill="#FEBBBB"/>
<path d="M460.806 76.7971H499.203V115.194H460.806V76.7971Z" fill="#E5E5E5"/>
<path d="M499.203 115.194C499.203 105.011 495.157 95.2441 487.957 88.0433C480.756 80.8424 470.989 76.7971 460.806 76.7971L499.203 115.194C489.019 115.194 479.253 111.149 472.052 103.948C464.851 96.747 460.806 86.9806 460.806 76.7971" fill="#FDFDFD"/>
<path d="M499.203 115.203H537.6V153.6H499.203V115.203Z" fill="#FE6666"/>
<path d="M537.6 153.6C527.416 153.6 517.65 149.555 510.449 142.354C503.248 135.153 499.203 125.386 499.203 115.203H537.6" fill="#FEADAD"/>
<path d="M460.806 115.203H499.203V153.6H460.806V115.203Z" fill="#FE8A8A"/>
<path d="M499.203 115.203C489.019 115.203 479.253 119.248 472.052 126.449C464.851 133.65 460.806 143.416 460.806 153.6H499.203" fill="#E3E3E3"/>
<path d="M383.994 76.7971H460.797V153.6H383.994V76.7971Z" fill="#DEDEDE"/>
<path d="M460.797 76.7971C460.797 97.1665 452.705 116.702 438.302 131.105C423.899 145.508 404.364 153.6 383.994 153.6V76.7971" fill="#F7F7F7"/>
<path d="M307.2 76.8H384V153.6H307.2V76.8Z" fill="white"/>
<path d="M345.606 76.7971H384.003V115.194H345.606V76.7971Z" fill="#FEB2B2"/>
<path d="M384.003 76.7971C373.819 76.7971 364.053 80.8424 356.852 88.0433C349.651 95.2441 345.606 105.011 345.606 115.194H384.003" fill="#FFD8D8"/>
<path d="M307.2 76.7971H345.597V115.194H307.2V76.7971Z" fill="#FD6060"/>
<path d="M345.597 115.194C345.597 105.011 341.552 95.2441 334.351 88.0433C327.15 80.8424 317.384 76.7971 307.2 76.7971L345.597 115.194C335.414 115.194 325.647 111.149 318.446 103.948C311.245 96.747 307.2 86.9806 307.2 76.7971" fill="#FD4E4E"/>
<path d="M345.606 115.203H384.003V153.6H345.606V115.203Z" fill="#FE8181"/>
<path d="M384.003 153.6C373.819 153.6 364.053 149.555 356.852 142.354C349.651 135.153 345.606 125.386 345.606 115.203H384.003" fill="#EBEBEB"/>
<path d="M307.2 115.203H345.597V153.6H307.2V115.203Z" fill="#E8E8E8"/>
<path d="M345.597 115.203C345.597 125.386 341.552 135.153 334.351 142.354C327.15 149.555 317.384 153.6 307.2 153.6V115.203" fill="#F7F7F7"/>
<path d="M230.4 76.8H307.2V153.6H230.4V76.8Z" fill="white"/>
<path d="M268.803 76.7971H307.2V115.194H268.803V76.7971Z" fill="#FE8A8A"/>
<path d="M307.2 115.194C307.2 105.011 303.155 95.2441 295.954 88.0433C288.753 80.8424 278.987 76.7971 268.803 76.7971V115.194" fill="#FE6868"/>
<path d="M230.406 76.7971H268.803V115.194H230.406V76.7971Z" fill="#FE8686"/>
<path d="M268.803 76.7971C258.619 76.7971 248.853 80.8424 241.652 88.0433C234.451 95.2441 230.406 105.011 230.406 115.194H268.803" fill="#F5F5F5"/>
<path d="M268.803 115.203H307.2V153.6H268.803V115.203Z" fill="#F6F6F6"/>
<path d="M307.2 153.6C307.2 143.416 303.155 133.65 295.954 126.449C288.753 119.248 278.987 115.203 268.803 115.203V153.6" fill="#FD5555"/>
<path d="M230.406 115.203H268.803V153.6H230.406V115.203Z" fill="#FFE3E3"/>
<path d="M268.803 153.6C258.619 153.6 248.853 149.555 241.652 142.354C234.451 135.153 230.406 125.386 230.406 115.203H268.803" fill="#FE7D7D"/>
<path d="M153.594 76.7971H230.397V153.6H153.594V76.7971Z" fill="#FCFCFC"/>
<path d="M230.397 76.7971C210.028 76.7971 190.492 84.8888 176.089 99.2921C161.686 113.695 153.594 133.231 153.594 153.6L230.397 76.7971C230.397 97.1665 222.305 116.702 207.902 131.105C193.499 145.508 173.963 153.6 153.594 153.6" fill="#EFEFEF"/>
<path d="M76.8001 76.7971H153.603V153.6H76.8001V76.7971Z" fill="#EEEEEE"/>
<path d="M153.603 76.7971C133.234 76.7971 113.699 84.8888 99.2952 99.2921C84.8918 113.695 76.8001 133.231 76.8001 153.6H153.603" fill="#FD5757"/>
<path d="M691.2 153.6H768V230.4H691.2V153.6Z" fill="white"/>
<path d="M729.603 153.6H768V191.997H729.603V153.6Z" fill="#E5E5E5"/>
<path d="M768 191.997C768 181.814 763.955 172.047 756.754 164.846C749.553 157.645 739.786 153.6 729.603 153.6V191.997" fill="#FFE2E2"/>
<path d="M691.206 153.6H729.603V191.997H691.206V153.6Z" fill="#FE9090"/>
<path d="M729.603 153.6C719.419 153.6 709.653 157.645 702.452 164.846C695.251 172.047 691.206 181.814 691.206 191.997H729.603" fill="#F4F4F4"/>
<path d="M729.603 191.997H768V230.394H729.603V191.997Z" fill="#FE7272"/>
<path d="M768 191.997C757.816 191.997 748.05 196.042 740.849 203.243C733.648 210.444 729.603 220.211 729.603 230.394H768" fill="#FBFBFB"/>
<path d="M691.206 191.997H729.603V230.394H691.206V191.997Z" fill="#EEEEEE"/>
<path d="M729.603 230.394C719.419 230.394 709.653 226.349 702.452 219.148C695.251 211.947 691.206 202.181 691.206 191.997H729.603" fill="#FD4949"/>
<path d="M614.4 153.6H691.2V230.4H614.4V153.6Z" fill="white"/>
<path d="M652.8 153.6H691.197V191.997H652.8V153.6Z" fill="#FE7474"/>
<path d="M691.197 191.997C691.197 181.814 687.152 172.047 679.951 164.846C672.75 157.645 662.984 153.6 652.8 153.6L691.197 191.997C681.013 191.997 671.247 187.952 664.046 180.751C656.845 173.55 652.8 163.784 652.8 153.6" fill="#F6F6F6"/>
<path d="M614.403 153.6H652.8V191.997H614.403V153.6Z" fill="#FBFBFB"/>
<path d="M652.8 153.6C642.616 153.6 632.85 157.645 625.649 164.846C618.448 172.047 614.403 181.814 614.403 191.997L652.8 153.6C652.8 163.784 648.755 173.55 641.554 180.751C634.353 187.952 624.586 191.997 614.403 191.997" fill="#EEEEEE"/>
<path d="M652.8 191.997H691.197V230.394H652.8V191.997Z" fill="#E3E3E3"/>
<path d="M691.197 230.394C681.013 230.394 671.247 226.349 664.046 219.148C656.845 211.947 652.8 202.181 652.8 191.997H691.197" fill="#ECECEC"/>
<path d="M614.403 191.997H652.8V230.394H614.403V191.997Z" fill="#F0F0F0"/>
<path d="M652.8 230.394C642.616 230.394 632.85 226.349 625.649 219.148C618.448 211.947 614.403 202.181 614.403 191.997H652.8" fill="#E9E9E9"/>
<path d="M537.6 153.6H614.4V230.4H537.6V153.6Z" fill="white"/>
<path d="M576.006 153.6H614.403V191.997H576.006V153.6Z" fill="#F8F8F8"/>
<path d="M614.403 153.6C604.219 153.6 594.453 157.645 587.252 164.846C580.051 172.047 576.006 181.814 576.006 191.997L614.403 153.6C614.403 163.784 610.358 173.55 603.157 180.751C595.956 187.952 586.189 191.997 576.006 191.997" fill="#FE9C9C"/>
<path d="M537.6 153.6H575.997V191.997H537.6V153.6Z" fill="#E7E7E7"/>
<path d="M575.997 191.997C575.997 181.814 571.952 172.047 564.751 164.846C557.55 157.645 547.784 153.6 537.6 153.6L575.997 191.997C565.814 191.997 556.047 187.952 548.846 180.751C541.646 173.55 537.6 163.784 537.6 153.6" fill="#FD4040"/>
<path d="M576.006 191.997H614.403V230.394H576.006V191.997Z" fill="#FD5050"/>
<path d="M614.403 230.394C604.219 230.394 594.453 226.349 587.252 219.148C580.051 211.947 576.006 202.181 576.006 191.997H614.403" fill="#FCFCFC"/>
<path d="M537.6 191.997H575.997V230.394H537.6V191.997Z" fill="#EBEBEB"/>
<path d="M575.997 230.394C575.997 220.211 571.952 210.444 564.751 203.243C557.55 196.042 547.784 191.997 537.6 191.997L575.997 230.394C565.814 230.394 556.047 226.349 548.846 219.148C541.646 211.947 537.6 202.181 537.6 191.997" fill="#FE9696"/>
<path d="M460.797 153.6H537.6V230.403H460.797V153.6Z" fill="#ECECEC"/>
<path d="M537.6 153.6C527.514 153.6 517.527 155.587 508.209 159.446C498.891 163.306 490.424 168.963 483.292 176.095C476.16 183.227 470.503 191.694 466.643 201.012C462.784 210.33 460.797 220.317 460.797 230.403L537.6 153.6C537.6 163.686 535.613 173.673 531.754 182.991C527.894 192.309 522.237 200.776 515.105 207.908C500.702 222.311 481.166 230.403 460.797 230.403" fill="#EBEBEB"/>
<path d="M384 153.6H460.8V230.4H384V153.6Z" fill="white"/>
<path d="M422.4 153.6H460.797V191.997H422.4V153.6Z" fill="#FEC3C3"/>
<path d="M460.797 191.997C460.797 181.814 456.752 172.047 449.551 164.846C442.35 157.645 432.584 153.6 422.4 153.6V191.997" fill="#FFF7F7"/>
<path d="M384.003 153.6H422.4V191.997H384.003V153.6Z" fill="#FDFDFD"/>
<path d="M422.4 191.997C412.217 191.997 402.45 187.952 395.249 180.751C388.048 173.55 384.003 163.784 384.003 153.6H422.4" fill="#EEEEEE"/>
<path d="M422.4 191.997H460.797V230.394H422.4V191.997Z" fill="#FE9191"/>
<path d="M460.797 191.997C450.614 191.997 440.847 196.042 433.646 203.243C426.445 210.444 422.4 220.211 422.4 230.394L460.797 191.997C460.797 202.181 456.752 211.947 449.551 219.148C442.35 226.349 432.584 230.394 422.4 230.394" fill="#FE7474"/>
<path d="M384.003 191.997H422.4V230.394H384.003V191.997Z" fill="#FFD6D6"/>
<path d="M422.4 230.394C422.4 220.211 418.355 210.444 411.154 203.243C403.953 196.042 394.187 191.997 384.003 191.997V230.394" fill="#DEDEDE"/>
<path d="M307.2 153.6H384V230.4H307.2V153.6Z" fill="white"/>
<path d="M345.606 153.6H384.003V191.997H345.606V153.6Z" fill="#FE9595"/>
<path d="M384.003 153.6C373.819 153.6 364.053 157.645 356.852 164.846C349.651 172.047 345.606 181.814 345.606 191.997L384.003 153.6C384.003 163.784 379.958 173.55 372.757 180.751C365.556 187.952 355.789 191.997 345.606 191.997" fill="#FEB9B9"/>
<path d="M307.2 153.6H345.597V191.997H307.2V153.6Z" fill="#FFD9D9"/>
<path d="M345.597 153.6C345.597 163.784 341.552 173.55 334.351 180.751C327.15 187.952 317.384 191.997 307.2 191.997V153.6" fill="#FEBBBB"/>
<path d="M345.606 191.997H384.003V230.394H345.606V191.997Z" fill="#FEBFBF"/>
<path d="M384.003 191.997C373.819 191.997 364.053 196.042 356.852 203.243C349.651 210.444 345.606 220.211 345.606 230.394L384.003 191.997C384.003 202.181 379.958 211.947 372.757 219.148C365.556 226.349 355.789 230.394 345.606 230.394" fill="#F1F1F1"/>
<path d="M307.2 191.997H345.597V230.394H307.2V191.997Z" fill="#FD3C3C"/>
<path d="M345.597 191.997C345.597 202.181 341.552 211.947 334.351 219.148C327.15 226.349 317.384 230.394 307.2 230.394V191.997" fill="#FE8888"/>
<path d="M230.4 153.6H307.2V230.4H230.4V153.6Z" fill="white"/>
<path d="M268.803 153.6H307.2V191.997H268.803V153.6Z" fill="#FD4A4A"/>
<path d="M307.2 153.6C302.158 153.6 297.165 154.593 292.506 156.523C287.848 158.452 283.615 161.281 280.049 164.846C276.484 168.412 273.656 172.645 271.726 177.303C269.796 181.962 268.803 186.955 268.803 191.997L307.2 153.6C307.2 163.784 303.155 173.55 295.954 180.751C288.753 187.952 278.987 191.997 268.803 191.997" fill="#FE8282"/>
<path d="M230.406 153.6H268.803V191.997H230.406V153.6Z" fill="#FD3E3E"/>
<path d="M268.803 153.6C258.619 153.6 248.853 157.645 241.652 164.846C234.451 172.047 230.406 181.814 230.406 191.997H268.803" fill="#E5E5E5"/>
<path d="M268.803 191.997H307.2V230.394H268.803V191.997Z" fill="#FE6767"/>
<path d="M307.2 191.997C307.2 202.181 303.155 211.947 295.954 219.148C288.753 226.349 278.987 230.394 268.803 230.394V191.997" fill="#FFD6D6"/>
<path d="M230.406 191.997H268.803V230.394H230.406V191.997Z" fill="#FE7A7A"/>
<path d="M268.803 191.997C258.619 191.997 248.853 196.042 241.652 203.243C234.451 210.444 230.406 220.211 230.406 230.394L268.803 191.997C268.803 202.181 264.758 211.947 257.557 219.148C250.356 226.349 240.59 230.394 230.406 230.394" fill="#E4E4E4"/>
<path d="M691.197 230.403H768V307.206H691.197V230.403Z" fill="#FE8484"/>
<path d="M768 230.403C747.631 230.403 728.095 238.495 713.692 252.898C699.289 267.301 691.197 286.836 691.197 307.206H768" fill="#F7F7F7"/>
<path d="M614.4 230.4H691.2V307.2H614.4V230.4Z" fill="white"/>
<path d="M652.8 230.403H691.197V268.8H652.8V230.403Z" fill="#ECECEC"/>
<path d="M691.197 230.403C691.197 240.586 687.152 250.353 679.951 257.554C672.75 264.755 662.984 268.8 652.8 268.8V230.403" fill="#FECACA"/>
<path d="M614.403 230.403H652.8V268.8H614.403V230.403Z" fill="#FD5858"/>
<path d="M652.8 268.8C652.8 258.616 648.755 248.85 641.554 241.649C634.353 234.448 624.586 230.403 614.403 230.403L652.8 268.8C642.616 268.8 632.85 264.755 625.649 257.554C618.448 250.353 614.403 240.586 614.403 230.403" fill="#FEB6B6"/>
<path d="M652.8 268.8H691.197V307.197H652.8V268.8Z" fill="#F6F6F6"/>
<path d="M691.197 268.8C681.013 268.8 671.247 272.845 664.046 280.046C656.845 287.247 652.8 297.013 652.8 307.197L691.197 268.8C691.197 278.984 687.152 288.75 679.951 295.951C672.75 303.152 662.984 307.197 652.8 307.197" fill="#FCFCFC"/>
<path d="M614.403 268.8H652.8V307.197H614.403V268.8Z" fill="#FD4C4C"/>
<path d="M652.8 307.197C652.8 297.013 648.755 287.247 641.554 280.046C634.353 272.845 624.586 268.8 614.403 268.8V307.197" fill="#FFF4F4"/>
<path d="M537.6 230.403H614.403V307.206H537.6V230.403Z" fill="#FCFCFC"/>
<path d="M614.403 307.206C614.403 286.836 606.311 267.301 591.908 252.898C577.505 238.495 557.969 230.403 537.6 230.403V307.206" fill="#FEB6B6"/>
<path d="M460.8 230.4H537.6V307.2H460.8V230.4Z" fill="white"/>
<path d="M499.203 230.403H537.6V268.8H499.203V230.403Z" fill="#FCFCFC"/>
<path d="M537.6 268.8C537.6 258.616 533.555 248.85 526.354 241.649C519.153 234.448 509.386 230.403 499.203 230.403V268.8" fill="#FFFCFC"/>
<path d="M460.806 230.403H499.203V268.8H460.806V230.403Z" fill="#ECECEC"/>
<path d="M499.203 268.8C489.019 268.8 479.253 264.755 472.052 257.554C464.851 250.353 460.806 240.586 460.806 230.403H499.203" fill="#FD6161"/>
<path d="M499.203 268.8H537.6V307.197H499.203V268.8Z" fill="#F9F9F9"/>
<path d="M537.6 268.8C537.6 278.984 533.555 288.75 526.354 295.951C519.153 303.152 509.386 307.197 499.203 307.197V268.8" fill="#FBFBFB"/>
<path d="M460.806 268.8H499.203V307.197H460.806V268.8Z" fill="#FD3333"/>
<path d="M499.203 268.8C499.203 278.984 495.157 288.75 487.957 295.951C480.756 303.152 470.989 307.197 460.806 307.197V268.8" fill="#F1F1F1"/>
<path d="M384 230.4H460.8V307.2H384V230.4Z" fill="white"/>
<path d="M422.4 230.403H460.797V268.8H422.4V230.403Z" fill="#FD4C4C"/>
<path d="M460.797 268.8C460.797 258.616 456.752 248.85 449.551 241.649C442.35 234.448 432.584 230.403 422.4 230.403V268.8" fill="#ECECEC"/>
<path d="M384.003 230.403H422.4V268.8H384.003V230.403Z" fill="#ECECEC"/>
<path d="M422.4 268.8C422.4 258.616 418.355 248.85 411.154 241.649C403.953 234.448 394.187 230.403 384.003 230.403V268.8" fill="#FD3030"/>
<path d="M422.4 268.8H460.797V307.197H422.4V268.8Z" fill="#FE7B7B"/>
<path d="M460.797 307.197C460.797 297.013 456.752 287.247 449.551 280.046C442.35 272.845 432.584 268.8 422.4 268.8V307.197" fill="#ECECEC"/>
<path d="M384.003 268.8H422.4V307.197H384.003V268.8Z" fill="#FEFEFE"/>
<path d="M422.4 268.8C412.217 268.8 402.45 272.845 395.249 280.046C388.048 287.247 384.003 297.013 384.003 307.197L422.4 268.8C422.4 278.984 418.355 288.75 411.154 295.951C403.953 303.152 394.187 307.197 384.003 307.197" fill="#FD3838"/>
<path d="M691.2 307.2H768V384H691.2V307.2Z" fill="white"/>
<path d="M729.603 307.197H768V345.594H729.603V307.197Z" fill="#EAEAEA"/>
<path d="M768 345.594C757.816 345.594 748.05 341.549 740.849 334.348C733.648 327.147 729.603 317.381 729.603 307.197H768" fill="#FD4949"/>
<path d="M691.206 307.197H729.603V345.594H691.206V307.197Z" fill="#FD4646"/>
<path d="M729.603 345.594C719.419 345.594 709.653 341.549 702.452 334.348C695.251 327.147 691.206 317.381 691.206 307.197H729.603" fill="#FEC6C6"/>
<path d="M729.603 345.603H768V384H729.603V345.603Z" fill="#FE7E7E"/>
<path d="M768 345.603C768 355.786 763.955 365.553 756.754 372.754C749.553 379.955 739.786 384 729.603 384V345.603" fill="#E9E9E9"/>
<path d="M691.206 345.603H729.603V384H691.206V345.603Z" fill="#FEC5C5"/>
<path d="M729.603 345.603C719.419 345.603 709.653 349.648 702.452 356.849C695.251 364.05 691.206 373.816 691.206 384H729.603" fill="#FEFEFE"/>
<path d="M614.4 307.2H691.2V384H614.4V307.2Z" fill="white"/>
<path d="M652.8 307.197H691.197V345.594H652.8V307.197Z" fill="#FFEAEA"/>
<path d="M691.197 345.594C691.197 335.411 687.152 325.644 679.951 318.443C672.75 311.242 662.984 307.197 652.8 307.197L691.197 345.594C681.013 345.594 671.247 341.549 664.046 334.348C656.845 327.147 652.8 317.381 652.8 307.197" fill="#E6E6E6"/>
<path d="M614.403 307.197H652.8V345.594H614.403V307.197Z" fill="#FD3939"/>
<path d="M652.8 307.197C642.616 307.197 632.85 311.242 625.649 318.443C618.448 325.644 614.403 335.411 614.403 345.594L652.8 307.197C652.8 317.381 648.755 327.147 641.554 334.348C634.353 341.549 624.586 345.594 614.403 345.594" fill="#FDFDFD"/>
<path d="M652.8 345.603H691.197V384H652.8V345.603Z" fill="#E0E0E0"/>
<path d="M691.197 345.603C691.197 355.786 687.152 365.553 679.951 372.754C672.75 379.955 662.984 384 652.8 384V345.603" fill="#FE9797"/>
<path d="M614.403 345.603H652.8V384H614.403V345.603Z" fill="#FE7575"/>
<path d="M652.8 384C642.616 384 632.85 379.955 625.649 372.754C618.448 365.553 614.403 355.786 614.403 345.603H652.8" fill="#E6E6E6"/>
<path d="M537.6 307.197H614.403V384H537.6V307.197Z" fill="#FFD6D6"/>
<path d="M614.403 384C614.403 363.631 606.311 344.095 591.908 329.692C577.505 315.289 557.969 307.197 537.6 307.197L614.403 384C594.034 384 574.498 375.908 560.095 361.505C545.692 347.102 537.6 327.566 537.6 307.197" fill="#EEEEEE"/>
<path d="M460.8 307.2H537.6V384H460.8V307.2Z" fill="white"/>
<path d="M499.203 307.197H537.6V345.594H499.203V307.197Z" fill="#FEAEAE"/>
<path d="M537.6 307.197C527.416 307.197 517.65 311.242 510.449 318.443C503.248 325.644 499.203 335.411 499.203 345.594L537.6 307.197C537.6 317.381 533.555 327.147 526.354 334.348C519.153 341.549 509.386 345.594 499.203 345.594" fill="#FE6D6D"/>
<path d="M460.806 307.197H499.203V345.594H460.806V307.197Z" fill="#ECECEC"/>
<path d="M499.203 307.197C489.019 307.197 479.253 311.242 472.052 318.443C464.851 325.644 460.806 335.411 460.806 345.594H499.203" fill="#FE6969"/>
<path d="M499.203 345.603H537.6V384H499.203V345.603Z" fill="#FE6363"/>
<path d="M537.6 384C537.6 373.816 533.555 364.05 526.354 356.849C519.153 349.648 509.386 345.603 499.203 345.603L537.6 384C527.416 384 517.65 379.955 510.449 372.754C503.248 365.553 499.203 355.786 499.203 345.603" fill="#F0F0F0"/>
<path d="M460.806 345.603H499.203V384H460.806V345.603Z" fill="#FBFBFB"/>
<path d="M499.203 384C489.019 384 479.253 379.955 472.052 372.754C464.851 365.553 460.806 355.786 460.806 345.603H499.203" fill="#F9F9F9"/>
</svg>
