<svg width="667" height="601" viewBox="0 0 667 601" fill="none" xmlns="http://www.w3.org/2000/svg">
<path d="M66.6679 0H0V66.6679H66.6679V0Z" fill="white"/>
<path d="M33.3391 0H0V33.3391H33.3391V0Z" fill="#ECF0F6"/>
<path d="M0 0C8.84207 0 17.322 3.5125 23.5743 9.76479C29.8266 16.0171 33.3391 24.497 33.3391 33.3391H0" fill="#C7D2E4"/>
<path d="M66.6782 0H33.3391V33.3391H66.6782V0Z" fill="#FD5E5E"/>
<path d="M33.3391 33.3391C33.3391 24.497 36.8516 16.0171 43.1039 9.76479C49.3562 3.5125 57.8361 0 66.6782 0V33.3391" fill="#DBE2EE"/>
<path d="M33.3391 33.3391H0V66.6782H33.3391V33.3391Z" fill="#F1F4F8"/>
<path d="M0 66.6782C8.84207 66.6782 17.322 63.1657 23.5743 56.9134C29.8266 50.6611 33.3391 42.1812 33.3391 33.3391H0" fill="#FFDDDD"/>
<path d="M66.6782 33.3391H33.3391V66.6782H66.6782V33.3391Z" fill="#FEB8B8"/>
<path d="M33.3391 33.3391C33.3391 42.1812 36.8516 50.6611 43.1039 56.9134C49.3562 63.1657 57.8361 66.6782 66.6782 66.6782V33.3391" fill="#FFD0D0"/>
<path d="M133.336 0H66.668V66.6679H133.336V0Z" fill="white"/>
<path d="M100.003 0H66.6641V33.3391H100.003V0Z" fill="#FFECEC"/>
<path d="M66.6641 0C75.5061 0 83.9861 3.5125 90.2383 9.76479C96.4906 16.0171 100.003 24.497 100.003 33.3391H66.6641" fill="#FE7E7E"/>
<path d="M133.342 0H100.003V33.3391H133.342V0Z" fill="#DBE2ED"/>
<path d="M100.003 33.3391C100.003 24.497 103.516 16.0171 109.768 9.76479C116.02 3.5125 124.5 0 133.342 0V33.3391" fill="#DCE3EE"/>
<path d="M100.003 33.3391H66.6641V66.6782H100.003V33.3391Z" fill="#D5DEEB"/>
<path d="M66.6641 66.6782C75.5061 66.6782 83.9861 63.1657 90.2383 56.9134C96.4906 50.6611 100.003 42.1812 100.003 33.3391H66.6641" fill="#FFCDCD"/>
<path d="M133.342 33.3391H100.003V66.6782H133.342V33.3391Z" fill="#E4EAF2"/>
<path d="M100.003 33.3391C100.003 42.1812 103.516 50.6611 109.768 56.9134C116.02 63.1657 124.5 66.6782 133.342 66.6782V33.3391" fill="#D1DAE9"/>
<path d="M200.006 0H133.342V66.664H200.006V0Z" fill="#F2F5F9"/>
<path d="M200.006 0V66.664H133.342L200.006 0Z" fill="#F7F9FB"/>
<path d="M266.67 0H200.006V66.664H266.67V0Z" fill="#FE8888"/>
<path d="M266.67 0H200.006V66.664H266.67V0Z" fill="#FE8686"/>
<path d="M333.334 0H266.67V66.664H333.334V0Z" fill="#F4F6F9"/>
<path d="M266.67 0L333.334 66.664H266.67V0Z" fill="#FD4949"/>
<path d="M399.998 0H333.334V66.664H399.998V0Z" fill="#FE6262"/>
<path d="M399.998 0H333.334V66.664H399.998V0Z" fill="#EBEFF5"/>
<path d="M466.675 0H400.007V66.6679H466.675V0Z" fill="white"/>
<path d="M433.351 0H400.012V33.3391H433.351V0Z" fill="#FE8B8B"/>
<path d="M400.012 0H433.351L400.012 33.3391V0Z" fill="#C9D4E5"/>
<path d="M466.676 0H433.337V33.3391H466.676V0Z" fill="#CCD6E6"/>
<path d="M433.337 0H466.676V33.3391L433.337 0Z" fill="#CDD7E7"/>
<path d="M433.351 33.3391H400.012V66.6782H433.351V33.3391Z" fill="#FFFAFA"/>
<path d="M400.012 33.3391L433.351 66.6782H400.012V33.3391Z" fill="#FE8888"/>
<path d="M466.676 33.3391H433.337V66.6782H466.676V33.3391Z" fill="#CDD7E7"/>
<path d="M466.676 33.3391V66.6782H433.337L466.676 33.3391Z" fill="#DBE2EE"/>
<path d="M533.343 0H466.675V66.6679H533.343V0Z" fill="white"/>
<path d="M500.016 0H466.677V33.3391H500.016V0Z" fill="#FEC0C0"/>
<path d="M466.677 0H500.016L466.677 33.3391V0Z" fill="#FD3939"/>
<path d="M533.355 0H500.016V33.3391H533.355V0Z" fill="#DFE5F0"/>
<path d="M533.355 0V33.3391H500.016L533.355 0Z" fill="#CDD7E7"/>
<path d="M500.016 33.3391H466.677V66.6782H500.016V33.3391Z" fill="#FEB5B5"/>
<path d="M466.677 33.3391H500.016V66.6782L466.677 33.3391Z" fill="#D7DFEC"/>
<path d="M533.355 33.3391H500.016V66.6782H533.355V33.3391Z" fill="#FFD9D9"/>
<path d="M500.016 33.3391L533.355 66.6782H500.016V33.3391Z" fill="#F8FAFC"/>
<path d="M600.011 0H533.343V66.6679H600.011V0Z" fill="white"/>
<path d="M566.68 0H533.34V33.3391H566.68V0Z" fill="#D6DEEB"/>
<path d="M533.34 0H566.68L533.34 33.3391V0Z" fill="#FBFCFD"/>
<path d="M600.019 0H566.68V33.3391H600.019V0Z" fill="#FE9F9F"/>
<path d="M566.68 0H600.019V33.3391L566.68 0Z" fill="#FD4949"/>
<path d="M566.68 33.3391H533.34V66.6782H566.68V33.3391Z" fill="#FEA9A9"/>
<path d="M533.34 33.3391L566.68 66.6782H533.34V33.3391Z" fill="#FE7474"/>
<path d="M600.019 33.3391H566.68V66.6782H600.019V33.3391Z" fill="#FFFBFB"/>
<path d="M600.019 33.3391V66.6782H566.68L600.019 33.3391Z" fill="#DBE2EE"/>
<path d="M666.679 0H600.011V66.6679H666.679V0Z" fill="white"/>
<path d="M633.344 0H600.005V33.3391H633.344V0Z" fill="#D3DCEA"/>
<path d="M600.005 33.3391C608.847 33.3391 617.327 29.8266 623.579 23.5743C629.831 17.322 633.344 8.84207 633.344 0H600.005" fill="#C4D0E3"/>
<path d="M666.683 0H633.344V33.3391H666.683V0Z" fill="#C4D0E3"/>
<path d="M633.344 0C633.344 8.84207 636.856 17.322 643.108 23.5743C649.361 29.8266 657.841 33.3391 666.683 33.3391V0" fill="#FD5252"/>
<path d="M633.344 33.3391H600.005V66.6782H633.344V33.3391Z" fill="#FE9797"/>
<path d="M600.005 33.3391C608.847 33.3391 617.327 36.8516 623.579 43.1039C629.831 49.3562 633.344 57.8361 633.344 66.6782H600.005" fill="#D2DBE9"/>
<path d="M666.683 33.3391H633.344V66.6782H666.683V33.3391Z" fill="#FD4949"/>
<path d="M633.344 66.6782C633.344 57.8361 636.856 49.3562 643.108 43.1039C649.361 36.8516 657.841 33.3391 666.683 33.3391V66.6782" fill="#CED8E7"/>
<path d="M66.6679 66.6678H0V133.336H66.6679V66.6678Z" fill="white"/>
<path d="M33.3391 66.6641H0V100.003H33.3391V66.6641Z" fill="#EBEFF5"/>
<path d="M0 66.6641C0 75.5061 3.5125 83.9861 9.76479 90.2383C16.0171 96.4906 24.497 100.003 33.3391 100.003V66.6641" fill="#E2E8F1"/>
<path d="M66.6782 66.6641H33.3391V100.003H66.6782V66.6641Z" fill="#FFEDED"/>
<path d="M33.3391 100.003C42.1812 100.003 50.6611 96.4906 56.9134 90.2383C63.1657 83.9861 66.6782 75.5061 66.6782 66.6641H33.3391" fill="#FFFCFC"/>
<path d="M33.3391 100.003H0V133.342H33.3391V100.003Z" fill="white"/>
<path d="M0 133.342C0 124.5 3.5125 116.02 9.76479 109.768C16.0171 103.516 24.497 100.003 33.3391 100.003V133.342" fill="#FD5555"/>
<path d="M66.6782 100.003H33.3391V133.342H66.6782V100.003Z" fill="#FE9999"/>
<path d="M33.3391 100.003C42.1812 100.003 50.6611 103.516 56.9134 109.768C63.1657 116.02 66.6782 124.5 66.6782 133.342H33.3391" fill="#DEE4EF"/>
<path d="M133.336 66.6678H66.668V133.336H133.336V66.6678Z" fill="white"/>
<path d="M100.003 66.6641H66.6641V100.003H100.003V66.6641Z" fill="#FE7272"/>
<path d="M66.6641 66.6641H100.003L66.6641 100.003V66.6641Z" fill="#D5DDEB"/>
<path d="M133.342 66.6641H100.003V100.003H133.342V66.6641Z" fill="#C4D0E2"/>
<path d="M133.342 66.6641V100.003H100.003L133.342 66.6641Z" fill="#FE8080"/>
<path d="M100.003 100.003H66.6641V133.342H100.003V100.003Z" fill="#CAD4E5"/>
<path d="M66.6641 100.003H100.003V133.342L66.6641 100.003Z" fill="#FFD3D3"/>
<path d="M133.342 100.003H100.003V133.342H133.342V100.003Z" fill="#FFF7F7"/>
<path d="M100.003 100.003L133.342 133.342H100.003V100.003Z" fill="#ECF0F6"/>
<path d="M200.004 66.6678H133.336V133.336H200.004V66.6678Z" fill="white"/>
<path d="M166.681 66.6641H133.342V100.003H166.681V66.6641Z" fill="#DFE5EF"/>
<path d="M150.012 100.003C159.218 100.003 166.681 92.5399 166.681 83.3336C166.681 74.1273 159.218 66.6641 150.012 66.6641C140.805 66.6641 133.342 74.1273 133.342 83.3336C133.342 92.5399 140.805 100.003 150.012 100.003Z" fill="#D6DEEB"/>
<path d="M200.006 66.6641H166.667V100.003H200.006V66.6641Z" fill="#F2F5F9"/>
<path d="M200.006 66.6641H166.667V100.003H200.006V66.6641Z" fill="#FE7777"/>
<path d="M166.681 100.003H133.342V133.342H166.681V100.003Z" fill="#FEC8C8"/>
<path d="M150.012 133.342C159.218 133.342 166.681 125.879 166.681 116.673C166.681 107.466 159.218 100.003 150.012 100.003C140.805 100.003 133.342 107.466 133.342 116.673C133.342 125.879 140.805 133.342 150.012 133.342Z" fill="#D6DFEB"/>
<path d="M200.006 100.003H166.667V133.342H200.006V100.003Z" fill="#CCD6E6"/>
<path d="M200.006 100.003H166.667V133.342H200.006V100.003Z" fill="#FD4D4D"/>
<path d="M266.672 66.6678H200.004V133.336H266.672V66.6678Z" fill="white"/>
<path d="M233.345 66.6641H200.006V100.003H233.345V66.6641Z" fill="#DFE5F0"/>
<path d="M200.006 66.6641C208.848 66.6641 217.328 70.1766 223.58 76.4289C229.833 82.6811 233.345 91.1611 233.345 100.003H200.006" fill="#FEAFAF"/>
<path d="M266.67 66.6641H233.331V100.003H266.67V66.6641Z" fill="#F5F7FA"/>
<path d="M233.331 100.003C233.331 91.1611 236.844 82.6811 243.096 76.4289C249.348 70.1766 257.828 66.6641 266.67 66.6641V100.003" fill="#E5EBF3"/>
<path d="M233.345 100.003H200.006V133.342H233.345V100.003Z" fill="#FE7A7A"/>
<path d="M200.006 133.342C208.848 133.342 217.328 129.83 223.58 123.577C229.833 117.325 233.345 108.845 233.345 100.003H200.006" fill="#EAEEF5"/>
<path d="M266.67 100.003H233.331V133.342H266.67V100.003Z" fill="#D5DDEB"/>
<path d="M233.331 100.003C233.331 108.845 236.844 117.325 243.096 123.577C249.348 129.83 257.828 133.342 266.67 133.342V100.003" fill="#FEB5B5"/>
<path d="M333.339 66.6678H266.672V133.336H333.339V66.6678Z" fill="white"/>
<path d="M300.009 66.6641H266.67V100.003H300.009V66.6641Z" fill="#FD3838"/>
<path d="M266.67 66.6641H300.009L266.67 100.003V66.6641Z" fill="#FE9D9D"/>
<path d="M333.348 66.6641H300.009V100.003H333.348V66.6641Z" fill="#D0D9E8"/>
<path d="M333.348 66.6641V100.003H300.009L333.348 66.6641Z" fill="#F7F8FB"/>
<path d="M300.009 100.003H266.67V133.342H300.009V100.003Z" fill="#FEB6B6"/>
<path d="M266.67 100.003H300.009V133.342L266.67 100.003Z" fill="#FCFCFD"/>
<path d="M333.348 100.003H300.009V133.342H333.348V100.003Z" fill="#FFCCCC"/>
<path d="M300.009 100.003L333.348 133.342H300.009V100.003Z" fill="#F7F9FB"/>
<path d="M399.998 66.6641H333.334V133.328H399.998V66.6641Z" fill="#FE8B8B"/>
<path d="M399.998 66.6641H333.334V133.328H399.998V66.6641Z" fill="#FFCBCB"/>
<path d="M466.676 66.6641H400.012V133.328H466.676V66.6641Z" fill="#E1E7F1"/>
<path d="M400.012 133.328C400.012 115.648 407.036 98.6914 419.538 86.1895C432.04 73.6876 448.996 66.6641 466.676 66.6641L400.012 133.328C417.693 133.328 434.649 126.305 447.151 113.803C459.653 101.301 466.676 84.3445 466.676 66.6641" fill="#FE8383"/>
<path d="M533.343 66.6678H466.675V133.336H533.343V66.6678Z" fill="white"/>
<path d="M500.016 66.6641H466.677V100.003H500.016V66.6641Z" fill="#FE7C7C"/>
<path d="M466.677 66.6641H500.016L466.677 100.003V66.6641Z" fill="#E4E9F2"/>
<path d="M533.355 66.6641H500.016V100.003H533.355V66.6641Z" fill="#F7F8FB"/>
<path d="M533.355 66.6641V100.003H500.016L533.355 66.6641Z" fill="#FE7E7E"/>
<path d="M500.016 100.003H466.677V133.342H500.016V100.003Z" fill="#D3DBE9"/>
<path d="M466.677 100.003H500.016V133.342L466.677 100.003Z" fill="#DDE4EF"/>
<path d="M533.355 100.003H500.016V133.342H533.355V100.003Z" fill="#FD5C5C"/>
<path d="M500.016 100.003L533.355 133.342H500.016V100.003Z" fill="#D2DBE9"/>
<path d="M600.005 66.6641H533.34V133.328H600.005V66.6641Z" fill="#FEB1B1"/>
<path d="M533.34 66.6641H600.005L533.34 133.328V66.6641Z" fill="#FEBCBC"/>
<path d="M666.679 66.6678H600.011V133.336H666.679V66.6678Z" fill="white"/>
<path d="M633.344 66.6641H600.005V100.003H633.344V66.6641Z" fill="#FFDEDE"/>
<path d="M600.005 66.6641C608.847 66.6641 617.327 70.1766 623.579 76.4289C629.831 82.6811 633.344 91.1611 633.344 100.003H600.005" fill="#E7ECF3"/>
<path d="M666.683 66.6641H633.344V100.003H666.683V66.6641Z" fill="#FE7070"/>
<path d="M633.344 100.003C633.344 91.1611 636.856 82.6811 643.108 76.4289C649.361 70.1766 657.841 66.6641 666.683 66.6641V100.003" fill="#E6EBF3"/>
<path d="M633.344 100.003H600.005V133.342H633.344V100.003Z" fill="#C8D3E4"/>
<path d="M600.005 133.342C608.847 133.342 617.327 129.83 623.579 123.577C629.831 117.325 633.344 108.845 633.344 100.003H600.005" fill="#DFE5EF"/>
<path d="M666.683 100.003H633.344V133.342H666.683V100.003Z" fill="#F8F9FB"/>
<path d="M633.344 100.003C633.344 108.845 636.856 117.325 643.108 123.577C649.361 129.83 657.841 133.342 666.683 133.342V100.003" fill="#FD6060"/>
<path d="M66.6679 133.336H0V200.004H66.6679V133.336Z" fill="white"/>
<path d="M33.3391 133.342H0V166.681H33.3391V133.342Z" fill="#FAFBFD"/>
<path d="M0 133.342H33.3391L0 166.681V133.342Z" fill="#FD4B4B"/>
<path d="M66.6782 133.342H33.3391V166.681H66.6782V133.342Z" fill="#FD3D3D"/>
<path d="M33.3391 133.342H66.6782V166.681L33.3391 133.342Z" fill="#D3DBEA"/>
<path d="M33.3391 166.667H0V200.006H33.3391V166.667Z" fill="#FFFBFB"/>
<path d="M33.3391 166.667V200.006H0L33.3391 166.667Z" fill="#D9E0EC"/>
<path d="M66.6782 166.667H33.3391V200.006H66.6782V166.667Z" fill="#FD4242"/>
<path d="M33.3391 166.667L66.6782 200.006H33.3391V166.667Z" fill="#FE6A6A"/>
<path d="M133.328 133.342H66.6641V200.006H133.328V133.342Z" fill="#CAD4E5"/>
<path d="M133.328 133.342H66.6641V200.006H133.328V133.342Z" fill="#FAFBFD"/>
<path d="M200.004 133.336H133.336V200.004H200.004V133.336Z" fill="white"/>
<path d="M166.681 133.342H133.342V166.681H166.681V133.342Z" fill="#FD3131"/>
<path d="M133.342 166.681C133.342 157.839 136.855 149.359 143.107 143.107C149.359 136.855 157.839 133.342 166.681 133.342V141.677C160.05 141.677 153.69 144.311 149.001 149.001C144.311 153.69 141.677 160.05 141.677 166.681" fill="#EEF1F7"/>
<path d="M200.006 133.342H166.667V166.681H200.006V133.342Z" fill="#F8FAFC"/>
<path d="M166.667 133.342C175.509 133.342 183.989 136.855 190.242 143.107C196.494 149.359 200.006 157.839 200.006 166.681H191.672C191.672 160.05 189.037 153.69 184.348 149.001C179.659 144.311 173.299 141.677 166.667 141.677" fill="#F3F5F9"/>
<path d="M166.681 166.667H133.342V200.006H166.681V166.667Z" fill="#DCE3EE"/>
<path d="M133.342 166.667C133.342 175.509 136.855 183.989 143.107 190.241C149.359 196.494 157.839 200.006 166.681 200.006V191.671C160.05 191.671 153.69 189.037 149.001 184.348C144.311 179.659 141.677 173.299 141.677 166.667" fill="#FE9A9A"/>
<path d="M200.006 166.667H166.667V200.006H200.006V166.667Z" fill="#C7D2E4"/>
<path d="M166.667 200.006C175.509 200.006 183.989 196.494 190.242 190.241C196.494 183.989 200.006 175.509 200.006 166.667H191.672C191.672 173.299 189.037 179.659 184.348 184.348C179.659 189.037 173.299 191.671 166.667 191.671" fill="#DBE2EE"/>
<path d="M266.67 133.342H200.006V200.006H266.67V133.342Z" fill="#FEFFFF"/>
<path d="M200.006 133.342H266.67L200.006 200.006V133.342Z" fill="#FFE8E8"/>
<path d="M333.339 133.336H266.672V200.004H333.339V133.336Z" fill="white"/>
<path d="M300.009 133.342H266.67V166.681H300.009V133.342Z" fill="#CDD7E7"/>
<path d="M266.67 166.681C266.67 157.839 270.183 149.359 276.435 143.107C282.687 136.855 291.167 133.342 300.009 133.342V141.677C293.378 141.677 287.018 144.311 282.329 149.001C277.639 153.69 275.005 160.05 275.005 166.681" fill="#DDE4EF"/>
<path d="M333.348 133.342H300.009V166.681H333.348V133.342Z" fill="#FE9090"/>
<path d="M300.009 133.342C308.851 133.342 317.331 136.855 323.584 143.107C329.836 149.359 333.348 157.839 333.348 166.681H325.014C325.014 160.05 322.379 153.69 317.69 149.001C313.001 144.311 306.641 141.677 300.009 141.677" fill="#FE8484"/>
<path d="M300.009 166.667H266.67V200.006H300.009V166.667Z" fill="#FEBEBE"/>
<path d="M266.67 166.667C266.67 175.509 270.183 183.989 276.435 190.241C282.687 196.494 291.167 200.006 300.009 200.006V191.671C293.378 191.671 287.018 189.037 282.329 184.348C277.639 179.659 275.005 173.299 275.005 166.667" fill="#FFE4E4"/>
<path d="M333.348 166.667H300.009V200.006H333.348V166.667Z" fill="#F8F9FC"/>
<path d="M300.009 200.006C308.851 200.006 317.331 196.494 323.584 190.241C329.836 183.989 333.348 175.509 333.348 166.667H325.014C325.014 173.299 322.379 179.659 317.69 184.348C313.001 189.037 306.641 191.671 300.009 191.671" fill="#FE6E6E"/>
<path d="M399.998 133.342H333.334V200.006H399.998V133.342Z" fill="#DDE3EE"/>
<path d="M333.334 133.342C333.334 151.023 340.358 167.979 352.86 180.481C365.362 192.983 382.318 200.006 399.998 200.006V133.342" fill="#CED8E7"/>
<path d="M66.664 200.006H0V266.67H66.664V200.006Z" fill="#F8F9FB"/>
<path d="M0 200.006C0 208.761 1.72432 217.429 5.0745 225.517C8.42468 233.605 13.3351 240.954 19.5254 247.145C32.0274 259.647 48.9836 266.67 66.664 266.67V200.006" fill="#EAEEF5"/>
<path d="M133.328 200.006H66.6641V266.67H133.328V200.006Z" fill="#E2E8F1"/>
<path d="M133.328 200.006H66.6641V266.67H133.328V200.006Z" fill="#E5EAF2"/>
<path d="M200.006 200.006H133.342V266.67H200.006V200.006Z" fill="#FD6060"/>
<path d="M133.342 266.67C133.342 248.99 140.366 232.034 152.868 219.532C165.37 207.03 182.326 200.006 200.006 200.006L133.342 266.67C142.097 266.67 150.765 264.946 158.853 261.596C166.942 258.246 174.291 253.335 180.481 247.145C186.671 240.954 191.582 233.605 194.932 225.517C198.282 217.429 200.006 208.761 200.006 200.006" fill="#C8D3E4"/>
<path d="M266.67 200.006H200.006V266.67H266.67V200.006Z" fill="#FBFCFD"/>
<path d="M200.006 266.67C208.761 266.67 217.429 264.946 225.517 261.596C233.605 258.246 240.954 253.335 247.145 247.145C253.335 240.954 258.245 233.605 261.596 225.517C264.946 217.429 266.67 208.761 266.67 200.006H200.006" fill="#FD5656"/>
<path d="M333.339 200.004H266.672V266.672H333.339V200.004Z" fill="white"/>
<path d="M300.009 200.006H266.67V233.345H300.009V200.006Z" fill="#FFD3D3"/>
<path d="M266.67 200.006C266.67 208.848 270.183 217.328 276.435 223.581C282.687 229.833 291.167 233.345 300.009 233.345V200.006" fill="#FEBFBF"/>
<path d="M333.348 200.006H300.009V233.345H333.348V200.006Z" fill="#FD3939"/>
<path d="M300.009 233.345C308.851 233.345 317.331 229.833 323.584 223.581C329.836 217.328 333.348 208.848 333.348 200.006H300.009" fill="#F8FAFC"/>
<path d="M300.009 233.331H266.67V266.67H300.009V233.331Z" fill="#F8F9FC"/>
<path d="M266.67 266.67C266.67 257.828 270.183 249.348 276.435 243.096C282.687 236.844 291.167 233.331 300.009 233.331V266.67" fill="#D4DCEA"/>
<path d="M333.348 233.331H300.009V266.67H333.348V233.331Z" fill="#F3F6F9"/>
<path d="M300.009 233.331C308.851 233.331 317.331 236.844 323.584 243.096C329.836 249.348 333.348 257.828 333.348 266.67H300.009" fill="#C8D3E5"/>
<path d="M400.007 200.004H333.339V266.672H400.007V200.004Z" fill="white"/>
<path d="M366.673 200.006H333.334V233.345H366.673V200.006Z" fill="#DCE3EE"/>
<path d="M333.334 233.345C342.176 233.345 350.656 229.833 356.909 223.581C363.161 217.328 366.673 208.848 366.673 200.006H333.334" fill="#F8F9FB"/>
<path d="M400.012 200.006H366.673V233.345H400.012V200.006Z" fill="#E7ECF4"/>
<path d="M366.673 200.006C366.673 208.848 370.186 217.328 376.438 223.581C382.69 229.833 391.17 233.345 400.012 233.345V200.006" fill="#DBE2ED"/>
<path d="M366.673 233.331H333.334V266.67H366.673V233.331Z" fill="#FE7A7A"/>
<path d="M333.334 233.331C342.176 233.331 350.656 236.844 356.909 243.096C363.161 249.348 366.673 257.828 366.673 266.67H333.334" fill="#FD5C5C"/>
<path d="M400.012 233.331H366.673V266.67H400.012V233.331Z" fill="#E7ECF3"/>
<path d="M366.673 266.67C366.673 257.828 370.186 249.348 376.438 243.096C382.69 236.844 391.17 233.331 400.012 233.331V266.67" fill="#FFD1D1"/>
<path d="M66.6679 266.672H0V333.339H66.6679V266.672Z" fill="white"/>
<path d="M33.3391 266.67H0V300.009H33.3391V266.67Z" fill="#EBEFF5"/>
<path d="M0 266.67H33.3391L0 300.009V266.67Z" fill="#FD4343"/>
<path d="M66.6782 266.67H33.3391V300.009H66.6782V266.67Z" fill="#F3F6F9"/>
<path d="M33.3391 266.67H66.6782V300.009L33.3391 266.67Z" fill="#FE6767"/>
<path d="M33.3391 300.009H0V333.348H33.3391V300.009Z" fill="#FEB8B8"/>
<path d="M33.3391 300.009V333.348H0L33.3391 300.009Z" fill="#E0E7F0"/>
<path d="M66.6782 300.009H33.3391V333.348H66.6782V300.009Z" fill="#FE9F9F"/>
<path d="M33.3391 300.009L66.6782 333.348H33.3391V300.009Z" fill="#D3DCEA"/>
<path d="M133.336 266.672H66.668V333.339H133.336V266.672Z" fill="white"/>
<path d="M100.003 266.67H66.6641V300.009H100.003V266.67Z" fill="#DCE3EE"/>
<path d="M66.6641 266.67H100.003L66.6641 300.009V266.67Z" fill="#FEB9B9"/>
<path d="M133.342 266.67H100.003V300.009H133.342V266.67Z" fill="#FFD3D3"/>
<path d="M100.003 266.67H133.342V300.009L100.003 266.67Z" fill="#FD3E3E"/>
<path d="M100.003 300.009H66.6641V333.348H100.003V300.009Z" fill="#FE7B7B"/>
<path d="M66.6641 300.009L100.003 333.348H66.6641V300.009Z" fill="#FEA6A6"/>
<path d="M133.342 300.009H100.003V333.348H133.342V300.009Z" fill="#FD5858"/>
<path d="M133.342 300.009V333.348H100.003L133.342 300.009Z" fill="#F2F5F9"/>
<path d="M200.004 266.672H133.336V333.339H200.004V266.672Z" fill="white"/>
<path d="M166.681 266.67H133.342V300.009H166.681V266.67Z" fill="#DDE4EF"/>
<path d="M133.342 300.009C133.342 291.167 136.855 282.687 143.107 276.435C149.359 270.183 157.839 266.67 166.681 266.67V275.005C160.05 275.005 153.69 277.639 149.001 282.329C144.311 287.018 141.677 293.378 141.677 300.009" fill="#FEC0C0"/>
<path d="M200.006 266.67H166.667V300.009H200.006V266.67Z" fill="#FFD2D2"/>
<path d="M166.667 266.67C175.509 266.67 183.989 270.183 190.242 276.435C196.494 282.687 200.006 291.167 200.006 300.009H191.672C191.672 293.378 189.037 287.018 184.348 282.329C179.659 277.639 173.299 275.005 166.667 275.005" fill="#E3E9F2"/>
<path d="M166.681 300.009H133.342V333.348H166.681V300.009Z" fill="#E5EBF3"/>
<path d="M133.342 300.009C133.342 308.851 136.855 317.331 143.107 323.584C149.359 329.836 157.839 333.348 166.681 333.348V325.014C160.05 325.014 153.69 322.379 149.001 317.69C144.311 313.001 141.677 306.641 141.677 300.009" fill="#E9EDF4"/>
<path d="M200.006 300.009H166.667V333.348H200.006V300.009Z" fill="#DDE4EE"/>
<path d="M166.667 333.348C175.509 333.348 183.989 329.836 190.242 323.584C196.494 317.331 200.006 308.851 200.006 300.009H191.672C191.672 306.641 189.037 313.001 184.348 317.69C179.659 322.379 173.299 325.014 166.667 325.014" fill="#FD5E5E"/>
<path d="M266.672 266.672H200.004V333.339H266.672V266.672Z" fill="white"/>
<path d="M233.345 266.67H200.006V300.009H233.345V266.67Z" fill="#F0F3F8"/>
<path d="M200.006 266.67H233.345L200.006 300.009V266.67Z" fill="#E5EBF3"/>
<path d="M266.67 266.67H233.331V300.009H266.67V266.67Z" fill="#FFDADA"/>
<path d="M266.67 266.67V300.009H233.331L266.67 266.67Z" fill="#FCFDFE"/>
<path d="M233.345 300.009H200.006V333.348H233.345V300.009Z" fill="#FE8888"/>
<path d="M200.006 300.009H233.345V333.348L200.006 300.009Z" fill="#D9E1ED"/>
<path d="M266.67 300.009H233.331V333.348H266.67V300.009Z" fill="#FE8686"/>
<path d="M233.331 300.009L266.67 333.348H233.331V300.009Z" fill="#F6F7FA"/>
<path d="M333.339 266.672H266.672V333.339H333.339V266.672Z" fill="white"/>
<path d="M300.009 266.67H266.67V300.009H300.009V266.67Z" fill="#F0F3F8"/>
<path d="M266.67 300.009C266.67 291.167 270.183 282.687 276.435 276.435C282.687 270.183 291.167 266.67 300.009 266.67V300.009" fill="#C5D1E3"/>
<path d="M333.348 266.67H300.009V300.009H333.348V266.67Z" fill="#FFF5F5"/>
<path d="M300.009 266.67C308.851 266.67 317.331 270.183 323.584 276.435C329.836 282.687 333.348 291.167 333.348 300.009H300.009" fill="#D3DCEA"/>
<path d="M300.009 300.009H266.67V333.348H300.009V300.009Z" fill="#FD5C5C"/>
<path d="M266.67 300.009C266.67 308.851 270.183 317.331 276.435 323.584C282.687 329.836 291.167 333.348 300.009 333.348V300.009" fill="#FFE5E5"/>
<path d="M333.348 300.009H300.009V333.348H333.348V300.009Z" fill="#FE9494"/>
<path d="M300.009 333.348C308.851 333.348 317.331 329.836 323.584 323.584C329.836 317.331 333.348 308.851 333.348 300.009H300.009" fill="#D3DBEA"/>
<path d="M399.998 266.67H333.334V333.334H399.998V266.67Z" fill="#DDE4EF"/>
<path d="M399.998 266.67H333.334V333.334H399.998V266.67Z" fill="#C7D2E4"/>
<path d="M66.6679 333.339H0V400.007H66.6679V333.339Z" fill="white"/>
<path d="M33.3391 333.334H0V366.673H33.3391V333.334Z" fill="#FE9D9D"/>
<path d="M0 366.673C0 357.831 3.5125 349.351 9.76479 343.099C16.0171 336.847 24.497 333.334 33.3391 333.334V341.669C26.7075 341.669 20.3476 344.303 15.6584 348.993C10.9691 353.682 8.33477 360.042 8.33477 366.673" fill="#C4D0E2"/>
<path d="M66.6782 333.334H33.3391V366.673H66.6782V333.334Z" fill="#E9EDF4"/>
<path d="M33.3391 333.334C42.1812 333.334 50.6611 336.847 56.9134 343.099C63.1657 349.351 66.6782 357.831 66.6782 366.673H58.3434C58.3434 360.042 55.709 353.682 51.0198 348.993C46.3306 344.303 39.9707 341.669 33.3391 341.669" fill="#FE7272"/>
<path d="M33.3391 366.673H0V400.012H33.3391V366.673Z" fill="#E1E7F0"/>
<path d="M0 366.673C0 375.515 3.5125 383.995 9.76479 390.248C16.0171 396.5 24.497 400.012 33.3391 400.012V391.678C26.7075 391.678 20.3476 389.043 15.6584 384.354C10.9691 379.665 8.33477 373.305 8.33477 366.673" fill="#FE6666"/>
<path d="M66.6782 366.673H33.3391V400.012H66.6782V366.673Z" fill="#E6EBF3"/>
<path d="M33.3391 400.012C42.1812 400.012 50.6611 396.5 56.9134 390.248C63.1657 383.995 66.6782 375.515 66.6782 366.673H58.3434C58.3434 373.305 55.709 379.665 51.0198 384.354C46.3306 389.043 39.9707 391.678 33.3391 391.678" fill="#F2F4F9"/>
<path d="M133.328 333.334H66.6641V399.998H133.328V333.334Z" fill="#F3F5F9"/>
<path d="M133.328 333.334H66.6641V399.998H133.328V333.334Z" fill="#E1E7F0"/>
<path d="M200.004 333.339H133.336V400.007H200.004V333.339Z" fill="white"/>
<path d="M166.681 333.334H133.342V366.673H166.681V333.334Z" fill="#F6F8FB"/>
<path d="M133.342 333.334C133.342 342.176 136.855 350.656 143.107 356.909C149.359 363.161 157.839 366.673 166.681 366.673V333.334" fill="#D9E1ED"/>
<path d="M200.006 333.334H166.667V366.673H200.006V333.334Z" fill="#CAD4E5"/>
<path d="M166.667 366.673C175.509 366.673 183.989 363.161 190.242 356.909C196.494 350.656 200.006 342.176 200.006 333.334H166.667" fill="#F1F4F8"/>
<path d="M166.681 366.673H133.342V400.012H166.681V366.673Z" fill="#EFF2F7"/>
<path d="M133.342 400.012C133.342 391.17 136.855 382.69 143.107 376.438C149.359 370.186 157.839 366.673 166.681 366.673V400.012" fill="#FE8181"/>
<path d="M200.006 366.673H166.667V400.012H200.006V366.673Z" fill="#FE6565"/>
<path d="M166.667 366.673C175.509 366.673 183.989 370.186 190.242 376.438C196.494 382.69 200.006 391.17 200.006 400.012H166.667" fill="#C4CFE2"/>
<path d="M266.67 333.334H200.006V399.998H266.67V333.334Z" fill="#FAFBFD"/>
<path d="M200.006 399.998C200.006 382.318 207.03 365.362 219.532 352.86C232.033 340.358 248.99 333.334 266.67 333.334L200.006 399.998C217.687 399.998 234.643 392.975 247.145 380.473C259.647 367.971 266.67 351.015 266.67 333.334" fill="#FEBEBE"/>
<path d="M333.334 333.334H366.673L333.334 366.673V333.334Z" fill="#DCE3EE"/>
<path d="M400.012 333.334H366.673V366.673H400.012V333.334Z" fill="#F6F8FB"/>
<path d="M400.012 333.334V366.673H366.673L400.012 333.334Z" fill="#FEFEFE"/>
<path d="M66.664 400.012H0V466.676H66.664V400.012Z" fill="#F9FAFC"/>
<path d="M66.664 400.012H0V466.676H66.664V400.012Z" fill="#FFCDCD"/>
<path d="M133.336 400.007H66.668V466.675H133.336V400.007Z" fill="white"/>
<path d="M100.003 400.012H66.6641V433.351H100.003V400.012Z" fill="#CFD9E8"/>
<path d="M66.6641 433.351C66.6641 424.509 70.1766 416.03 76.4289 409.777C82.6811 403.525 91.1611 400.012 100.003 400.012V408.347C93.3716 408.347 87.0116 410.982 82.3224 415.671C77.6332 420.36 74.9988 426.72 74.9988 433.351" fill="#FFDBDB"/>
<path d="M133.342 400.012H100.003V433.351H133.342V400.012Z" fill="#CED8E7"/>
<path d="M100.003 400.012C108.845 400.012 117.325 403.525 123.577 409.777C129.83 416.03 133.342 424.509 133.342 433.351H125.007C125.007 430.068 124.361 426.816 123.104 423.783C121.848 420.749 120.006 417.993 117.684 415.671C115.362 413.349 112.606 411.507 109.572 410.251C106.538 408.994 103.287 408.347 100.003 408.347" fill="#E4E9F2"/>
<path d="M100.003 433.337H66.6641V466.676H100.003V433.337Z" fill="#FD3030"/>
<path d="M66.6641 433.337C66.6641 442.179 70.1766 450.659 76.4289 456.912C82.6811 463.164 91.1611 466.676 100.003 466.676V458.342C93.3716 458.342 87.0116 455.707 82.3224 451.018C77.6332 446.329 74.9988 439.969 74.9988 433.337" fill="#FE7171"/>
<path d="M133.342 433.337H100.003V466.676H133.342V433.337Z" fill="#FEA5A5"/>
<path d="M100.003 466.676C108.845 466.676 117.325 463.164 123.577 456.912C129.83 450.659 133.342 442.179 133.342 433.337H125.007C125.007 436.621 124.361 439.872 123.104 442.906C121.848 445.94 120.006 448.696 117.684 451.018C115.362 453.34 112.606 455.182 109.572 456.438C106.538 457.695 103.287 458.342 100.003 458.342" fill="#FE6969"/>
<path d="M200.006 400.012H133.342V466.676H200.006V400.012Z" fill="#FFF3F3"/>
<path d="M200.006 400.012H133.342V466.676H200.006V400.012Z" fill="#F0F3F8"/>
<path d="M266.672 400.007H200.004V466.675H266.672V400.007Z" fill="white"/>
<path d="M233.345 400.012H200.006V433.351H233.345V400.012Z" fill="#FEA0A0"/>
<path d="M200.006 400.012H233.345L200.006 433.351V400.012Z" fill="#FD3232"/>
<path d="M266.67 400.012H233.331V433.351H266.67V400.012Z" fill="#F6F8FB"/>
<path d="M233.331 400.012H266.67V433.351L233.331 400.012Z" fill="#FEC5C5"/>
<path d="M233.345 433.337H200.006V466.676H233.345V433.337Z" fill="#FE8B8B"/>
<path d="M200.006 433.337L233.345 466.676H200.006V433.337Z" fill="#DFE5EF"/>
<path d="M266.67 433.337H233.331V466.676H266.67V433.337Z" fill="#FE9898"/>
<path d="M266.67 433.337V466.676H233.331L266.67 433.337Z" fill="#F0F3F8"/>
<path d="M66.6679 466.675H0V533.343H66.6679V466.675Z" fill="white"/>
<path d="M33.3391 466.677H0V500.016H33.3391V466.677Z" fill="#F4F6FA"/>
<path d="M0 466.677H33.3391L0 500.016V466.677Z" fill="#FE6565"/>
<path d="M66.6782 466.677H33.3391V500.016H66.6782V466.677Z" fill="#FDFDFE"/>
<path d="M66.6782 466.677V500.016H33.3391L66.6782 466.677Z" fill="#DDE3EE"/>
<path d="M33.3391 500.016H0V533.355H33.3391V500.016Z" fill="#EFF3F7"/>
<path d="M0 500.016H33.3391V533.355L0 500.016Z" fill="#FE8181"/>
<path d="M66.6782 500.016H33.3391V533.355H66.6782V500.016Z" fill="#E1E7F0"/>
<path d="M33.3391 500.016L66.6782 533.355H33.3391V500.016Z" fill="#FD5555"/>
<path d="M133.328 466.677H66.6641V533.341H133.328V466.677Z" fill="#FE7373"/>
<path d="M133.328 466.677H66.6641V533.341H133.328V466.677Z" fill="#FE6F6F"/>
<path d="M200.004 466.675H133.336V533.343H200.004V466.675Z" fill="white"/>
<path d="M166.681 466.677H133.342V500.016H166.681V466.677Z" fill="#FE8080"/>
<path d="M150.012 500.016C159.218 500.016 166.681 492.552 166.681 483.346C166.681 474.14 159.218 466.677 150.012 466.677C140.805 466.677 133.342 474.14 133.342 483.346C133.342 492.552 140.805 500.016 150.012 500.016Z" fill="#FE8585"/>
<path d="M200.006 466.677H166.667V500.016H200.006V466.677Z" fill="#FEC3C3"/>
<path d="M200.006 466.677H166.667V500.016H200.006V466.677Z" fill="#FE6868"/>
<path d="M166.681 500.016H133.342V533.355H166.681V500.016Z" fill="#F0F3F8"/>
<path d="M150.012 533.355C159.218 533.355 166.681 525.891 166.681 516.685C166.681 507.479 159.218 500.016 150.012 500.016C140.805 500.016 133.342 507.479 133.342 516.685C133.342 525.891 140.805 533.355 150.012 533.355Z" fill="#FE9D9D"/>
<path d="M200.006 500.016H166.667V533.355H200.006V500.016Z" fill="#F7F8FB"/>
<path d="M200.006 500.016H166.667V533.355H200.006V500.016Z" fill="#E4E9F2"/>
<path d="M266.67 466.677H200.006V533.341H266.67V466.677Z" fill="#D5DDEB"/>
<path d="M266.67 466.677V533.341H200.006L266.67 466.677Z" fill="#E5EAF2"/>
<path d="M66.6679 533.343H0V600.011H66.6679V533.343Z" fill="white"/>
<path d="M33.3391 533.34H0V566.68H33.3391V533.34Z" fill="#F3F5F9"/>
<path d="M0 533.34H33.3391L0 566.68V533.34Z" fill="#D7DFEB"/>
<path d="M66.6782 533.34H33.3391V566.68H66.6782V533.34Z" fill="#DEE4EF"/>
<path d="M66.6782 533.34V566.68H33.3391L66.6782 533.34Z" fill="#FFEFEF"/>
<path d="M33.3391 566.68H0V600.019H33.3391V566.68Z" fill="#FE8D8D"/>
<path d="M0 566.68H33.3391V600.019L0 566.68Z" fill="#D2DBE9"/>
<path d="M66.6782 566.68H33.3391V600.019H66.6782V566.68Z" fill="#D4DCEA"/>
<path d="M33.3391 566.68L66.6782 600.019H33.3391V566.68Z" fill="#E3E9F1"/>
<path d="M133.336 533.343H66.668V600.011H133.336V533.343Z" fill="white"/>
<path d="M100.003 533.34H66.6641V566.68H100.003V533.34Z" fill="#FEBBBB"/>
<path d="M66.6641 533.34H100.003L66.6641 566.68V533.34Z" fill="#FFCCCC"/>
<path d="M133.342 533.34H100.003V566.68H133.342V533.34Z" fill="#EAEEF5"/>
<path d="M133.342 533.34V566.68H100.003L133.342 533.34Z" fill="#F9FAFC"/>
<path d="M100.003 566.68H66.6641V600.019H100.003V566.68Z" fill="#FD4A4A"/>
<path d="M66.6641 566.68H100.003V600.019L66.6641 566.68Z" fill="#F1F4F8"/>
<path d="M133.342 566.68H100.003V600.019H133.342V566.68Z" fill="#FE9494"/>
<path d="M100.003 566.68L133.342 600.019H100.003V566.68Z" fill="#EDF1F6"/>
<path d="M200.006 533.34H133.342V600.005H200.006V533.34Z" fill="#F3F5F9"/>
<path d="M133.342 533.34C151.023 533.34 167.979 540.364 180.481 552.866C192.983 565.368 200.006 582.324 200.006 600.005H133.342" fill="#FFD2D2"/>
<path d="M233.345 533.34H200.006V566.68H233.345V533.34Z" fill="#EFF2F7"/>
<path d="M200.006 566.68C200.006 557.837 203.519 549.358 209.771 543.105C216.023 536.853 224.503 533.34 233.345 533.34V566.68" fill="#FE6565"/>
<path d="M266.67 533.34H233.331V566.68H266.67V533.34Z" fill="#FD3737"/>
<path d="M233.331 533.34C242.173 533.34 250.653 536.853 256.905 543.105C263.158 549.358 266.67 557.837 266.67 566.68H233.331" fill="#FFDEDE"/>
<path d="M233.345 566.68H200.006V600.019H233.345V566.68Z" fill="#FFDDDD"/>
<path d="M200.006 566.68C200.006 575.522 203.519 584.002 209.771 590.254C216.023 596.506 224.503 600.019 233.345 600.019V566.68" fill="#DEE5EF"/>
</svg>
