<svg width="262" height="273" viewBox="0 0 262 273" fill="none" xmlns="http://www.w3.org/2000/svg">
<circle cx="19.6314" cy="6.00476" r="6.00476" fill="#FD2E2E"/>
<circle cx="19.6314" cy="43.2343" r="6.00476" fill="#FD2E2E"/>
<circle cx="19.6314" cy="80.4637" r="6.00476" fill="#FD2E2E"/>
<circle cx="19.6314" cy="117.693" r="6.00476" fill="#FD2E2E"/>
<circle cx="19.6314" cy="154.923" r="6.00476" fill="#FD2E2E"/>
<circle cx="19.6314" cy="192.152" r="6.00476" fill="#FD2E2E"/>
<circle cx="19.6314" cy="229.382" r="6.00476" fill="#FD2E2E"/>
<circle cx="19.6314" cy="266.611" r="6.00476" fill="#FD2E2E"/>
<circle cx="53.2581" cy="6.00476" r="6.00476" fill="#FD2E2E"/>
<circle cx="53.2581" cy="43.2343" r="6.00476" fill="#FD2E2E"/>
<circle cx="53.2581" cy="80.4637" r="6.00476" fill="#FD2E2E"/>
<circle cx="53.2581" cy="117.693" r="6.00476" fill="#FD2E2E"/>
<circle cx="53.2581" cy="154.923" r="6.00476" fill="#FD2E2E"/>
<circle cx="53.2581" cy="192.152" r="6.00476" fill="#FD2E2E"/>
<circle cx="53.2581" cy="229.382" r="6.00476" fill="#FD2E2E"/>
<circle cx="53.2581" cy="266.611" r="6.00476" fill="#FD2E2E"/>
<circle cx="86.8848" cy="6.00476" r="6.00476" fill="#FD2E2E"/>
<circle cx="86.8848" cy="43.2343" r="6.00476" fill="#FD2E2E"/>
<circle cx="86.8848" cy="80.4637" r="6.00476" fill="#FD2E2E"/>
<circle cx="86.8848" cy="117.693" r="6.00476" fill="#FD2E2E"/>
<circle cx="86.8848" cy="154.923" r="6.00476" fill="#FD2E2E"/>
<circle cx="86.8848" cy="192.152" r="6.00476" fill="#FD2E2E"/>
<circle cx="86.8848" cy="229.382" r="6.00476" fill="#FD2E2E"/>
<circle cx="86.8848" cy="266.611" r="6.00476" fill="#FD2E2E"/>
<circle cx="120.511" cy="6.00476" r="6.00476" fill="#FD2E2E"/>
<circle cx="120.511" cy="43.2343" r="6.00476" fill="#FD2E2E"/>
<circle cx="120.511" cy="80.4637" r="6.00476" fill="#FD2E2E"/>
<circle cx="120.511" cy="117.693" r="6.00476" fill="#FD2E2E"/>
<circle cx="120.511" cy="154.923" r="6.00476" fill="#FD2E2E"/>
<circle cx="120.511" cy="192.152" r="6.00476" fill="#FD2E2E"/>
<circle cx="120.511" cy="229.382" r="6.00476" fill="#FD2E2E"/>
<circle cx="120.511" cy="266.611" r="6.00476" fill="#FD2E2E"/>
<circle cx="154.138" cy="6.00476" r="6.00476" fill="#FD2E2E"/>
<circle cx="154.138" cy="43.2343" r="6.00476" fill="#FD2E2E"/>
<circle cx="154.138" cy="80.4637" r="6.00476" fill="#FD2E2E"/>
<circle cx="154.138" cy="117.693" r="6.00476" fill="#FD2E2E"/>
<circle cx="154.138" cy="154.923" r="6.00476" fill="#FD2E2E"/>
<circle cx="154.138" cy="192.152" r="6.00476" fill="#FD2E2E"/>
<circle cx="154.138" cy="229.382" r="6.00476" fill="#FD2E2E"/>
<circle cx="154.138" cy="266.611" r="6.00476" fill="#FD2E2E"/>
<circle cx="187.765" cy="6.00476" r="6.00476" fill="#FD2E2E"/>
<circle cx="187.765" cy="43.2343" r="6.00476" fill="#FD2E2E"/>
<circle cx="187.765" cy="80.4637" r="6.00476" fill="#FD2E2E"/>
<circle cx="187.765" cy="117.693" r="6.00476" fill="#FD2E2E"/>
<circle cx="187.765" cy="154.923" r="6.00476" fill="#FD2E2E"/>
<circle cx="187.765" cy="192.152" r="6.00476" fill="#FD2E2E"/>
<circle cx="187.765" cy="229.382" r="6.00476" fill="#FD2E2E"/>
<circle cx="187.765" cy="266.611" r="6.00476" fill="#FD2E2E"/>
<circle cx="221.391" cy="6.00476" r="6.00476" fill="#FD2E2E"/>
<circle cx="221.391" cy="43.2343" r="6.00476" fill="#FD2E2E"/>
<circle cx="221.391" cy="80.4637" r="6.00476" fill="#FD2E2E"/>
<circle cx="221.391" cy="117.693" r="6.00476" fill="#FD2E2E"/>
<circle cx="221.391" cy="154.923" r="6.00476" fill="#FD2E2E"/>
<circle cx="221.391" cy="192.152" r="6.00476" fill="#FD2E2E"/>
<circle cx="221.391" cy="229.382" r="6.00476" fill="#FD2E2E"/>
<circle cx="221.391" cy="266.611" r="6.00476" fill="#FD2E2E"/>
<circle cx="255.018" cy="6.00476" r="6.00476" fill="#FD2E2E"/>
<circle cx="255.018" cy="43.2343" r="6.00476" fill="#FD2E2E"/>
<circle cx="255.018" cy="80.4637" r="6.00476" fill="#FD2E2E"/>
<circle cx="255.018" cy="117.693" r="6.00476" fill="#FD2E2E"/>
<circle cx="255.018" cy="154.923" r="6.00476" fill="#FD2E2E"/>
<circle cx="255.018" cy="192.152" r="6.00476" fill="#FD2E2E"/>
<circle cx="255.018" cy="229.382" r="6.00476" fill="#FD2E2E"/>
<circle cx="255.018" cy="266.611" r="6.00476" fill="#FD2E2E"/>
</svg>
