<?xml version="1.0" standalone="no"?><svg xmlns:xlink="http://www.w3.org/1999/xlink" xmlns="http://www.w3.org/2000/svg" viewBox="0 0 1000 733.3466840037345" preserveAspectRatio="xMaxYMax slice"><g transform="scale(1.4102820846225663)"><rect x="0" y="0" width="709.0909090909091" height="520" fill="#ffffff"/><rect x="0" y="0" width="47.27272727272727" height="47.27272727272727" fill="#ffffff"/><rect x="0" y="0" width="23.64" height="23.64" fill="#ecf0f6"/><path d="M 0 0 A 23.64 23.64 0 0 1 23.64 23.64 L 0 23.64" fill="#c7d2e4"/><rect x="23.64" y="0" width="23.64" height="23.64" fill="#fd5e5e"/><path d="M 23.64 23.64 A 23.64 23.64 0 0 1  47.28 0 L 47.28 23.64" fill="#dbe2ee"/><rect x="0" y="23.64" width="23.64" height="23.64" fill="#f1f4f8"/><path d="M 0 47.28 A 23.64 23.64 0 0 0 23.64 23.64 L 0 23.64" fill="#ffdddd"/><rect x="23.64" y="23.64" width="23.64" height="23.64" fill="#feb8b8"/><path d="M 23.64 23.64 A 23.64 23.64 0 0 0 47.28 47.28 L 47.28 23.64" fill="#ffd0d0"/><rect x="47.27272727272727" y="0" width="47.27272727272727" height="47.27272727272727" fill="#ffffff"/><rect x="47.27" y="0" width="23.64" height="23.64" fill="#ffecec"/><path d="M 47.27 0 A 23.64 23.64 0 0 1 70.91 23.64 L 47.27 23.64" fill="#fe7e7e"/><rect x="70.91" y="0" width="23.64" height="23.64" fill="#dbe2ed"/><path d="M 70.91 23.64 A 23.64 23.64 0 0 1  94.55 0 L 94.55 23.64" fill="#dce3ee"/><rect x="47.27" y="23.64" width="23.64" height="23.64" fill="#d5deeb"/><path d="M 47.27 47.28 A 23.64 23.64 0 0 0 70.91 23.64 L 47.27 23.64" fill="#ffcdcd"/><rect x="70.91" y="23.64" width="23.64" height="23.64" fill="#e4eaf2"/><path d="M 70.91 23.64 A 23.64 23.64 0 0 0 94.55 47.28 L 94.55 23.64" fill="#d1dae9"/><rect x="94.55" y="0" width="47.27" height="47.27" fill="#f2f5f9"/><polygon points="141.82,0 141.82,47.27 94.55,47.27" fill="#f7f9fb"/><rect x="141.82" y="0" width="47.27" height="47.27" fill="#fe8888"/><rect x="141.82" y="0" width="47.27" height="47.27" fill="#fe8686"/><rect x="189.09" y="0" width="47.27" height="47.27" fill="#f4f6f9"/><polygon points="189.09,0 236.36,47.27 189.09,47.27" fill="#fd4949"/><rect x="236.36" y="0" width="47.27" height="47.27" fill="#fe6262"/><rect x="236.36" y="0" width="47.27" height="47.27" fill="#ebeff5"/><rect x="283.6363636363636" y="0" width="47.27272727272727" height="47.27272727272727" fill="#ffffff"/><rect x="283.64" y="0" width="23.64" height="23.64" fill="#fe8b8b"/><polygon points="283.64,0 307.28,0 283.64,23.64" fill="#c9d4e5"/><rect x="307.27" y="0" width="23.64" height="23.64" fill="#ccd6e6"/><polygon points="307.27,0 330.90999999999997,0 330.90999999999997,23.64" fill="#cdd7e7"/><rect x="283.64" y="23.64" width="23.64" height="23.64" fill="#fffafa"/><polygon points="283.64,23.64 307.28,47.28 283.64,47.28" fill="#fe8888"/><rect x="307.27" y="23.64" width="23.64" height="23.64" fill="#cdd7e7"/><polygon points="330.90999999999997,23.64 330.90999999999997,47.28 307.27,47.28" fill="#dbe2ee"/><rect x="330.90909090909093" y="0" width="47.27272727272727" height="47.27272727272727" fill="#ffffff"/><rect x="330.91" y="0" width="23.64" height="23.64" fill="#fec0c0"/><polygon points="330.91,0 354.55,0 330.91,23.64" fill="#fd3939"/><rect x="354.55" y="0" width="23.64" height="23.64" fill="#dfe5f0"/><polygon points="378.19,0 378.19,23.64 354.55,23.64" fill="#cdd7e7"/><rect x="330.91" y="23.64" width="23.64" height="23.64" fill="#feb5b5"/><polygon points="330.91,23.64 354.55,23.64 354.55,47.28" fill="#d7dfec"/><rect x="354.55" y="23.64" width="23.64" height="23.64" fill="#ffd9d9"/><polygon points="354.55,23.64 378.19,47.28 354.55,47.28" fill="#f8fafc"/><rect x="378.1818181818182" y="0" width="47.27272727272727" height="47.27272727272727" fill="#ffffff"/><rect x="378.18" y="0" width="23.64" height="23.64" fill="#d6deeb"/><polygon points="378.18,0 401.82,0 378.18,23.64" fill="#fbfcfd"/><rect x="401.82" y="0" width="23.64" height="23.64" fill="#fe9f9f"/><polygon points="401.82,0 425.46,0 425.46,23.64" fill="#fd4949"/><rect x="378.18" y="23.64" width="23.64" height="23.64" fill="#fea9a9"/><polygon points="378.18,23.64 401.82,47.28 378.18,47.28" fill="#fe7474"/><rect x="401.82" y="23.64" width="23.64" height="23.64" fill="#fffbfb"/><polygon points="425.46,23.64 425.46,47.28 401.82,47.28" fill="#dbe2ee"/><rect x="425.45454545454544" y="0" width="47.27272727272727" height="47.27272727272727" fill="#ffffff"/><rect x="425.45" y="0" width="23.64" height="23.64" fill="#d3dcea"/><path d="M 425.45 23.64 A 23.64 23.64 0 0 0 449.09 0 L 425.45 0" fill="#c4d0e3"/><rect x="449.09" y="0" width="23.64" height="23.64" fill="#c4d0e3"/><path d="M 449.09 0 A 23.64 23.64 0 0 0 472.72999999999996 23.64 L 472.72999999999996 0" fill="#fd5252"/><rect x="425.45" y="23.64" width="23.64" height="23.64" fill="#fe9797"/><path d="M 425.45 23.64 A 23.64 23.64 0 0 1 449.09 47.28 L 425.45 47.28" fill="#d2dbe9"/><rect x="449.09" y="23.64" width="23.64" height="23.64" fill="#fd4949"/><path d="M 449.09 47.28 A 23.64 23.64 0 0 1  472.72999999999996 23.64 L 472.72999999999996 47.28" fill="#ced8e7"/><rect x="472.72727272727275" y="0" width="47.27272727272727" height="47.27272727272727" fill="#ffffff"/><rect x="472.73" y="0" width="23.64" height="23.64" fill="#ffd2d2"/><path d="M 472.73 23.64 A 23.64 23.64 0 0 1 496.37 0 L 496.37 5.91 A 17.73 17.73 0 0 0 478.64000000000004 23.64" fill="#fe6d6d"/><rect x="496.36" y="0" width="23.64" height="23.64" fill="#fafbfd"/><path d="M 496.36 0 A 23.64 23.64 0 0 1 520 23.64 L 514.09 23.64 A 17.73 17.73 0 0 0 496.36 5.91" fill="#fd5353"/><rect x="472.73" y="23.64" width="23.64" height="23.64" fill="#fe9191"/><path d="M 472.73 23.64 A 23.64 23.64 0 0 0 496.37 47.28 L 496.37 41.370000000000005 A 17.73 17.73 0 0 1 478.64000000000004 23.64" fill="#e4e9f2"/><rect x="496.36" y="23.64" width="23.64" height="23.64" fill="#fd4f4f"/><path d="M 496.36 47.28 A 23.64 23.64 0 0 0 520 23.64 L 514.09 23.64 A 17.73 17.73 0 0 1 496.36 41.370000000000005" fill="#fe6d6d"/><rect x="520" y="0" width="47.27272727272727" height="47.27272727272727" fill="#ffffff"/><rect x="520" y="0" width="23.64" height="23.64" fill="#f6f8fb"/><path d="M 520 23.64 A 23.64 23.64 0 0 1  543.64 0 L 543.64 23.64" fill="#fd4040"/><rect x="543.64" y="0" width="23.64" height="23.64" fill="#fe8e8e"/><path d="M 543.64 0 A 23.64 23.64 0 0 1 567.28 23.64 L 543.64 23.64" fill="#fd5f5f"/><rect x="520" y="23.64" width="23.64" height="23.64" fill="#c5d1e3"/><path d="M 520 23.64 A 23.64 23.64 0 0 0 543.64 47.28 L 543.64 23.64" fill="#d2dbe9"/><rect x="543.64" y="23.64" width="23.64" height="23.64" fill="#e5eaf2"/><path d="M 543.64 47.28 A 23.64 23.64 0 0 0 567.28 23.64 L 543.64 23.64" fill="#febebe"/><rect x="567.2727272727273" y="0" width="47.27272727272727" height="47.27272727272727" fill="#ffffff"/><rect x="567.27" y="0" width="23.64" height="23.64" fill="#f7f9fb"/><path d="M 567.27 23.64 A 23.64 23.64 0 0 0 590.91 0 L 567.27 0" fill="#fe7070"/><rect x="590.91" y="0" width="23.64" height="23.64" fill="#fd5d5d"/><path d="M 590.91 0 A 23.64 23.64 0 0 0 614.55 23.64 L 614.55 0" fill="#d8e0ec"/><rect x="567.27" y="23.64" width="23.64" height="23.64" fill="#e3e8f1"/><path d="M 567.27 23.64 A 23.64 23.64 0 0 1 590.91 47.28 L 567.27 47.28" fill="#d0d9e8"/><rect x="590.91" y="23.64" width="23.64" height="23.64" fill="#fea1a1"/><path d="M 590.91 47.28 A 23.64 23.64 0 0 1  614.55 23.64 L 614.55 47.28" fill="#fff7f7"/><rect x="614.55" y="0" width="47.27" height="47.27" fill="#feffff"/><polygon points="614.55,0 661.8199999999999,0 661.8199999999999,47.27" fill="#fd5858"/><rect x="661.8181818181819" y="0" width="47.27272727272727" height="47.27272727272727" fill="#ffffff"/><rect x="661.82" y="0" width="23.64" height="23.64" fill="#d4dcea"/><path d="M 661.82 23.64 A 23.64 23.64 0 0 0 685.46 0 L 661.82 0" fill="#f3f5f9"/><rect x="685.45" y="0" width="23.64" height="23.64" fill="#c5d1e3"/><path d="M 685.45 0 A 23.64 23.64 0 0 0 709.09 23.64 L 709.09 0" fill="#ffe3e3"/><rect x="661.82" y="23.64" width="23.64" height="23.64" fill="#ffecec"/><path d="M 661.82 23.64 A 23.64 23.64 0 0 1 685.46 47.28 L 661.82 47.28" fill="#fe6b6b"/><rect x="685.45" y="23.64" width="23.64" height="23.64" fill="#e8edf4"/><path d="M 685.45 47.28 A 23.64 23.64 0 0 1  709.09 23.64 L 709.09 47.28" fill="#fea8a8"/><rect x="0" y="47.27272727272727" width="47.27272727272727" height="47.27272727272727" fill="#ffffff"/><rect x="0" y="47.27" width="23.64" height="23.64" fill="#ebeff5"/><path d="M 0 47.27 A 23.64 23.64 0 0 0 23.64 70.91 L 23.64 47.27" fill="#e2e8f1"/><rect x="23.64" y="47.27" width="23.64" height="23.64" fill="#ffeded"/><path d="M 23.64 70.91 A 23.64 23.64 0 0 0 47.28 47.27 L 23.64 47.27" fill="#fffcfc"/><rect x="0" y="70.91" width="23.64" height="23.64" fill="#ffffff"/><path d="M 0 94.55 A 23.64 23.64 0 0 1  23.64 70.91 L 23.64 94.55" fill="#fd5555"/><rect x="23.64" y="70.91" width="23.64" height="23.64" fill="#fe9999"/><path d="M 23.64 70.91 A 23.64 23.64 0 0 1 47.28 94.55 L 23.64 94.55" fill="#dee4ef"/><rect x="47.27272727272727" y="47.27272727272727" width="47.27272727272727" height="47.27272727272727" fill="#ffffff"/><rect x="47.27" y="47.27" width="23.64" height="23.64" fill="#fe7272"/><polygon points="47.27,47.27 70.91,47.27 47.27,70.91" fill="#d5ddeb"/><rect x="70.91" y="47.27" width="23.64" height="23.64" fill="#c4d0e2"/><polygon points="94.55,47.27 94.55,70.91 70.91,70.91" fill="#fe8080"/><rect x="47.27" y="70.91" width="23.64" height="23.64" fill="#cad4e5"/><polygon points="47.27,70.91 70.91,70.91 70.91,94.55" fill="#ffd3d3"/><rect x="70.91" y="70.91" width="23.64" height="23.64" fill="#fff7f7"/><polygon points="70.91,70.91 94.55,94.55 70.91,94.55" fill="#ecf0f6"/><rect x="94.54545454545455" y="47.27272727272727" width="47.27272727272727" height="47.27272727272727" fill="#ffffff"/><rect x="94.55" y="47.27" width="23.64" height="23.64" fill="#dfe5ef"/><circle cx="106.37" cy="59.09" r="11.82" fill="#d6deeb"/><rect x="118.18" y="47.27" width="23.64" height="23.64" fill="#f2f5f9"/><rect x="118.18" y="47.27" width="23.64" height="23.64" fill="#fe7777"/><rect x="94.55" y="70.91" width="23.64" height="23.64" fill="#fec8c8"/><circle cx="106.37" cy="82.72999999999999" r="11.82" fill="#d6dfeb"/><rect x="118.18" y="70.91" width="23.64" height="23.64" fill="#ccd6e6"/><rect x="118.18" y="70.91" width="23.64" height="23.64" fill="#fd4d4d"/><rect x="141.8181818181818" y="47.27272727272727" width="47.27272727272727" height="47.27272727272727" fill="#ffffff"/><rect x="141.82" y="47.27" width="23.64" height="23.64" fill="#dfe5f0"/><path d="M 141.82 47.27 A 23.64 23.64 0 0 1 165.45999999999998 70.91 L 141.82 70.91" fill="#feafaf"/><rect x="165.45" y="47.27" width="23.64" height="23.64" fill="#f5f7fa"/><path d="M 165.45 70.91 A 23.64 23.64 0 0 1  189.08999999999997 47.27 L 189.08999999999997 70.91" fill="#e5ebf3"/><rect x="141.82" y="70.91" width="23.64" height="23.64" fill="#fe7a7a"/><path d="M 141.82 94.55 A 23.64 23.64 0 0 0 165.45999999999998 70.91 L 141.82 70.91" fill="#eaeef5"/><rect x="165.45" y="70.91" width="23.64" height="23.64" fill="#d5ddeb"/><path d="M 165.45 70.91 A 23.64 23.64 0 0 0 189.08999999999997 94.55 L 189.08999999999997 70.91" fill="#feb5b5"/><rect x="189.0909090909091" y="47.27272727272727" width="47.27272727272727" height="47.27272727272727" fill="#ffffff"/><rect x="189.09" y="47.27" width="23.64" height="23.64" fill="#fd3838"/><polygon points="189.09,47.27 212.73000000000002,47.27 189.09,70.91" fill="#fe9d9d"/><rect x="212.73" y="47.27" width="23.64" height="23.64" fill="#d0d9e8"/><polygon points="236.37,47.27 236.37,70.91 212.73,70.91" fill="#f7f8fb"/><rect x="189.09" y="70.91" width="23.64" height="23.64" fill="#feb6b6"/><polygon points="189.09,70.91 212.73000000000002,70.91 212.73000000000002,94.55" fill="#fcfcfd"/><rect x="212.73" y="70.91" width="23.64" height="23.64" fill="#ffcccc"/><polygon points="212.73,70.91 236.37,94.55 212.73,94.55" fill="#f7f9fb"/><rect x="236.36" y="47.27" width="47.27" height="47.27" fill="#fe8b8b"/><rect x="236.36" y="47.27" width="47.27" height="47.27" fill="#ffcbcb"/><rect x="283.64" y="47.27" width="47.27" height="47.27" fill="#e1e7f1"/><path d="M 283.64 94.54 A 47.27 47.27 0 0 1  330.90999999999997 47.27 L 283.64 94.54 A 47.27 47.27 0 0 0 330.90999999999997 47.27" fill="#fe8383"/><rect x="330.90909090909093" y="47.27272727272727" width="47.27272727272727" height="47.27272727272727" fill="#ffffff"/><rect x="330.91" y="47.27" width="23.64" height="23.64" fill="#fe7c7c"/><polygon points="330.91,47.27 354.55,47.27 330.91,70.91" fill="#e4e9f2"/><rect x="354.55" y="47.27" width="23.64" height="23.64" fill="#f7f8fb"/><polygon points="378.19,47.27 378.19,70.91 354.55,70.91" fill="#fe7e7e"/><rect x="330.91" y="70.91" width="23.64" height="23.64" fill="#d3dbe9"/><polygon points="330.91,70.91 354.55,70.91 354.55,94.55" fill="#dde4ef"/><rect x="354.55" y="70.91" width="23.64" height="23.64" fill="#fd5c5c"/><polygon points="354.55,70.91 378.19,94.55 354.55,94.55" fill="#d2dbe9"/><rect x="378.18" y="47.27" width="47.27" height="47.27" fill="#feb1b1"/><polygon points="378.18,47.27 425.45,47.27 378.18,94.54" fill="#febcbc"/><rect x="425.45454545454544" y="47.27272727272727" width="47.27272727272727" height="47.27272727272727" fill="#ffffff"/><rect x="425.45" y="47.27" width="23.64" height="23.64" fill="#ffdede"/><path d="M 425.45 47.27 A 23.64 23.64 0 0 1 449.09 70.91 L 425.45 70.91" fill="#e7ecf3"/><rect x="449.09" y="47.27" width="23.64" height="23.64" fill="#fe7070"/><path d="M 449.09 70.91 A 23.64 23.64 0 0 1  472.72999999999996 47.27 L 472.72999999999996 70.91" fill="#e6ebf3"/><rect x="425.45" y="70.91" width="23.64" height="23.64" fill="#c8d3e4"/><path d="M 425.45 94.55 A 23.64 23.64 0 0 0 449.09 70.91 L 425.45 70.91" fill="#dfe5ef"/><rect x="449.09" y="70.91" width="23.64" height="23.64" fill="#f8f9fb"/><path d="M 449.09 70.91 A 23.64 23.64 0 0 0 472.72999999999996 94.55 L 472.72999999999996 70.91" fill="#fd6060"/><rect x="472.73" y="47.27" width="47.27" height="47.27" fill="#fd6161"/><rect x="472.73" y="47.27" width="47.27" height="47.27" fill="#e9edf4"/><rect x="520" y="47.27" width="47.27" height="47.27" fill="#fe9a9a"/><rect x="520" y="47.27" width="47.27" height="47.27" fill="#fd5656"/><rect x="567.27" y="47.27" width="47.27" height="47.27" fill="#c9d4e5"/><path d="M 567.27 94.54 A 47.27 47.27 0 0 0 614.54 47.27 L 567.27 47.27" fill="#c9d4e5"/><rect x="614.55" y="47.27" width="47.27" height="47.27" fill="#feaeae"/><polygon points="661.8199999999999,47.27 661.8199999999999,94.54 614.55,94.54" fill="#fe8080"/><rect x="661.8181818181819" y="47.27272727272727" width="47.27272727272727" height="47.27272727272727" fill="#ffffff"/><rect x="661.82" y="47.27" width="23.64" height="23.64" fill="#ecf0f6"/><polygon points="661.82,47.27 685.46,47.27 661.82,70.91" fill="#fe9494"/><rect x="685.45" y="47.27" width="23.64" height="23.64" fill="#fe9b9b"/><polygon points="685.45,47.27 709.09,47.27 709.09,70.91" fill="#feafaf"/><rect x="661.82" y="70.91" width="23.64" height="23.64" fill="#fff3f3"/><polygon points="661.82,70.91 685.46,94.55 661.82,94.55" fill="#ffe1e1"/><rect x="685.45" y="70.91" width="23.64" height="23.64" fill="#fe8686"/><polygon points="709.09,70.91 709.09,94.55 685.45,94.55" fill="#ffe1e1"/><rect x="0" y="94.54545454545455" width="47.27272727272727" height="47.27272727272727" fill="#ffffff"/><rect x="0" y="94.55" width="23.64" height="23.64" fill="#fafbfd"/><polygon points="0,94.55 23.64,94.55 0,118.19" fill="#fd4b4b"/><rect x="23.64" y="94.55" width="23.64" height="23.64" fill="#fd3d3d"/><polygon points="23.64,94.55 47.28,94.55 47.28,118.19" fill="#d3dbea"/><rect x="0" y="118.18" width="23.64" height="23.64" fill="#fffbfb"/><polygon points="23.64,118.18 23.64,141.82 0,141.82" fill="#d9e0ec"/><rect x="23.64" y="118.18" width="23.64" height="23.64" fill="#fd4242"/><polygon points="23.64,118.18 47.28,141.82 23.64,141.82" fill="#fe6a6a"/><rect x="47.27" y="94.55" width="47.27" height="47.27" fill="#cad4e5"/><rect x="47.27" y="94.55" width="47.27" height="47.27" fill="#fafbfd"/><rect x="94.54545454545455" y="94.54545454545455" width="47.27272727272727" height="47.27272727272727" fill="#ffffff"/><rect x="94.55" y="94.55" width="23.64" height="23.64" fill="#fd3131"/><path d="M 94.55 118.19 A 23.64 23.64 0 0 1 118.19 94.55 L 118.19 100.46 A 17.73 17.73 0 0 0 100.46 118.19" fill="#eef1f7"/><rect x="118.18" y="94.55" width="23.64" height="23.64" fill="#f8fafc"/><path d="M 118.18 94.55 A 23.64 23.64 0 0 1 141.82 118.19 L 135.91 118.19 A 17.73 17.73 0 0 0 118.18 100.46" fill="#f3f5f9"/><rect x="94.55" y="118.18" width="23.64" height="23.64" fill="#dce3ee"/><path d="M 94.55 118.18 A 23.64 23.64 0 0 0 118.19 141.82 L 118.19 135.91 A 17.73 17.73 0 0 1 100.46 118.18" fill="#fe9a9a"/><rect x="118.18" y="118.18" width="23.64" height="23.64" fill="#c7d2e4"/><path d="M 118.18 141.82 A 23.64 23.64 0 0 0 141.82 118.18 L 135.91 118.18 A 17.73 17.73 0 0 1 118.18 135.91" fill="#dbe2ee"/><rect x="141.82" y="94.55" width="47.27" height="47.27" fill="#feffff"/><polygon points="141.82,94.55 189.09,94.55 141.82,141.82" fill="#ffe8e8"/><rect x="189.0909090909091" y="94.54545454545455" width="47.27272727272727" height="47.27272727272727" fill="#ffffff"/><rect x="189.09" y="94.55" width="23.64" height="23.64" fill="#cdd7e7"/><path d="M 189.09 118.19 A 23.64 23.64 0 0 1 212.73000000000002 94.55 L 212.73000000000002 100.46 A 17.73 17.73 0 0 0 195 118.19" fill="#dde4ef"/><rect x="212.73" y="94.55" width="23.64" height="23.64" fill="#fe9090"/><path d="M 212.73 94.55 A 23.64 23.64 0 0 1 236.37 118.19 L 230.45999999999998 118.19 A 17.73 17.73 0 0 0 212.73 100.46" fill="#fe8484"/><rect x="189.09" y="118.18" width="23.64" height="23.64" fill="#febebe"/><path d="M 189.09 118.18 A 23.64 23.64 0 0 0 212.73000000000002 141.82 L 212.73000000000002 135.91 A 17.73 17.73 0 0 1 195 118.18" fill="#ffe4e4"/><rect x="212.73" y="118.18" width="23.64" height="23.64" fill="#f8f9fc"/><path d="M 212.73 141.82 A 23.64 23.64 0 0 0 236.37 118.18 L 230.45999999999998 118.18 A 17.73 17.73 0 0 1 212.73 135.91" fill="#fe6e6e"/><rect x="236.36" y="94.55" width="47.27" height="47.27" fill="#dde3ee"/><path d="M 236.36 94.55 A 47.27 47.27 0 0 0 283.63 141.82 L 283.63 94.55" fill="#ced8e7"/><rect x="283.6363636363636" y="94.54545454545455" width="47.27272727272727" height="47.27272727272727" fill="#ffffff"/><rect x="283.64" y="94.55" width="23.64" height="23.64" fill="#fe9696"/><path d="M 283.64 118.19 A 23.64 23.64 0 0 1 307.28 94.55 L 307.28 100.46 A 17.73 17.73 0 0 0 289.55 118.19" fill="#f6f8fb"/><rect x="307.27" y="94.55" width="23.64" height="23.64" fill="#dce3ee"/><path d="M 307.27 94.55 A 23.64 23.64 0 0 1 330.90999999999997 118.19 L 325 118.19 A 17.73 17.73 0 0 0 307.27 100.46" fill="#fe9e9e"/><rect x="283.64" y="118.18" width="23.64" height="23.64" fill="#c4d0e2"/><path d="M 283.64 118.18 A 23.64 23.64 0 0 0 307.28 141.82 L 307.28 135.91 A 17.73 17.73 0 0 1 289.55 118.18" fill="#ccd6e7"/><rect x="307.27" y="118.18" width="23.64" height="23.64" fill="#fff0f0"/><path d="M 307.27 141.82 A 23.64 23.64 0 0 0 330.90999999999997 118.18 L 325 118.18 A 17.73 17.73 0 0 1 307.27 135.91" fill="#e4e9f2"/><rect x="330.90909090909093" y="94.54545454545455" width="47.27272727272727" height="47.27272727272727" fill="#ffffff"/><rect x="330.91" y="94.55" width="23.64" height="23.64" fill="#ffffff"/><path d="M 330.91 118.19 A 23.64 23.64 0 0 1  354.55 94.55 L 354.55 118.19" fill="#fff9f9"/><rect x="354.55" y="94.55" width="23.64" height="23.64" fill="#d7dfec"/><path d="M 354.55 94.55 A 23.64 23.64 0 0 1 378.19 118.19 L 354.55 118.19" fill="#eef2f7"/><rect x="330.91" y="118.18" width="23.64" height="23.64" fill="#fe8a8a"/><path d="M 330.91 118.18 A 23.64 23.64 0 0 0 354.55 141.82 L 354.55 118.18" fill="#fafbfd"/><rect x="354.55" y="118.18" width="23.64" height="23.64" fill="#fe7474"/><path d="M 354.55 141.82 A 23.64 23.64 0 0 0 378.19 118.18 L 354.55 118.18" fill="#ccd6e6"/><rect x="378.1818181818182" y="94.54545454545455" width="47.27272727272727" height="47.27272727272727" fill="#ffffff"/><rect x="378.18" y="94.55" width="23.64" height="23.64" fill="#ffdcdc"/><path d="M 378.18 118.19 A 23.64 23.64 0 0 0 401.82 94.55 L 378.18 94.55" fill="#fd3131"/><rect x="401.82" y="94.55" width="23.64" height="23.64" fill="#fe9f9f"/><path d="M 401.82 94.55 A 23.64 23.64 0 0 0 425.46 118.19 L 425.46 94.55" fill="#fec5c5"/><rect x="378.18" y="118.18" width="23.64" height="23.64" fill="#fea6a6"/><path d="M 378.18 118.18 A 23.64 23.64 0 0 1 401.82 141.82 L 378.18 141.82" fill="#ffcfcf"/><rect x="401.82" y="118.18" width="23.64" height="23.64" fill="#fecaca"/><path d="M 401.82 141.82 A 23.64 23.64 0 0 1  425.46 118.18 L 425.46 141.82" fill="#fe6868"/><rect x="425.45454545454544" y="94.54545454545455" width="47.27272727272727" height="47.27272727272727" fill="#ffffff"/><rect x="425.45" y="94.55" width="23.64" height="23.64" fill="#d6dfeb"/><path d="M 425.45 94.55 A 23.64 23.64 0 0 0 449.09 118.19 L 449.09 94.55" fill="#fd4949"/><rect x="449.09" y="94.55" width="23.64" height="23.64" fill="#dee4ef"/><path d="M 449.09 118.19 A 23.64 23.64 0 0 0 472.72999999999996 94.55 L 449.09 94.55" fill="#fd3535"/><rect x="425.45" y="118.18" width="23.64" height="23.64" fill="#c4d0e3"/><path d="M 425.45 141.82 A 23.64 23.64 0 0 1  449.09 118.18 L 449.09 141.82" fill="#fe6f6f"/><rect x="449.09" y="118.18" width="23.64" height="23.64" fill="#fe6767"/><path d="M 449.09 118.18 A 23.64 23.64 0 0 1 472.72999999999996 141.82 L 449.09 141.82" fill="#ffcece"/><rect x="472.73" y="94.55" width="47.27" height="47.27" fill="#fe6d6d"/><polygon points="472.73,94.55 520,94.55 520,141.82" fill="#d2dbe9"/><rect x="520" y="94.55" width="47.27" height="47.27" fill="#c8d3e5"/><polygon points="567.27,94.55 567.27,141.82 520,141.82" fill="#dee4ef"/><rect x="567.27" y="94.55" width="47.27" height="47.27" fill="#ffcfcf"/><path d="M 567.27 141.82 A 47.27 47.27 0 0 1  614.54 94.55 L 567.27 141.82 A 47.27 47.27 0 0 0 614.54 94.55" fill="#fe8383"/><rect x="614.55" y="94.55" width="47.27" height="47.27" fill="#d5deeb"/><rect x="614.55" y="94.55" width="47.27" height="47.27" fill="#fd4848"/><rect x="661.82" y="94.55" width="47.27" height="47.27" fill="#d0d9e8"/><rect x="661.82" y="94.55" width="47.27" height="47.27" fill="#cbd6e6"/><rect x="0" y="141.82" width="47.27" height="47.27" fill="#f8f9fb"/><path d="M 0 141.82 A 47.27 47.27 0 0 0 47.27 189.09 L 47.27 141.82" fill="#eaeef5"/><rect x="47.27" y="141.82" width="47.27" height="47.27" fill="#e2e8f1"/><rect x="47.27" y="141.82" width="47.27" height="47.27" fill="#e5eaf2"/><rect x="94.55" y="141.82" width="47.27" height="47.27" fill="#fd6060"/><path d="M 94.55 189.09 A 47.27 47.27 0 0 1  141.82 141.82 L 94.55 189.09 A 47.27 47.27 0 0 0 141.82 141.82" fill="#c8d3e4"/><rect x="141.82" y="141.82" width="47.27" height="47.27" fill="#fbfcfd"/><path d="M 141.82 189.09 A 47.27 47.27 0 0 0 189.09 141.82 L 141.82 141.82" fill="#fd5656"/><rect x="189.0909090909091" y="141.8181818181818" width="47.27272727272727" height="47.27272727272727" fill="#ffffff"/><rect x="189.09" y="141.82" width="23.64" height="23.64" fill="#ffd3d3"/><path d="M 189.09 141.82 A 23.64 23.64 0 0 0 212.73000000000002 165.45999999999998 L 212.73000000000002 141.82" fill="#febfbf"/><rect x="212.73" y="141.82" width="23.64" height="23.64" fill="#fd3939"/><path d="M 212.73 165.45999999999998 A 23.64 23.64 0 0 0 236.37 141.82 L 212.73 141.82" fill="#f8fafc"/><rect x="189.09" y="165.45" width="23.64" height="23.64" fill="#f8f9fc"/><path d="M 189.09 189.08999999999997 A 23.64 23.64 0 0 1  212.73000000000002 165.45 L 212.73000000000002 189.08999999999997" fill="#d4dcea"/><rect x="212.73" y="165.45" width="23.64" height="23.64" fill="#f3f6f9"/><path d="M 212.73 165.45 A 23.64 23.64 0 0 1 236.37 189.08999999999997 L 212.73 189.08999999999997" fill="#c8d3e5"/><rect x="236.36363636363637" y="141.8181818181818" width="47.27272727272727" height="47.27272727272727" fill="#ffffff"/><rect x="236.36" y="141.82" width="23.64" height="23.64" fill="#dce3ee"/><path d="M 236.36 165.45999999999998 A 23.64 23.64 0 0 0 260 141.82 L 236.36 141.82" fill="#f8f9fb"/><rect x="260" y="141.82" width="23.64" height="23.64" fill="#e7ecf4"/><path d="M 260 141.82 A 23.64 23.64 0 0 0 283.64 165.45999999999998 L 283.64 141.82" fill="#dbe2ed"/><rect x="236.36" y="165.45" width="23.64" height="23.64" fill="#fe7a7a"/><path d="M 236.36 165.45 A 23.64 23.64 0 0 1 260 189.08999999999997 L 236.36 189.08999999999997" fill="#fd5c5c"/><rect x="260" y="165.45" width="23.64" height="23.64" fill="#e7ecf3"/><path d="M 260 189.08999999999997 A 23.64 23.64 0 0 1  283.64 165.45 L 283.64 189.08999999999997" fill="#ffd1d1"/><rect x="283.6363636363636" y="141.8181818181818" width="47.27272727272727" height="47.27272727272727" fill="#ffffff"/><rect x="283.64" y="141.82" width="23.64" height="23.64" fill="#d2dbe9"/><path d="M 283.64 165.45999999999998 A 23.64 23.64 0 0 0 307.28 141.82 L 283.64 141.82" fill="#fe8181"/><rect x="307.27" y="141.82" width="23.64" height="23.64" fill="#ebeff5"/><path d="M 307.27 141.82 A 23.64 23.64 0 0 0 330.90999999999997 165.45999999999998 L 330.90999999999997 141.82" fill="#c4cfe2"/><rect x="283.64" y="165.45" width="23.64" height="23.64" fill="#f7f8fb"/><path d="M 283.64 165.45 A 23.64 23.64 0 0 1 307.28 189.08999999999997 L 283.64 189.08999999999997" fill="#fd3030"/><rect x="307.27" y="165.45" width="23.64" height="23.64" fill="#dbe2ed"/><path d="M 307.27 189.08999999999997 A 23.64 23.64 0 0 1  330.90999999999997 165.45 L 330.90999999999997 189.08999999999997" fill="#f9fafc"/><rect x="330.90909090909093" y="141.8181818181818" width="47.27272727272727" height="47.27272727272727" fill="#ffffff"/><rect x="330.91" y="141.82" width="23.64" height="23.64" fill="#d7dfec"/><polygon points="330.91,141.82 354.55,141.82 330.91,165.45999999999998" fill="#d4ddea"/><rect x="354.55" y="141.82" width="23.64" height="23.64" fill="#fcfcfd"/><polygon points="354.55,141.82 378.19,141.82 378.19,165.45999999999998" fill="#fd5b5b"/><rect x="330.91" y="165.45" width="23.64" height="23.64" fill="#d2dbe9"/><polygon points="354.55,165.45 354.55,189.08999999999997 330.91,189.08999999999997" fill="#fcfcfd"/><rect x="354.55" y="165.45" width="23.64" height="23.64" fill="#f7f9fb"/><polygon points="354.55,165.45 378.19,189.08999999999997 354.55,189.08999999999997" fill="#fd4d4d"/><rect x="378.1818181818182" y="141.8181818181818" width="47.27272727272727" height="47.27272727272727" fill="#ffffff"/><rect x="378.18" y="141.82" width="23.64" height="23.64" fill="#e9edf4"/><path d="M 378.18 165.45999999999998 A 23.64 23.64 0 0 1 401.82 141.82 L 401.82 147.73 A 17.73 17.73 0 0 0 384.09000000000003 165.45999999999998" fill="#dae2ed"/><rect x="401.82" y="141.82" width="23.64" height="23.64" fill="#fd3e3e"/><path d="M 401.82 141.82 A 23.64 23.64 0 0 1 425.46 165.45999999999998 L 419.55 165.45999999999998 A 17.73 17.73 0 0 0 401.82 147.73" fill="#c5d0e3"/><rect x="378.18" y="165.45" width="23.64" height="23.64" fill="#dfe5ef"/><path d="M 378.18 165.45 A 23.64 23.64 0 0 0 401.82 189.08999999999997 L 401.82 183.17999999999998 A 17.73 17.73 0 0 1 384.09000000000003 165.45" fill="#edf0f6"/><rect x="401.82" y="165.45" width="23.64" height="23.64" fill="#cdd7e7"/><path d="M 401.82 189.08999999999997 A 23.64 23.64 0 0 0 425.46 165.45 L 419.55 165.45 A 17.73 17.73 0 0 1 401.82 183.17999999999998" fill="#fe8b8b"/><rect x="425.45" y="141.82" width="47.27" height="47.27" fill="#e7ecf3"/><path d="M 425.45 189.09 A 47.27 47.27 0 0 1  472.71999999999997 141.82 L 472.71999999999997 189.09" fill="#fcfdfe"/><rect x="472.73" y="141.82" width="47.27" height="47.27" fill="#c3cfe2"/><polygon points="472.73,141.82 520,189.09 472.73,189.09" fill="#d4ddea"/><rect x="520" y="141.82" width="47.27" height="47.27" fill="#d4ddea"/><path d="M 520 189.09 A 47.27 47.27 0 0 1  567.27 141.82 L 567.27 189.09" fill="#fe8080"/><rect x="567.27" y="141.82" width="47.27" height="47.27" fill="#d2dbe9"/><polygon points="567.27,141.82 614.54,141.82 567.27,189.09" fill="#f6f8fb"/><rect x="614.5454545454545" y="141.8181818181818" width="47.27272727272727" height="47.27272727272727" fill="#ffffff"/><rect x="614.55" y="141.82" width="23.64" height="23.64" fill="#d9e0ec"/><polygon points="614.55,141.82 638.1899999999999,141.82 614.55,165.45999999999998" fill="#fe6a6a"/><rect x="638.18" y="141.82" width="23.64" height="23.64" fill="#fe9a9a"/><polygon points="661.8199999999999,141.82 661.8199999999999,165.45999999999998 638.18,165.45999999999998" fill="#ffebeb"/><rect x="614.55" y="165.45" width="23.64" height="23.64" fill="#e1e7f0"/><polygon points="614.55,165.45 638.1899999999999,165.45 638.1899999999999,189.08999999999997" fill="#f3f5f9"/><rect x="638.18" y="165.45" width="23.64" height="23.64" fill="#ffdfdf"/><polygon points="638.18,165.45 661.8199999999999,189.08999999999997 638.18,189.08999999999997" fill="#fea3a3"/><rect x="661.82" y="141.82" width="47.27" height="47.27" fill="#f9fafc"/><path d="M 661.82 141.82 A 47.27 47.27 0 0 0 709.09 189.09 L 709.09 141.82" fill="#e2e8f1"/><rect x="0" y="189.0909090909091" width="47.27272727272727" height="47.27272727272727" fill="#ffffff"/><rect x="0" y="189.09" width="23.64" height="23.64" fill="#ebeff5"/><polygon points="0,189.09 23.64,189.09 0,212.73000000000002" fill="#fd4343"/><rect x="23.64" y="189.09" width="23.64" height="23.64" fill="#f3f6f9"/><polygon points="23.64,189.09 47.28,189.09 47.28,212.73000000000002" fill="#fe6767"/><rect x="0" y="212.73" width="23.64" height="23.64" fill="#feb8b8"/><polygon points="23.64,212.73 23.64,236.37 0,236.37" fill="#e0e7f0"/><rect x="23.64" y="212.73" width="23.64" height="23.64" fill="#fe9f9f"/><polygon points="23.64,212.73 47.28,236.37 23.64,236.37" fill="#d3dcea"/><rect x="47.27272727272727" y="189.0909090909091" width="47.27272727272727" height="47.27272727272727" fill="#ffffff"/><rect x="47.27" y="189.09" width="23.64" height="23.64" fill="#dce3ee"/><polygon points="47.27,189.09 70.91,189.09 47.27,212.73000000000002" fill="#feb9b9"/><rect x="70.91" y="189.09" width="23.64" height="23.64" fill="#ffd3d3"/><polygon points="70.91,189.09 94.55,189.09 94.55,212.73000000000002" fill="#fd3e3e"/><rect x="47.27" y="212.73" width="23.64" height="23.64" fill="#fe7b7b"/><polygon points="47.27,212.73 70.91,236.37 47.27,236.37" fill="#fea6a6"/><rect x="70.91" y="212.73" width="23.64" height="23.64" fill="#fd5858"/><polygon points="94.55,212.73 94.55,236.37 70.91,236.37" fill="#f2f5f9"/><rect x="94.54545454545455" y="189.0909090909091" width="47.27272727272727" height="47.27272727272727" fill="#ffffff"/><rect x="94.55" y="189.09" width="23.64" height="23.64" fill="#dde4ef"/><path d="M 94.55 212.73000000000002 A 23.64 23.64 0 0 1 118.19 189.09 L 118.19 195 A 17.73 17.73 0 0 0 100.46 212.73000000000002" fill="#fec0c0"/><rect x="118.18" y="189.09" width="23.64" height="23.64" fill="#ffd2d2"/><path d="M 118.18 189.09 A 23.64 23.64 0 0 1 141.82 212.73000000000002 L 135.91 212.73000000000002 A 17.73 17.73 0 0 0 118.18 195" fill="#e3e9f2"/><rect x="94.55" y="212.73" width="23.64" height="23.64" fill="#e5ebf3"/><path d="M 94.55 212.73 A 23.64 23.64 0 0 0 118.19 236.37 L 118.19 230.45999999999998 A 17.73 17.73 0 0 1 100.46 212.73" fill="#e9edf4"/><rect x="118.18" y="212.73" width="23.64" height="23.64" fill="#dde4ee"/><path d="M 118.18 236.37 A 23.64 23.64 0 0 0 141.82 212.73 L 135.91 212.73 A 17.73 17.73 0 0 1 118.18 230.45999999999998" fill="#fd5e5e"/><rect x="141.8181818181818" y="189.0909090909091" width="47.27272727272727" height="47.27272727272727" fill="#ffffff"/><rect x="141.82" y="189.09" width="23.64" height="23.64" fill="#f0f3f8"/><polygon points="141.82,189.09 165.45999999999998,189.09 141.82,212.73000000000002" fill="#e5ebf3"/><rect x="165.45" y="189.09" width="23.64" height="23.64" fill="#ffdada"/><polygon points="189.08999999999997,189.09 189.08999999999997,212.73000000000002 165.45,212.73000000000002" fill="#fcfdfe"/><rect x="141.82" y="212.73" width="23.64" height="23.64" fill="#fe8888"/><polygon points="141.82,212.73 165.45999999999998,212.73 165.45999999999998,236.37" fill="#d9e1ed"/><rect x="165.45" y="212.73" width="23.64" height="23.64" fill="#fe8686"/><polygon points="165.45,212.73 189.08999999999997,236.37 165.45,236.37" fill="#f6f7fa"/><rect x="189.0909090909091" y="189.0909090909091" width="47.27272727272727" height="47.27272727272727" fill="#ffffff"/><rect x="189.09" y="189.09" width="23.64" height="23.64" fill="#f0f3f8"/><path d="M 189.09 212.73000000000002 A 23.64 23.64 0 0 1  212.73000000000002 189.09 L 212.73000000000002 212.73000000000002" fill="#c5d1e3"/><rect x="212.73" y="189.09" width="23.64" height="23.64" fill="#fff5f5"/><path d="M 212.73 189.09 A 23.64 23.64 0 0 1 236.37 212.73000000000002 L 212.73 212.73000000000002" fill="#d3dcea"/><rect x="189.09" y="212.73" width="23.64" height="23.64" fill="#fd5c5c"/><path d="M 189.09 212.73 A 23.64 23.64 0 0 0 212.73000000000002 236.37 L 212.73000000000002 212.73" fill="#ffe5e5"/><rect x="212.73" y="212.73" width="23.64" height="23.64" fill="#fe9494"/><path d="M 212.73 236.37 A 23.64 23.64 0 0 0 236.37 212.73 L 212.73 212.73" fill="#d3dbea"/><rect x="236.36" y="189.09" width="47.27" height="47.27" fill="#dde4ef"/><rect x="236.36" y="189.09" width="47.27" height="47.27" fill="#c7d2e4"/><rect x="283.6363636363636" y="189.0909090909091" width="47.27272727272727" height="47.27272727272727" fill="#ffffff"/><rect x="283.64" y="189.09" width="23.64" height="23.64" fill="#d5deeb"/><polygon points="283.64,189.09 307.28,189.09 283.64,212.73000000000002" fill="#f3f6f9"/><rect x="307.27" y="189.09" width="23.64" height="23.64" fill="#f9fafc"/><polygon points="307.27,189.09 330.90999999999997,189.09 330.90999999999997,212.73000000000002" fill="#fd6060"/><rect x="283.64" y="212.73" width="23.64" height="23.64" fill="#dce3ee"/><polygon points="307.28,212.73 307.28,236.37 283.64,236.37" fill="#cbd5e6"/><rect x="307.27" y="212.73" width="23.64" height="23.64" fill="#fd5353"/><polygon points="307.27,212.73 330.90999999999997,236.37 307.27,236.37" fill="#ced8e8"/><rect x="330.90909090909093" y="189.0909090909091" width="47.27272727272727" height="47.27272727272727" fill="#ffffff"/><rect x="330.91" y="189.09" width="23.64" height="23.64" fill="#d0d9e8"/><path d="M 330.91 212.73000000000002 A 23.64 23.64 0 0 1  354.55 189.09 L 354.55 212.73000000000002" fill="#f8f9fc"/><rect x="354.55" y="189.09" width="23.64" height="23.64" fill="#f8f9fb"/><path d="M 354.55 189.09 A 23.64 23.64 0 0 1 378.19 212.73000000000002 L 354.55 212.73000000000002" fill="#d6deeb"/><rect x="330.91" y="212.73" width="23.64" height="23.64" fill="#e0e6f0"/><path d="M 330.91 212.73 A 23.64 23.64 0 0 0 354.55 236.37 L 354.55 212.73" fill="#fd4949"/><rect x="354.55" y="212.73" width="23.64" height="23.64" fill="#feb8b8"/><path d="M 354.55 236.37 A 23.64 23.64 0 0 0 378.19 212.73 L 354.55 212.73" fill="#fe8a8a"/><rect x="378.1818181818182" y="189.0909090909091" width="47.27272727272727" height="47.27272727272727" fill="#ffffff"/><rect x="378.18" y="189.09" width="23.64" height="23.64" fill="#fe8686"/><polygon points="378.18,189.09 401.82,189.09 378.18,212.73000000000002" fill="#feb4b4"/><rect x="401.82" y="189.09" width="23.64" height="23.64" fill="#fd3737"/><polygon points="401.82,189.09 425.46,189.09 425.46,212.73000000000002" fill="#fd4e4e"/><rect x="378.18" y="212.73" width="23.64" height="23.64" fill="#ebeff6"/><polygon points="401.82,212.73 401.82,236.37 378.18,236.37" fill="#feadad"/><rect x="401.82" y="212.73" width="23.64" height="23.64" fill="#cbd5e6"/><polygon points="401.82,212.73 425.46,236.37 401.82,236.37" fill="#f1f4f8"/><rect x="425.45454545454544" y="189.0909090909091" width="47.27272727272727" height="47.27272727272727" fill="#ffffff"/><rect x="425.45" y="189.09" width="23.64" height="23.64" fill="#ffe5e5"/><polygon points="425.45,189.09 449.09,189.09 425.45,212.73000000000002" fill="#ffeded"/><rect x="449.09" y="189.09" width="23.64" height="23.64" fill="#fe7c7c"/><polygon points="472.72999999999996,189.09 472.72999999999996,212.73000000000002 449.09,212.73000000000002" fill="#f7f9fb"/><rect x="425.45" y="212.73" width="23.64" height="23.64" fill="#cfd8e8"/><polygon points="425.45,212.73 449.09,212.73 449.09,236.37" fill="#ffe8e8"/><rect x="449.09" y="212.73" width="23.64" height="23.64" fill="#fe9595"/><polygon points="449.09,212.73 472.72999999999996,236.37 449.09,236.37" fill="#cbd5e6"/><rect x="472.73" y="189.09" width="47.27" height="47.27" fill="#ffcccc"/><rect x="472.73" y="189.09" width="47.27" height="47.27" fill="#c7d2e4"/><rect x="520" y="189.0909090909091" width="47.27272727272727" height="47.27272727272727" fill="#ffffff"/><rect x="520" y="189.09" width="23.64" height="23.64" fill="#f6f8fb"/><polygon points="520,189.09 543.64,189.09 520,212.73000000000002" fill="#fd5757"/><rect x="543.64" y="189.09" width="23.64" height="23.64" fill="#dce3ee"/><polygon points="543.64,189.09 567.28,189.09 567.28,212.73000000000002" fill="#fec0c0"/><rect x="520" y="212.73" width="23.64" height="23.64" fill="#fd3333"/><polygon points="520,212.73 543.64,236.37 520,236.37" fill="#dee4ef"/><rect x="543.64" y="212.73" width="23.64" height="23.64" fill="#ffd0d0"/><polygon points="567.28,212.73 567.28,236.37 543.64,236.37" fill="#dee5ef"/><rect x="567.2727272727273" y="189.0909090909091" width="47.27272727272727" height="47.27272727272727" fill="#ffffff"/><rect x="567.27" y="189.09" width="23.64" height="23.64" fill="#fe7373"/><path d="M 567.27 189.09 A 23.64 23.64 0 0 0 590.91 212.73000000000002 L 590.91 189.09" fill="#fefefe"/><rect x="590.91" y="189.09" width="23.64" height="23.64" fill="#d7dfec"/><path d="M 590.91 212.73000000000002 A 23.64 23.64 0 0 0 614.55 189.09 L 590.91 189.09" fill="#dee5ef"/><rect x="567.27" y="212.73" width="23.64" height="23.64" fill="#f2f5f9"/><path d="M 567.27 236.37 A 23.64 23.64 0 0 1  590.91 212.73 L 590.91 236.37" fill="#e9edf4"/><rect x="590.91" y="212.73" width="23.64" height="23.64" fill="#f5f7fa"/><path d="M 590.91 212.73 A 23.64 23.64 0 0 1 614.55 236.37 L 590.91 236.37" fill="#e7ebf3"/><rect x="614.55" y="189.09" width="47.27" height="47.27" fill="#febfbf"/><rect x="614.55" y="189.09" width="47.27" height="47.27" fill="#fefefe"/><rect x="661.82" y="189.09" width="47.27" height="47.27" fill="#ffe2e2"/><polygon points="661.82,189.09 709.09,236.36 661.82,236.36" fill="#ffdbdb"/><rect x="0" y="236.36363636363637" width="47.27272727272727" height="47.27272727272727" fill="#ffffff"/><rect x="0" y="236.36" width="23.64" height="23.64" fill="#fe9d9d"/><path d="M 0 260 A 23.64 23.64 0 0 1 23.64 236.36 L 23.64 242.27 A 17.73 17.73 0 0 0 5.91 260" fill="#c4d0e2"/><rect x="23.64" y="236.36" width="23.64" height="23.64" fill="#e9edf4"/><path d="M 23.64 236.36 A 23.64 23.64 0 0 1 47.28 260 L 41.370000000000005 260 A 17.73 17.73 0 0 0 23.64 242.27" fill="#fe7272"/><rect x="0" y="260" width="23.64" height="23.64" fill="#e1e7f0"/><path d="M 0 260 A 23.64 23.64 0 0 0 23.64 283.64 L 23.64 277.73 A 17.73 17.73 0 0 1 5.91 260" fill="#fe6666"/><rect x="23.64" y="260" width="23.64" height="23.64" fill="#e6ebf3"/><path d="M 23.64 283.64 A 23.64 23.64 0 0 0 47.28 260 L 41.370000000000005 260 A 17.73 17.73 0 0 1 23.64 277.73" fill="#f2f4f9"/><rect x="47.27" y="236.36" width="47.27" height="47.27" fill="#f3f5f9"/><rect x="47.27" y="236.36" width="47.27" height="47.27" fill="#e1e7f0"/><rect x="94.54545454545455" y="236.36363636363637" width="47.27272727272727" height="47.27272727272727" fill="#ffffff"/><rect x="94.55" y="236.36" width="23.64" height="23.64" fill="#f6f8fb"/><path d="M 94.55 236.36 A 23.64 23.64 0 0 0 118.19 260 L 118.19 236.36" fill="#d9e1ed"/><rect x="118.18" y="236.36" width="23.64" height="23.64" fill="#cad4e5"/><path d="M 118.18 260 A 23.64 23.64 0 0 0 141.82 236.36 L 118.18 236.36" fill="#f1f4f8"/><rect x="94.55" y="260" width="23.64" height="23.64" fill="#eff2f7"/><path d="M 94.55 283.64 A 23.64 23.64 0 0 1  118.19 260 L 118.19 283.64" fill="#fe8181"/><rect x="118.18" y="260" width="23.64" height="23.64" fill="#fe6565"/><path d="M 118.18 260 A 23.64 23.64 0 0 1 141.82 283.64 L 118.18 283.64" fill="#c4cfe2"/><rect x="141.82" y="236.36" width="47.27" height="47.27" fill="#fafbfd"/><path d="M 141.82 283.63 A 47.27 47.27 0 0 1  189.09 236.36 L 141.82 283.63 A 47.27 47.27 0 0 0 189.09 236.36" fill="#febebe"/><rect x="189.09" y="236.36" width="47.27" height="47.27" fill="#d6deeb"/><path d="M 189.09 283.63 A 47.27 47.27 0 0 1  236.36 236.36 L 189.09 283.63 A 47.27 47.27 0 0 0 236.36 236.36" fill="#fefefe"/><rect x="236.36363636363637" y="236.36363636363637" width="47.27272727272727" height="47.27272727272727" fill="#ffffff"/><rect x="236.36" y="236.36" width="23.64" height="23.64" fill="#fd6161"/><polygon points="236.36,236.36 260,236.36 236.36,260" fill="#dce3ee"/><rect x="260" y="236.36" width="23.64" height="23.64" fill="#f6f8fb"/><polygon points="283.64,236.36 283.64,260 260,260" fill="#fefefe"/><rect x="236.36" y="260" width="23.64" height="23.64" fill="#d6deeb"/><polygon points="236.36,260 260,260 260,283.64" fill="#fe9191"/><rect x="260" y="260" width="23.64" height="23.64" fill="#fec7c7"/><polygon points="260,260 283.64,283.64 260,283.64" fill="#ffd7d7"/><rect x="283.64" y="236.36" width="47.27" height="47.27" fill="#d5deeb"/><rect x="283.64" y="236.36" width="47.27" height="47.27" fill="#ffd2d2"/><rect x="330.91" y="236.36" width="47.27" height="47.27" fill="#cad5e5"/><polygon points="330.91,236.36 378.18,236.36 330.91,283.63" fill="#e6ebf3"/><rect x="378.1818181818182" y="236.36363636363637" width="47.27272727272727" height="47.27272727272727" fill="#ffffff"/><rect x="378.18" y="236.36" width="23.64" height="23.64" fill="#fecaca"/><path d="M 378.18 236.36 A 23.64 23.64 0 0 1 401.82 260 L 378.18 260" fill="#fec1c1"/><rect x="401.82" y="236.36" width="23.64" height="23.64" fill="#fe8e8e"/><path d="M 401.82 260 A 23.64 23.64 0 0 1  425.46 236.36 L 425.46 260" fill="#dfe5ef"/><rect x="378.18" y="260" width="23.64" height="23.64" fill="#f7f9fb"/><path d="M 378.18 283.64 A 23.64 23.64 0 0 0 401.82 260 L 378.18 260" fill="#f9fafc"/><rect x="401.82" y="260" width="23.64" height="23.64" fill="#f3f5f9"/><path d="M 401.82 260 A 23.64 23.64 0 0 0 425.46 283.64 L 425.46 260" fill="#ffcdcd"/><rect x="425.45" y="236.36" width="47.27" height="47.27" fill="#fe7777"/><path d="M 425.45 236.36 A 47.27 47.27 0 0 1  472.71999999999997 283.63 L 425.45 236.36 A 47.27 47.27 0 0 0 472.71999999999997 283.63" fill="#fe9a9a"/><rect x="472.72727272727275" y="236.36363636363637" width="47.27272727272727" height="47.27272727272727" fill="#ffffff"/><rect x="472.73" y="236.36" width="23.64" height="23.64" fill="#e3e9f2"/><polygon points="472.73,236.36 496.37,236.36 472.73,260" fill="#fe6b6b"/><rect x="496.36" y="236.36" width="23.64" height="23.64" fill="#c8d3e4"/><polygon points="496.36,236.36 520,236.36 520,260" fill="#eff2f7"/><rect x="472.73" y="260" width="23.64" height="23.64" fill="#e3e9f2"/><polygon points="472.73,260 496.37,283.64 472.73,283.64" fill="#fe8080"/><rect x="496.36" y="260" width="23.64" height="23.64" fill="#c5d1e3"/><polygon points="520,260 520,283.64 496.36,283.64" fill="#d4dcea"/><rect x="520" y="236.36363636363637" width="47.27272727272727" height="47.27272727272727" fill="#ffffff"/><rect x="520" y="236.36" width="23.64" height="23.64" fill="#d9e1ed"/><path d="M 520 260 A 23.64 23.64 0 0 1 543.64 236.36 L 543.64 242.27 A 17.73 17.73 0 0 0 525.91 260" fill="#cad5e6"/><rect x="543.64" y="236.36" width="23.64" height="23.64" fill="#f7f8fb"/><path d="M 543.64 236.36 A 23.64 23.64 0 0 1 567.28 260 L 561.37 260 A 17.73 17.73 0 0 0 543.64 242.27" fill="#f3f5f9"/><rect x="520" y="260" width="23.64" height="23.64" fill="#d2dbe9"/><path d="M 520 260 A 23.64 23.64 0 0 0 543.64 283.64 L 543.64 277.73 A 17.73 17.73 0 0 1 525.91 260" fill="#feb1b1"/><rect x="543.64" y="260" width="23.64" height="23.64" fill="#fea9a9"/><path d="M 543.64 283.64 A 23.64 23.64 0 0 0 567.28 260 L 561.37 260 A 17.73 17.73 0 0 1 543.64 277.73" fill="#fffdfd"/><rect x="567.27" y="236.36" width="47.27" height="47.27" fill="#eff3f7"/><rect x="567.27" y="236.36" width="47.27" height="47.27" fill="#fd5757"/><rect x="614.55" y="236.36" width="47.27" height="47.27" fill="#e6ebf3"/><polygon points="661.8199999999999,236.36 661.8199999999999,283.63 614.55,283.63" fill="#e2e7f1"/><rect x="661.8181818181819" y="236.36363636363637" width="47.27272727272727" height="47.27272727272727" fill="#ffffff"/><rect x="661.82" y="236.36" width="23.64" height="23.64" fill="#fe8b8b"/><path d="M 661.82 260 A 23.64 23.64 0 0 1 685.46 236.36 L 685.46 242.27 A 17.73 17.73 0 0 0 667.73 260" fill="#eff2f7"/><rect x="685.45" y="236.36" width="23.64" height="23.64" fill="#c9d4e5"/><path d="M 685.45 236.36 A 23.64 23.64 0 0 1 709.09 260 L 703.1800000000001 260 A 17.73 17.73 0 0 0 685.45 242.27" fill="#e5eaf2"/><rect x="661.82" y="260" width="23.64" height="23.64" fill="#eaeef5"/><path d="M 661.82 260 A 23.64 23.64 0 0 0 685.46 283.64 L 685.46 277.73 A 17.73 17.73 0 0 1 667.73 260" fill="#f9fafc"/><rect x="685.45" y="260" width="23.64" height="23.64" fill="#cad4e5"/><path d="M 685.45 283.64 A 23.64 23.64 0 0 0 709.09 260 L 703.1800000000001 260 A 17.73 17.73 0 0 1 685.45 277.73" fill="#fec5c5"/><rect x="0" y="283.64" width="47.27" height="47.27" fill="#f9fafc"/><rect x="0" y="283.64" width="47.27" height="47.27" fill="#ffcdcd"/><rect x="47.27272727272727" y="283.6363636363636" width="47.27272727272727" height="47.27272727272727" fill="#ffffff"/><rect x="47.27" y="283.64" width="23.64" height="23.64" fill="#cfd9e8"/><path d="M 47.27 307.28 A 23.64 23.64 0 0 1 70.91 283.64 L 70.91 289.55 A 17.73 17.73 0 0 0 53.18000000000001 307.28" fill="#ffdbdb"/><rect x="70.91" y="283.64" width="23.64" height="23.64" fill="#ced8e7"/><path d="M 70.91 283.64 A 23.64 23.64 0 0 1 94.55 307.28 L 88.64 307.28 A 17.73 17.73 0 0 0 70.91 289.55" fill="#e4e9f2"/><rect x="47.27" y="307.27" width="23.64" height="23.64" fill="#fd3030"/><path d="M 47.27 307.27 A 23.64 23.64 0 0 0 70.91 330.90999999999997 L 70.91 325 A 17.73 17.73 0 0 1 53.18000000000001 307.27" fill="#fe7171"/><rect x="70.91" y="307.27" width="23.64" height="23.64" fill="#fea5a5"/><path d="M 70.91 330.90999999999997 A 23.64 23.64 0 0 0 94.55 307.27 L 88.64 307.27 A 17.73 17.73 0 0 1 70.91 325" fill="#fe6969"/><rect x="94.55" y="283.64" width="47.27" height="47.27" fill="#fff3f3"/><rect x="94.55" y="283.64" width="47.27" height="47.27" fill="#f0f3f8"/><rect x="141.8181818181818" y="283.6363636363636" width="47.27272727272727" height="47.27272727272727" fill="#ffffff"/><rect x="141.82" y="283.64" width="23.64" height="23.64" fill="#fea0a0"/><polygon points="141.82,283.64 165.45999999999998,283.64 141.82,307.28" fill="#fd3232"/><rect x="165.45" y="283.64" width="23.64" height="23.64" fill="#f6f8fb"/><polygon points="165.45,283.64 189.08999999999997,283.64 189.08999999999997,307.28" fill="#fec5c5"/><rect x="141.82" y="307.27" width="23.64" height="23.64" fill="#fe8b8b"/><polygon points="141.82,307.27 165.45999999999998,330.90999999999997 141.82,330.90999999999997" fill="#dfe5ef"/><rect x="165.45" y="307.27" width="23.64" height="23.64" fill="#fe9898"/><polygon points="189.08999999999997,307.27 189.08999999999997,330.90999999999997 165.45,330.90999999999997" fill="#f0f3f8"/><rect x="189.09" y="283.64" width="47.27" height="47.27" fill="#fd5555"/><polygon points="189.09,283.64 236.36,283.64 236.36,330.90999999999997" fill="#ced8e7"/><rect x="236.36363636363637" y="283.6363636363636" width="47.27272727272727" height="47.27272727272727" fill="#ffffff"/><rect x="236.36" y="283.64" width="23.64" height="23.64" fill="#f0f3f8"/><path d="M 236.36 283.64 A 23.64 23.64 0 0 1 260 307.28 L 236.36 307.28" fill="#fe7171"/><rect x="260" y="283.64" width="23.64" height="23.64" fill="#dae1ed"/><path d="M 260 307.28 A 23.64 23.64 0 0 1  283.64 283.64 L 283.64 307.28" fill="#f1f3f8"/><rect x="236.36" y="307.27" width="23.64" height="23.64" fill="#fd3131"/><path d="M 236.36 330.90999999999997 A 23.64 23.64 0 0 0 260 307.27 L 236.36 307.27" fill="#e1e7f0"/><rect x="260" y="307.27" width="23.64" height="23.64" fill="#e2e7f1"/><path d="M 260 307.27 A 23.64 23.64 0 0 0 283.64 330.90999999999997 L 283.64 307.27" fill="#fec3c3"/><rect x="283.6363636363636" y="283.6363636363636" width="47.27272727272727" height="47.27272727272727" fill="#ffffff"/><rect x="283.64" y="283.64" width="23.64" height="23.64" fill="#fe7777"/><circle cx="295.46" cy="295.46" r="11.82" fill="#fffafa"/><rect x="307.27" y="283.64" width="23.64" height="23.64" fill="#d1dbe9"/><rect x="307.27" y="283.64" width="23.64" height="23.64" fill="#fd4d4d"/><rect x="283.64" y="307.27" width="23.64" height="23.64" fill="#fe8888"/><circle cx="295.46" cy="319.09" r="11.82" fill="#ffdada"/><rect x="307.27" y="307.27" width="23.64" height="23.64" fill="#fec4c4"/><rect x="307.27" y="307.27" width="23.64" height="23.64" fill="#fffdfd"/><rect x="330.90909090909093" y="283.6363636363636" width="47.27272727272727" height="47.27272727272727" fill="#ffffff"/><rect x="330.91" y="283.64" width="23.64" height="23.64" fill="#ffd3d3"/><path d="M 330.91 307.28 A 23.64 23.64 0 0 0 354.55 283.64 L 330.91 283.64" fill="#ffe5e5"/><rect x="354.55" y="283.64" width="23.64" height="23.64" fill="#fbfcfd"/><path d="M 354.55 283.64 A 23.64 23.64 0 0 0 378.19 307.28 L 378.19 283.64" fill="#c8d3e5"/><rect x="330.91" y="307.27" width="23.64" height="23.64" fill="#eff3f7"/><path d="M 330.91 307.27 A 23.64 23.64 0 0 1 354.55 330.90999999999997 L 330.91 330.90999999999997" fill="#e9eef5"/><rect x="354.55" y="307.27" width="23.64" height="23.64" fill="#feb7b7"/><path d="M 354.55 330.90999999999997 A 23.64 23.64 0 0 1  378.19 307.27 L 378.19 330.90999999999997" fill="#ebeff5"/><rect x="378.18" y="283.64" width="47.27" height="47.27" fill="#fd4242"/><path d="M 378.18 330.90999999999997 A 47.27 47.27 0 0 0 425.45 283.64 L 378.18 283.64" fill="#e5ebf3"/><rect x="425.45454545454544" y="283.6363636363636" width="47.27272727272727" height="47.27272727272727" fill="#ffffff"/><rect x="425.45" y="283.64" width="23.64" height="23.64" fill="#e3e8f1"/><polygon points="425.45,283.64 449.09,283.64 425.45,307.28" fill="#fe6767"/><rect x="449.09" y="283.64" width="23.64" height="23.64" fill="#fe9090"/><polygon points="449.09,283.64 472.72999999999996,283.64 472.72999999999996,307.28" fill="#fd2e2e"/><rect x="425.45" y="307.27" width="23.64" height="23.64" fill="#d9e0ec"/><polygon points="449.09,307.27 449.09,330.90999999999997 425.45,330.90999999999997" fill="#c4d0e2"/><rect x="449.09" y="307.27" width="23.64" height="23.64" fill="#f4f6fa"/><polygon points="449.09,307.27 472.72999999999996,330.90999999999997 449.09,330.90999999999997" fill="#fafbfd"/><rect x="472.73" y="283.64" width="47.27" height="47.27" fill="#e4eaf2"/><path d="M 472.73 330.90999999999997 A 47.27 47.27 0 0 1  520 283.64 L 472.73 330.90999999999997 A 47.27 47.27 0 0 0 520 283.64" fill="#feafaf"/><rect x="520" y="283.64" width="47.27" height="47.27" fill="#fe6868"/><path d="M 520 283.64 A 47.27 47.27 0 0 1  567.27 330.90999999999997 L 520 283.64 A 47.27 47.27 0 0 0 567.27 330.90999999999997" fill="#f2f4f9"/><rect x="567.27" y="283.64" width="47.27" height="47.27" fill="#ffe5e5"/><polygon points="614.54,283.64 614.54,330.90999999999997 567.27,330.90999999999997" fill="#dce3ee"/><rect x="614.55" y="283.64" width="47.27" height="47.27" fill="#fd3535"/><polygon points="614.55,283.64 661.8199999999999,283.64 661.8199999999999,330.90999999999997" fill="#fff7f7"/><rect x="661.82" y="283.64" width="47.27" height="47.27" fill="#f5f7fa"/><polygon points="709.09,283.64 709.09,330.90999999999997 661.82,330.90999999999997" fill="#fd2f2f"/><rect x="0" y="330.90909090909093" width="47.27272727272727" height="47.27272727272727" fill="#ffffff"/><rect x="0" y="330.91" width="23.64" height="23.64" fill="#f4f6fa"/><polygon points="0,330.91 23.64,330.91 0,354.55" fill="#fe6565"/><rect x="23.64" y="330.91" width="23.64" height="23.64" fill="#fdfdfe"/><polygon points="47.28,330.91 47.28,354.55 23.64,354.55" fill="#dde3ee"/><rect x="0" y="354.55" width="23.64" height="23.64" fill="#eff3f7"/><polygon points="0,354.55 23.64,354.55 23.64,378.19" fill="#fe8181"/><rect x="23.64" y="354.55" width="23.64" height="23.64" fill="#e1e7f0"/><polygon points="23.64,354.55 47.28,378.19 23.64,378.19" fill="#fd5555"/><rect x="47.27" y="330.91" width="47.27" height="47.27" fill="#fe7373"/><rect x="47.27" y="330.91" width="47.27" height="47.27" fill="#fe6f6f"/><rect x="94.54545454545455" y="330.90909090909093" width="47.27272727272727" height="47.27272727272727" fill="#ffffff"/><rect x="94.55" y="330.91" width="23.64" height="23.64" fill="#fe8080"/><circle cx="106.37" cy="342.73" r="11.82" fill="#fe8585"/><rect x="118.18" y="330.91" width="23.64" height="23.64" fill="#fec3c3"/><rect x="118.18" y="330.91" width="23.64" height="23.64" fill="#fe6868"/><rect x="94.55" y="354.55" width="23.64" height="23.64" fill="#f0f3f8"/><circle cx="106.37" cy="366.37" r="11.82" fill="#fe9d9d"/><rect x="118.18" y="354.55" width="23.64" height="23.64" fill="#f7f8fb"/><rect x="118.18" y="354.55" width="23.64" height="23.64" fill="#e4e9f2"/><rect x="141.82" y="330.91" width="47.27" height="47.27" fill="#d5ddeb"/><polygon points="189.09,330.91 189.09,378.18 141.82,378.18" fill="#e5eaf2"/><rect x="189.09" y="330.91" width="47.27" height="47.27" fill="#feb5b5"/><polygon points="189.09,330.91 236.36,330.91 236.36,378.18" fill="#fffcfc"/><rect x="236.36" y="330.91" width="47.27" height="47.27" fill="#ffcfcf"/><polygon points="236.36,330.91 283.63,330.91 236.36,378.18" fill="#fe9494"/><rect x="283.64" y="330.91" width="47.27" height="47.27" fill="#f1f4f8"/><rect x="283.64" y="330.91" width="47.27" height="47.27" fill="#fd6161"/><rect x="330.90909090909093" y="330.90909090909093" width="47.27272727272727" height="47.27272727272727" fill="#ffffff"/><rect x="330.91" y="330.91" width="23.64" height="23.64" fill="#fd6262"/><polygon points="330.91,330.91 354.55,330.91 330.91,354.55" fill="#febaba"/><rect x="354.55" y="330.91" width="23.64" height="23.64" fill="#fec5c5"/><polygon points="378.19,330.91 378.19,354.55 354.55,354.55" fill="#fd4949"/><rect x="330.91" y="354.55" width="23.64" height="23.64" fill="#eff3f7"/><polygon points="330.91,354.55 354.55,354.55 354.55,378.19" fill="#ffe9e9"/><rect x="354.55" y="354.55" width="23.64" height="23.64" fill="#c9d4e5"/><polygon points="354.55,354.55 378.19,378.19 354.55,378.19" fill="#ebeff5"/><rect x="378.1818181818182" y="330.90909090909093" width="47.27272727272727" height="47.27272727272727" fill="#ffffff"/><rect x="378.18" y="330.91" width="23.64" height="23.64" fill="#fe7575"/><path d="M 378.18 330.91 A 23.64 23.64 0 0 1 401.82 354.55 L 378.18 354.55" fill="#fec2c2"/><rect x="401.82" y="330.91" width="23.64" height="23.64" fill="#c7d2e4"/><path d="M 401.82 354.55 A 23.64 23.64 0 0 1  425.46 330.91 L 425.46 354.55" fill="#feb9b9"/><rect x="378.18" y="354.55" width="23.64" height="23.64" fill="#fe8383"/><path d="M 378.18 378.19 A 23.64 23.64 0 0 0 401.82 354.55 L 378.18 354.55" fill="#f6f8fb"/><rect x="401.82" y="354.55" width="23.64" height="23.64" fill="#fffbfb"/><path d="M 401.82 354.55 A 23.64 23.64 0 0 0 425.46 378.19 L 425.46 354.55" fill="#ffd5d5"/><rect x="425.45" y="330.91" width="47.27" height="47.27" fill="#c9d4e5"/><polygon points="425.45,330.91 472.71999999999997,330.91 425.45,378.18" fill="#e3e9f2"/><rect x="472.73" y="330.91" width="47.27" height="47.27" fill="#fd4040"/><rect x="472.73" y="330.91" width="47.27" height="47.27" fill="#ebeff5"/><rect x="520" y="330.91" width="47.27" height="47.27" fill="#e6ebf3"/><path d="M 520 378.18 A 47.27 47.27 0 0 1  567.27 330.91 L 567.27 378.18" fill="#f9fafc"/><rect x="567.2727272727273" y="330.90909090909093" width="47.27272727272727" height="47.27272727272727" fill="#ffffff"/><rect x="567.27" y="330.91" width="23.64" height="23.64" fill="#f5f7fa"/><polygon points="567.27,330.91 590.91,330.91 567.27,354.55" fill="#d4dcea"/><rect x="590.91" y="330.91" width="23.64" height="23.64" fill="#f9fafc"/><polygon points="590.91,330.91 614.55,330.91 614.55,354.55" fill="#dbe2ed"/><rect x="567.27" y="354.55" width="23.64" height="23.64" fill="#e3e8f1"/><polygon points="590.91,354.55 590.91,378.19 567.27,378.19" fill="#c3cfe2"/><rect x="590.91" y="354.55" width="23.64" height="23.64" fill="#f5f7fa"/><polygon points="590.91,354.55 614.55,378.19 590.91,378.19" fill="#fe7373"/><rect x="614.5454545454545" y="330.90909090909093" width="47.27272727272727" height="47.27272727272727" fill="#ffffff"/><rect x="614.55" y="330.91" width="23.64" height="23.64" fill="#fe7272"/><path d="M 614.55 330.91 A 23.64 23.64 0 0 1 638.1899999999999 354.55 L 614.55 354.55" fill="#ffe0e0"/><rect x="638.18" y="330.91" width="23.64" height="23.64" fill="#e1e7f1"/><path d="M 638.18 354.55 A 23.64 23.64 0 0 1  661.8199999999999 330.91 L 661.8199999999999 354.55" fill="#fe6363"/><rect x="614.55" y="354.55" width="23.64" height="23.64" fill="#fbfcfd"/><path d="M 614.55 378.19 A 23.64 23.64 0 0 0 638.1899999999999 354.55 L 614.55 354.55" fill="#f6f8fb"/><rect x="638.18" y="354.55" width="23.64" height="23.64" fill="#e5eaf3"/><path d="M 638.18 354.55 A 23.64 23.64 0 0 0 661.8199999999999 378.19 L 661.8199999999999 354.55" fill="#fd5757"/><rect x="661.8181818181819" y="330.90909090909093" width="47.27272727272727" height="47.27272727272727" fill="#ffffff"/><rect x="661.82" y="330.91" width="23.64" height="23.64" fill="#cdd7e7"/><polygon points="661.82,330.91 685.46,330.91 661.82,354.55" fill="#ffecec"/><rect x="685.45" y="330.91" width="23.64" height="23.64" fill="#dee4ef"/><polygon points="709.09,330.91 709.09,354.55 685.45,354.55" fill="#fd5f5f"/><rect x="661.82" y="354.55" width="23.64" height="23.64" fill="#d0d9e8"/><polygon points="661.82,354.55 685.46,354.55 685.46,378.19" fill="#fafbfd"/><rect x="685.45" y="354.55" width="23.64" height="23.64" fill="#feb6b6"/><polygon points="685.45,354.55 709.09,378.19 685.45,378.19" fill="#f5f7fa"/><rect x="0" y="378.1818181818182" width="47.27272727272727" height="47.27272727272727" fill="#ffffff"/><rect x="0" y="378.18" width="23.64" height="23.64" fill="#f3f5f9"/><polygon points="0,378.18 23.64,378.18 0,401.82" fill="#d7dfeb"/><rect x="23.64" y="378.18" width="23.64" height="23.64" fill="#dee4ef"/><polygon points="47.28,378.18 47.28,401.82 23.64,401.82" fill="#ffefef"/><rect x="0" y="401.82" width="23.64" height="23.64" fill="#fe8d8d"/><polygon points="0,401.82 23.64,401.82 23.64,425.46" fill="#d2dbe9"/><rect x="23.64" y="401.82" width="23.64" height="23.64" fill="#d4dcea"/><polygon points="23.64,401.82 47.28,425.46 23.64,425.46" fill="#e3e9f1"/><rect x="47.27272727272727" y="378.1818181818182" width="47.27272727272727" height="47.27272727272727" fill="#ffffff"/><rect x="47.27" y="378.18" width="23.64" height="23.64" fill="#febbbb"/><polygon points="47.27,378.18 70.91,378.18 47.27,401.82" fill="#ffcccc"/><rect x="70.91" y="378.18" width="23.64" height="23.64" fill="#eaeef5"/><polygon points="94.55,378.18 94.55,401.82 70.91,401.82" fill="#f9fafc"/><rect x="47.27" y="401.82" width="23.64" height="23.64" fill="#fd4a4a"/><polygon points="47.27,401.82 70.91,401.82 70.91,425.46" fill="#f1f4f8"/><rect x="70.91" y="401.82" width="23.64" height="23.64" fill="#fe9494"/><polygon points="70.91,401.82 94.55,425.46 70.91,425.46" fill="#edf1f6"/><rect x="94.55" y="378.18" width="47.27" height="47.27" fill="#f3f5f9"/><path d="M 94.55 378.18 A 47.27 47.27 0 0 1 141.82 425.45 L 94.55 425.45" fill="#ffd2d2"/><rect x="141.8181818181818" y="378.1818181818182" width="47.27272727272727" height="47.27272727272727" fill="#ffffff"/><rect x="141.82" y="378.18" width="23.64" height="23.64" fill="#eff2f7"/><path d="M 141.82 401.82 A 23.64 23.64 0 0 1  165.45999999999998 378.18 L 165.45999999999998 401.82" fill="#fe6565"/><rect x="165.45" y="378.18" width="23.64" height="23.64" fill="#fd3737"/><path d="M 165.45 378.18 A 23.64 23.64 0 0 1 189.08999999999997 401.82 L 165.45 401.82" fill="#ffdede"/><rect x="141.82" y="401.82" width="23.64" height="23.64" fill="#ffdddd"/><path d="M 141.82 401.82 A 23.64 23.64 0 0 0 165.45999999999998 425.46 L 165.45999999999998 401.82" fill="#dee5ef"/><rect x="165.45" y="401.82" width="23.64" height="23.64" fill="#fe7676"/><path d="M 165.45 425.46 A 23.64 23.64 0 0 0 189.08999999999997 401.82 L 165.45 401.82" fill="#cfd9e8"/><rect x="189.09" y="378.18" width="47.27" height="47.27" fill="#fe6b6b"/><rect x="189.09" y="378.18" width="47.27" height="47.27" fill="#ffdcdc"/><rect x="236.36" y="378.18" width="47.27" height="47.27" fill="#cfd8e8"/><path d="M 236.36 378.18 A 47.27 47.27 0 0 1 283.63 425.45 L 236.36 425.45" fill="#ffdbdb"/><rect x="283.64" y="378.18" width="47.27" height="47.27" fill="#dbe2ed"/><path d="M 283.64 425.45 A 47.27 47.27 0 0 0 330.90999999999997 378.18 L 283.64 378.18" fill="#fe6969"/><rect x="330.91" y="378.18" width="47.27" height="47.27" fill="#fec0c0"/><path d="M 330.91 425.45 A 47.27 47.27 0 0 1  378.18 378.18 L 330.91 425.45 A 47.27 47.27 0 0 0 378.18 378.18" fill="#ffdede"/><rect x="378.18" y="378.18" width="47.27" height="47.27" fill="#fd5959"/><path d="M 378.18 425.45 A 47.27 47.27 0 0 1  425.45 378.18 L 425.45 425.45" fill="#eff2f7"/><rect x="425.45" y="378.18" width="47.27" height="47.27" fill="#c5d0e3"/><rect x="425.45" y="378.18" width="47.27" height="47.27" fill="#e9edf4"/><rect x="472.72727272727275" y="378.1818181818182" width="47.27272727272727" height="47.27272727272727" fill="#ffffff"/><rect x="472.73" y="378.18" width="23.64" height="23.64" fill="#fe6565"/><polygon points="472.73,378.18 496.37,378.18 472.73,401.82" fill="#cdd7e7"/><rect x="496.36" y="378.18" width="23.64" height="23.64" fill="#ffdcdc"/><polygon points="520,378.18 520,401.82 496.36,401.82" fill="#feaeae"/><rect x="472.73" y="401.82" width="23.64" height="23.64" fill="#fd4949"/><polygon points="472.73,401.82 496.37,401.82 496.37,425.46" fill="#fd5151"/><rect x="496.36" y="401.82" width="23.64" height="23.64" fill="#ffeded"/><polygon points="496.36,401.82 520,425.46 496.36,425.46" fill="#ffe2e2"/><rect x="520" y="378.1818181818182" width="47.27272727272727" height="47.27272727272727" fill="#ffffff"/><rect x="520" y="378.18" width="23.64" height="23.64" fill="#dee5ef"/><path d="M 520 378.18 A 23.64 23.64 0 0 1 543.64 401.82 L 520 401.82" fill="#dee4ef"/><rect x="543.64" y="378.18" width="23.64" height="23.64" fill="#ced8e7"/><path d="M 543.64 401.82 A 23.64 23.64 0 0 1  567.28 378.18 L 567.28 401.82" fill="#f8f9fc"/><rect x="520" y="401.82" width="23.64" height="23.64" fill="#feadad"/><path d="M 520 425.46 A 23.64 23.64 0 0 0 543.64 401.82 L 520 401.82" fill="#feb9b9"/><rect x="543.64" y="401.82" width="23.64" height="23.64" fill="#fe6a6a"/><path d="M 543.64 401.82 A 23.64 23.64 0 0 0 567.28 425.46 L 567.28 401.82" fill="#fd5656"/><rect x="567.2727272727273" y="378.1818181818182" width="47.27272727272727" height="47.27272727272727" fill="#ffffff"/><rect x="567.27" y="378.18" width="23.64" height="23.64" fill="#c5d1e3"/><polygon points="567.27,378.18 590.91,378.18 567.27,401.82" fill="#feabab"/><rect x="590.91" y="378.18" width="23.64" height="23.64" fill="#fd3030"/><polygon points="590.91,378.18 614.55,378.18 614.55,401.82" fill="#d0dae8"/><rect x="567.27" y="401.82" width="23.64" height="23.64" fill="#fe6d6d"/><polygon points="567.27,401.82 590.91,425.46 567.27,425.46" fill="#fd3737"/><rect x="590.91" y="401.82" width="23.64" height="23.64" fill="#fe6666"/><polygon points="614.55,401.82 614.55,425.46 590.91,425.46" fill="#fafbfc"/><rect x="614.55" y="378.18" width="47.27" height="47.27" fill="#ffffff"/><polygon points="614.55,378.18 661.8199999999999,378.18 661.8199999999999,425.45" fill="#f4f6fa"/><rect x="661.8181818181819" y="378.1818181818182" width="47.27272727272727" height="47.27272727272727" fill="#ffffff"/><rect x="661.82" y="378.18" width="23.64" height="23.64" fill="#fd3030"/><path d="M 661.82 401.82 A 23.64 23.64 0 0 1  685.46 378.18 L 685.46 401.82" fill="#fd3b3b"/><rect x="685.45" y="378.18" width="23.64" height="23.64" fill="#ffe7e7"/><path d="M 685.45 378.18 A 23.64 23.64 0 0 1 709.09 401.82 L 685.45 401.82" fill="#e2e8f1"/><rect x="661.82" y="401.82" width="23.64" height="23.64" fill="#fd5a5a"/><path d="M 661.82 401.82 A 23.64 23.64 0 0 0 685.46 425.46 L 685.46 401.82" fill="#cfd8e8"/><rect x="685.45" y="401.82" width="23.64" height="23.64" fill="#fea9a9"/><path d="M 685.45 425.46 A 23.64 23.64 0 0 0 709.09 401.82 L 685.45 401.82" fill="#fd5c5c"/><rect x="0" y="425.45" width="47.27" height="47.27" fill="#d7dfec"/><polygon points="47.27,425.45 47.27,472.71999999999997 0,472.71999999999997" fill="#f6f8fb"/><rect x="47.27272727272727" y="425.45454545454544" width="47.27272727272727" height="47.27272727272727" fill="#ffffff"/><rect x="47.27" y="425.45" width="23.64" height="23.64" fill="#f4f6fa"/><polygon points="47.27,425.45 70.91,425.45 47.27,449.09" fill="#fcfcfd"/><rect x="70.91" y="425.45" width="23.64" height="23.64" fill="#dfe5ef"/><polygon points="94.55,425.45 94.55,449.09 70.91,449.09" fill="#fea6a6"/><rect x="47.27" y="449.09" width="23.64" height="23.64" fill="#f9fbfc"/><polygon points="47.27,449.09 70.91,449.09 70.91,472.72999999999996" fill="#e5ebf3"/><rect x="70.91" y="449.09" width="23.64" height="23.64" fill="#d6deeb"/><polygon points="70.91,449.09 94.55,472.72999999999996 70.91,472.72999999999996" fill="#e6ebf3"/><rect x="94.55" y="425.45" width="47.27" height="47.27" fill="#ccd6e6"/><rect x="94.55" y="425.45" width="47.27" height="47.27" fill="#fd3333"/><rect x="141.8181818181818" y="425.45454545454544" width="47.27272727272727" height="47.27272727272727" fill="#ffffff"/><rect x="141.82" y="425.45" width="23.64" height="23.64" fill="#d6deeb"/><path d="M 141.82 449.09 A 23.64 23.64 0 0 1  165.45999999999998 425.45 L 165.45999999999998 449.09" fill="#f9fbfc"/><rect x="165.45" y="425.45" width="23.64" height="23.64" fill="#dee5ef"/><path d="M 165.45 425.45 A 23.64 23.64 0 0 1 189.08999999999997 449.09 L 165.45 449.09" fill="#c7d2e4"/><rect x="141.82" y="449.09" width="23.64" height="23.64" fill="#fdfefe"/><path d="M 141.82 449.09 A 23.64 23.64 0 0 0 165.45999999999998 472.72999999999996 L 165.45999999999998 449.09" fill="#e7ecf4"/><rect x="165.45" y="449.09" width="23.64" height="23.64" fill="#c8d3e4"/><path d="M 165.45 472.72999999999996 A 23.64 23.64 0 0 0 189.08999999999997 449.09 L 165.45 449.09" fill="#fe7474"/><rect x="189.0909090909091" y="425.45454545454544" width="47.27272727272727" height="47.27272727272727" fill="#ffffff"/><rect x="189.09" y="425.45" width="23.64" height="23.64" fill="#fecaca"/><path d="M 189.09 449.09 A 23.64 23.64 0 0 0 212.73000000000002 425.45 L 189.09 425.45" fill="#fea9a9"/><rect x="212.73" y="425.45" width="23.64" height="23.64" fill="#fd4343"/><path d="M 212.73 425.45 A 23.64 23.64 0 0 0 236.37 449.09 L 236.37 425.45" fill="#c7d2e4"/><rect x="189.09" y="449.09" width="23.64" height="23.64" fill="#d0dae8"/><path d="M 189.09 449.09 A 23.64 23.64 0 0 1 212.73000000000002 472.72999999999996 L 189.09 472.72999999999996" fill="#c8d3e4"/><rect x="212.73" y="449.09" width="23.64" height="23.64" fill="#f5f7fa"/><path d="M 212.73 472.72999999999996 A 23.64 23.64 0 0 1  236.37 449.09 L 236.37 472.72999999999996" fill="#eef1f7"/><rect x="236.36" y="425.45" width="47.27" height="47.27" fill="#c6d1e3"/><rect x="236.36" y="425.45" width="47.27" height="47.27" fill="#ffeaea"/><rect x="283.64" y="425.45" width="47.27" height="47.27" fill="#e4eaf2"/><polygon points="283.64,425.45 330.90999999999997,425.45 330.90999999999997,472.71999999999997" fill="#f7f9fb"/><rect x="330.91" y="425.45" width="47.27" height="47.27" fill="#fd3b3b"/><polygon points="330.91,425.45 378.18,425.45 330.91,472.71999999999997" fill="#feaaaa"/><rect x="378.1818181818182" y="425.45454545454544" width="47.27272727272727" height="47.27272727272727" fill="#ffffff"/><rect x="378.18" y="425.45" width="23.64" height="23.64" fill="#fe7878"/><polygon points="378.18,425.45 401.82,425.45 378.18,449.09" fill="#fd5b5b"/><rect x="401.82" y="425.45" width="23.64" height="23.64" fill="#fd5858"/><polygon points="401.82,425.45 425.46,425.45 425.46,449.09" fill="#c8d3e4"/><rect x="378.18" y="449.09" width="23.64" height="23.64" fill="#f2f5f9"/><polygon points="401.82,449.09 401.82,472.72999999999996 378.18,472.72999999999996" fill="#fec3c3"/><rect x="401.82" y="449.09" width="23.64" height="23.64" fill="#e1e7f1"/><polygon points="401.82,449.09 425.46,472.72999999999996 401.82,472.72999999999996" fill="#feb6b6"/><rect x="425.45454545454544" y="425.45454545454544" width="47.27272727272727" height="47.27272727272727" fill="#ffffff"/><rect x="425.45" y="425.45" width="23.64" height="23.64" fill="#ecf0f6"/><polygon points="425.45,425.45 449.09,425.45 425.45,449.09" fill="#fd4c4c"/><rect x="449.09" y="425.45" width="23.64" height="23.64" fill="#ffe5e5"/><polygon points="472.72999999999996,425.45 472.72999999999996,449.09 449.09,449.09" fill="#d3dcea"/><rect x="425.45" y="449.09" width="23.64" height="23.64" fill="#e6ebf3"/><polygon points="425.45,449.09 449.09,449.09 449.09,472.72999999999996" fill="#fd4c4c"/><rect x="449.09" y="449.09" width="23.64" height="23.64" fill="#e7ecf3"/><polygon points="449.09,449.09 472.72999999999996,472.72999999999996 449.09,472.72999999999996" fill="#ffe9e9"/><rect x="472.73" y="425.45" width="47.27" height="47.27" fill="#fafbfd"/><polygon points="472.73,425.45 520,425.45 472.73,472.71999999999997" fill="#e3e9f2"/><rect x="520" y="425.45454545454544" width="47.27272727272727" height="47.27272727272727" fill="#ffffff"/><rect x="520" y="425.45" width="23.64" height="23.64" fill="#feb5b5"/><polygon points="520,425.45 543.64,425.45 520,449.09" fill="#fe8282"/><rect x="543.64" y="425.45" width="23.64" height="23.64" fill="#c4d0e3"/><polygon points="543.64,425.45 567.28,425.45 567.28,449.09" fill="#f9fbfc"/><rect x="520" y="449.09" width="23.64" height="23.64" fill="#fe9999"/><polygon points="543.64,449.09 543.64,472.72999999999996 520,472.72999999999996" fill="#d0d9e8"/><rect x="543.64" y="449.09" width="23.64" height="23.64" fill="#fe8d8d"/><polygon points="543.64,449.09 567.28,472.72999999999996 543.64,472.72999999999996" fill="#e6ebf3"/><rect x="567.27" y="425.45" width="47.27" height="47.27" fill="#fe9d9d"/><path d="M 567.27 425.45 A 47.27 47.27 0 0 1  614.54 472.71999999999997 L 567.27 425.45 A 47.27 47.27 0 0 0 614.54 472.71999999999997" fill="#fe6666"/><rect x="614.5454545454545" y="425.45454545454544" width="47.27272727272727" height="47.27272727272727" fill="#ffffff"/><rect x="614.55" y="425.45" width="23.64" height="23.64" fill="#edf0f6"/><polygon points="614.55,425.45 638.1899999999999,425.45 614.55,449.09" fill="#cdd7e7"/><rect x="638.18" y="425.45" width="23.64" height="23.64" fill="#fd3a3a"/><polygon points="638.18,425.45 661.8199999999999,425.45 661.8199999999999,449.09" fill="#d6deeb"/><rect x="614.55" y="449.09" width="23.64" height="23.64" fill="#dee4ef"/><polygon points="638.1899999999999,449.09 638.1899999999999,472.72999999999996 614.55,472.72999999999996" fill="#dae1ed"/><rect x="638.18" y="449.09" width="23.64" height="23.64" fill="#fe6c6c"/><polygon points="638.18,449.09 661.8199999999999,472.72999999999996 638.18,472.72999999999996" fill="#e9eef4"/><rect x="661.8181818181819" y="425.45454545454544" width="47.27272727272727" height="47.27272727272727" fill="#ffffff"/><rect x="661.82" y="425.45" width="23.64" height="23.64" fill="#e7ecf3"/><polygon points="661.82,425.45 685.46,425.45 661.82,449.09" fill="#fd3737"/><rect x="685.45" y="425.45" width="23.64" height="23.64" fill="#d1dae9"/><polygon points="685.45,425.45 709.09,425.45 709.09,449.09" fill="#fd4545"/><rect x="661.82" y="449.09" width="23.64" height="23.64" fill="#fe8888"/><polygon points="661.82,449.09 685.46,472.72999999999996 661.82,472.72999999999996" fill="#ffdfdf"/><rect x="685.45" y="449.09" width="23.64" height="23.64" fill="#f6f8fb"/><polygon points="709.09,449.09 709.09,472.72999999999996 685.45,472.72999999999996" fill="#f5f7fa"/><rect x="0" y="472.73" width="47.27" height="47.27" fill="#d1dae9"/><path d="M 0 472.73 A 47.27 47.27 0 0 0 47.27 520 L 47.27 472.73" fill="#f7f9fb"/><rect x="47.27272727272727" y="472.72727272727275" width="47.27272727272727" height="47.27272727272727" fill="#ffffff"/><rect x="47.27" y="472.73" width="23.64" height="23.64" fill="#fe7878"/><path d="M 47.27 496.37 A 23.64 23.64 0 0 1  70.91 472.73 L 70.91 496.37" fill="#fff2f2"/><rect x="70.91" y="472.73" width="23.64" height="23.64" fill="#e7ecf3"/><path d="M 70.91 472.73 A 23.64 23.64 0 0 1 94.55 496.37 L 70.91 496.37" fill="#f9fafc"/><rect x="47.27" y="496.36" width="23.64" height="23.64" fill="#ffdada"/><path d="M 47.27 496.36 A 23.64 23.64 0 0 0 70.91 520 L 70.91 496.36" fill="#fd5757"/><rect x="70.91" y="496.36" width="23.64" height="23.64" fill="#dbe2ee"/><path d="M 70.91 520 A 23.64 23.64 0 0 0 94.55 496.36 L 70.91 496.36" fill="#fe8c8c"/><rect x="94.55" y="472.73" width="47.27" height="47.27" fill="#f8f9fc"/><path d="M 94.55 520 A 47.27 47.27 0 0 1  141.82 472.73 L 94.55 520 A 47.27 47.27 0 0 0 141.82 472.73" fill="#fe8585"/><rect x="141.8181818181818" y="472.72727272727275" width="47.27272727272727" height="47.27272727272727" fill="#ffffff"/><rect x="141.82" y="472.73" width="23.64" height="23.64" fill="#fe7b7b"/><path d="M 141.82 496.37 A 23.64 23.64 0 0 0 165.45999999999998 472.73 L 141.82 472.73" fill="#cdd7e7"/><rect x="165.45" y="472.73" width="23.64" height="23.64" fill="#eff2f7"/><path d="M 165.45 472.73 A 23.64 23.64 0 0 0 189.08999999999997 496.37 L 189.08999999999997 472.73" fill="#fd4545"/><rect x="141.82" y="496.36" width="23.64" height="23.64" fill="#ecf0f6"/><path d="M 141.82 496.36 A 23.64 23.64 0 0 1 165.45999999999998 520 L 141.82 520" fill="#fe7171"/><rect x="165.45" y="496.36" width="23.64" height="23.64" fill="#cbd6e6"/><path d="M 165.45 520 A 23.64 23.64 0 0 1  189.08999999999997 496.36 L 189.08999999999997 520" fill="#fd5353"/><rect x="189.09" y="472.73" width="47.27" height="47.27" fill="#fe6666"/><polygon points="189.09,472.73 236.36,472.73 236.36,520" fill="#fefeff"/><rect x="236.36363636363637" y="472.72727272727275" width="47.27272727272727" height="47.27272727272727" fill="#ffffff"/><rect x="236.36" y="472.73" width="23.64" height="23.64" fill="#e3e9f1"/><polygon points="236.36,472.73 260,472.73 236.36,496.37" fill="#fe8181"/><rect x="260" y="472.73" width="23.64" height="23.64" fill="#dbe2ed"/><polygon points="260,472.73 283.64,472.73 283.64,496.37" fill="#e7ecf3"/><rect x="236.36" y="496.36" width="23.64" height="23.64" fill="#c6d1e3"/><polygon points="260,496.36 260,520 236.36,520" fill="#c4cfe2"/><rect x="260" y="496.36" width="23.64" height="23.64" fill="#dee5ef"/><polygon points="260,496.36 283.64,520 260,520" fill="#fd4646"/><rect x="283.6363636363636" y="472.72727272727275" width="47.27272727272727" height="47.27272727272727" fill="#ffffff"/><rect x="283.64" y="472.73" width="23.64" height="23.64" fill="#feb9b9"/><polygon points="283.64,472.73 307.28,472.73 283.64,496.37" fill="#c8d3e4"/><rect x="307.27" y="472.73" width="23.64" height="23.64" fill="#fdfdfe"/><polygon points="307.27,472.73 330.90999999999997,472.73 330.90999999999997,496.37" fill="#fe8e8e"/><rect x="283.64" y="496.36" width="23.64" height="23.64" fill="#fe6767"/><polygon points="283.64,496.36 307.28,520 283.64,520" fill="#fd5959"/><rect x="307.27" y="496.36" width="23.64" height="23.64" fill="#c4d0e2"/><polygon points="330.90999999999997,496.36 330.90999999999997,520 307.27,520" fill="#edf1f6"/><rect x="330.91" y="472.73" width="47.27" height="47.27" fill="#f2f4f9"/><rect x="330.91" y="472.73" width="47.27" height="47.27" fill="#dee5ef"/><rect x="378.18" y="472.73" width="47.27" height="47.27" fill="#ffe6e6"/><polygon points="378.18,472.73 425.45,472.73 378.18,520" fill="#fea8a8"/><rect x="425.45" y="472.73" width="47.27" height="47.27" fill="#fec5c5"/><polygon points="425.45,472.73 472.71999999999997,520 425.45,520" fill="#fecbcb"/><rect x="472.72727272727275" y="472.72727272727275" width="47.27272727272727" height="47.27272727272727" fill="#ffffff"/><rect x="472.73" y="472.73" width="23.64" height="23.64" fill="#fe7575"/><circle cx="484.55" cy="484.55" r="11.82" fill="#c9d4e5"/><rect x="496.36" y="472.73" width="23.64" height="23.64" fill="#ffcece"/><rect x="496.36" y="472.73" width="23.64" height="23.64" fill="#fd6161"/><rect x="472.73" y="496.36" width="23.64" height="23.64" fill="#cdd7e7"/><circle cx="484.55" cy="508.18" r="11.82" fill="#fe7474"/><rect x="496.36" y="496.36" width="23.64" height="23.64" fill="#ffcdcd"/><rect x="496.36" y="496.36" width="23.64" height="23.64" fill="#ffcece"/><rect x="520" y="472.72727272727275" width="47.27272727272727" height="47.27272727272727" fill="#ffffff"/><rect x="520" y="472.73" width="23.64" height="23.64" fill="#d0dae9"/><path d="M 520 496.37 A 23.64 23.64 0 0 1  543.64 472.73 L 543.64 496.37" fill="#fe8989"/><rect x="543.64" y="472.73" width="23.64" height="23.64" fill="#d6deeb"/><path d="M 543.64 472.73 A 23.64 23.64 0 0 1 567.28 496.37 L 543.64 496.37" fill="#ffdede"/><rect x="520" y="496.36" width="23.64" height="23.64" fill="#fea4a4"/><path d="M 520 496.36 A 23.64 23.64 0 0 0 543.64 520 L 543.64 496.36" fill="#fd4c4c"/><rect x="543.64" y="496.36" width="23.64" height="23.64" fill="#d1dbe9"/><path d="M 543.64 520 A 23.64 23.64 0 0 0 567.28 496.36 L 543.64 496.36" fill="#fd4d4d"/><rect x="567.2727272727273" y="472.72727272727275" width="47.27272727272727" height="47.27272727272727" fill="#ffffff"/><rect x="567.27" y="472.73" width="23.64" height="23.64" fill="#cdd7e7"/><path d="M 567.27 472.73 A 23.64 23.64 0 0 1 590.91 496.37 L 567.27 496.37" fill="#f6f8fb"/><rect x="590.91" y="472.73" width="23.64" height="23.64" fill="#e4e9f2"/><path d="M 590.91 496.37 A 23.64 23.64 0 0 1  614.55 472.73 L 614.55 496.37" fill="#feacac"/><rect x="567.27" y="496.36" width="23.64" height="23.64" fill="#fecaca"/><path d="M 567.27 520 A 23.64 23.64 0 0 0 590.91 496.36 L 567.27 496.36" fill="#ebeff5"/><rect x="590.91" y="496.36" width="23.64" height="23.64" fill="#fec9c9"/><path d="M 590.91 496.36 A 23.64 23.64 0 0 0 614.55 520 L 614.55 496.36" fill="#eef2f7"/><rect x="614.5454545454545" y="472.72727272727275" width="47.27272727272727" height="47.27272727272727" fill="#ffffff"/><rect x="614.55" y="472.73" width="23.64" height="23.64" fill="#febaba"/><path d="M 614.55 472.73 A 23.64 23.64 0 0 1 638.1899999999999 496.37 L 614.55 496.37" fill="#eef1f7"/><rect x="638.18" y="472.73" width="23.64" height="23.64" fill="#dae1ed"/><path d="M 638.18 496.37 A 23.64 23.64 0 0 1  661.8199999999999 472.73 L 661.8199999999999 496.37" fill="#edf0f6"/><rect x="614.55" y="496.36" width="23.64" height="23.64" fill="#d6deeb"/><path d="M 614.55 520 A 23.64 23.64 0 0 0 638.1899999999999 496.36 L 614.55 496.36" fill="#ffeeee"/><rect x="638.18" y="496.36" width="23.64" height="23.64" fill="#fd3e3e"/><path d="M 638.18 496.36 A 23.64 23.64 0 0 0 661.8199999999999 520 L 661.8199999999999 496.36" fill="#e1e7f0"/><rect x="661.8181818181819" y="472.72727272727275" width="47.27272727272727" height="47.27272727272727" fill="#ffffff"/><rect x="661.82" y="472.73" width="23.64" height="23.64" fill="#ffd5d5"/><polygon points="661.82,472.73 685.46,472.73 661.82,496.37" fill="#fefeff"/><rect x="685.45" y="472.73" width="23.64" height="23.64" fill="#e7ecf3"/><polygon points="685.45,472.73 709.09,472.73 709.09,496.37" fill="#e7ecf4"/><rect x="661.82" y="496.36" width="23.64" height="23.64" fill="#fe7878"/><polygon points="685.46,496.36 685.46,520 661.82,520" fill="#fd3535"/><rect x="685.45" y="496.36" width="23.64" height="23.64" fill="#fe7d7d"/><polygon points="685.45,496.36 709.09,520 685.45,520" fill="#cfd8e8"/></g></svg>