<svg width="585" height="384" viewBox="0 0 585 384" fill="none" xmlns="http://www.w3.org/2000/svg">
<path d="M47.4 0.00292969H-29.403V76.8059H47.4V0.00292969Z" fill="#F7F7F7"/>
<path d="M-29.403 76.8059C-29.403 56.4365 -21.3112 36.9013 -6.90789 22.498C7.49545 8.09464 27.0306 0.00292969 47.4 0.00292969V76.8059" fill="#FE8989"/>
<path d="M124.203 0.00292969H47.4V76.8059H124.203V0.00292969Z" fill="#FEA1A1"/>
<path d="M47.4 76.8059C47.4 56.4365 55.4917 36.9013 69.8951 22.498C84.2984 8.09464 103.834 0.00292969 124.203 0.00292969V76.8059" fill="#FD4D4D"/>
<path d="M201.006 0.00292969H124.203V76.8059H201.006V0.00292969Z" fill="#FEC1C1"/>
<path d="M124.203 0.00292969C144.572 0.00292969 164.107 8.09464 178.511 22.498C192.914 36.9013 201.006 56.4365 201.006 76.8059H124.203" fill="#F1F1F1"/>
<path d="M277.8 0.00292969H200.997V76.8059H277.8V0.00292969Z" fill="white"/>
<path d="M200.997 0.00292969C221.366 0.00292969 240.902 8.09464 255.305 22.498C269.708 36.9013 277.8 56.4365 277.8 76.8059L200.997 0.00292969C200.997 20.3723 209.089 39.9075 223.492 54.3108C237.895 68.7142 257.431 76.8059 277.8 76.8059" fill="#E2E2E2"/>
<path d="M354.603 0.00292969H277.8V76.8059H354.603V0.00292969Z" fill="white"/>
<path d="M277.8 76.8059C298.169 76.8059 317.704 68.7142 332.108 54.3108C346.511 39.9075 354.603 20.3723 354.603 0.00292969H277.8" fill="#F1F1F1"/>
<path d="M431.4 0H354.6V76.8H431.4V0Z" fill="white"/>
<path d="M393 0.00292969H354.603V38.4H393V0.00292969Z" fill="white"/>
<path d="M354.603 0.00292969C354.603 5.0453 355.596 10.0383 357.526 14.6968C359.455 19.3554 362.284 23.5882 365.849 27.1537C369.415 30.7192 373.648 33.5475 378.306 35.4772C382.965 37.4068 387.958 38.4 393 38.4V0.00292969" fill="#E6E6E6"/>
<path d="M431.397 0.00292969H393V38.4H431.397V0.00292969Z" fill="#F2F2F2"/>
<path d="M393 38.4C393 28.2164 397.045 18.45 404.246 11.2492C411.447 4.04832 421.214 0.00292969 431.397 0.00292969L393 38.4C398.042 38.4 403.035 37.4068 407.694 35.4772C412.352 33.5475 416.585 30.7192 420.151 27.1537C423.716 23.5882 426.545 19.3554 428.474 14.6968C430.404 10.0383 431.397 5.0453 431.397 0.00292969" fill="#FE6363"/>
<path d="M393 38.3999H354.603V76.7969H393V38.3999Z" fill="#FE9393"/>
<path d="M354.603 38.3999C354.603 43.4423 355.596 48.4353 357.526 53.0938C359.455 57.7524 362.284 61.9852 365.849 65.5507C369.415 69.1162 373.648 71.9445 378.306 73.8741C382.965 75.8038 387.958 76.7969 393 76.7969V38.3999" fill="white"/>
<path d="M431.397 38.3999H393V76.7969H431.397V38.3999Z" fill="#E0E0E0"/>
<path d="M393 38.3999C398.042 38.3999 403.035 39.3931 407.694 41.3227C412.352 43.2523 416.585 46.0806 420.151 49.6461C423.716 53.2116 426.545 57.4445 428.474 62.103C430.404 66.7616 431.397 71.7546 431.397 76.7969L393 38.3999C393 48.5834 397.045 58.3499 404.246 65.5507C411.447 72.7515 421.214 76.7969 431.397 76.7969" fill="#E1E1E1"/>
<path d="M508.2 0H431.4V76.8H508.2V0Z" fill="white"/>
<path d="M469.794 0.00292969H431.397V38.4H469.794V0.00292969Z" fill="#FD6262"/>
<path d="M431.397 0.00292969C431.397 10.1865 435.442 19.9529 442.643 27.1537C449.844 34.3546 459.611 38.4 469.794 38.4V0.00292969" fill="#EBEBEB"/>
<path d="M508.2 0.00292969H469.803V38.4H508.2V0.00292969Z" fill="#FE8989"/>
<path d="M469.803 0.00292969C479.986 0.00292969 489.753 4.04832 496.954 11.2492C504.154 18.45 508.2 28.2164 508.2 38.4H469.803" fill="#FE8A8A"/>
<path d="M469.794 38.3999H431.397V76.7969H469.794V38.3999Z" fill="#FE7878"/>
<path d="M431.397 76.7969C441.581 76.7969 451.347 72.7515 458.548 65.5507C465.749 58.3499 469.794 48.5834 469.794 38.3999H431.397" fill="#F7F7F7"/>
<path d="M508.2 38.3999H469.803V76.7969H508.2V38.3999Z" fill="#FEA6A6"/>
<path d="M469.803 38.3999C469.803 48.5834 473.848 58.3499 481.049 65.5507C488.25 72.7515 498.016 76.7969 508.2 76.7969V38.3999" fill="#FFF8F8"/>
<path d="M585 0H508.2V76.8H585V0Z" fill="white"/>
<path d="M546.597 0.00292969H508.2V38.4H546.597V0.00292969Z" fill="#E8E8E8"/>
<path d="M508.2 38.4C513.242 38.4 518.235 37.4068 522.894 35.4772C527.552 33.5475 531.785 30.7192 535.351 27.1537C538.916 23.5882 541.744 19.3554 543.674 14.6968C545.604 10.0383 546.597 5.0453 546.597 0.00292969H508.2" fill="#FD3636"/>
<path d="M584.994 0.00292969H546.597V38.4H584.994V0.00292969Z" fill="#F1F1F1"/>
<path d="M546.597 38.4C556.781 38.4 566.547 34.3546 573.748 27.1537C580.949 19.9529 584.994 10.1865 584.994 0.00292969H546.597" fill="#FE6868"/>
<path d="M546.597 38.3999H508.2V76.7969H546.597V38.3999Z" fill="#EEEEEE"/>
<path d="M508.2 76.7969C513.242 76.7969 518.235 75.8038 522.894 73.8741C527.552 71.9445 531.785 69.1162 535.351 65.5507C538.916 61.9852 541.744 57.7524 543.674 53.0938C545.604 48.4353 546.597 43.4423 546.597 38.3999H508.2" fill="#E6E6E6"/>
<path d="M584.994 38.3999H546.597V76.7969H584.994V38.3999Z" fill="#FE8787"/>
<path d="M546.597 76.7969C546.597 66.6134 550.642 56.847 557.843 49.6461C565.044 42.4453 574.81 38.3999 584.994 38.3999V76.7969" fill="#FE8888"/>
<path d="M47.4 76.8H-29.4V153.6H47.4V76.8Z" fill="white"/>
<path d="M8.99409 76.7971H-29.403V115.194H8.99409V76.7971Z" fill="#FD4242"/>
<path d="M-29.403 115.194C-19.2194 115.194 -9.45299 111.149 -2.25215 103.948C4.94869 96.7471 8.99409 86.9806 8.99409 76.7971H-29.403" fill="#F0F0F0"/>
<path d="M47.3999 76.7971H9.00281V115.194H47.3999V76.7971Z" fill="#E9E9E9"/>
<path d="M9.00281 115.194C9.00281 105.011 13.0482 95.2442 20.249 88.0433C27.4499 80.8425 37.2163 76.7971 47.3999 76.7971V115.194" fill="#FE7C7C"/>
<path d="M8.99409 115.203H-29.403V153.6H8.99409V115.203Z" fill="#F3F3F3"/>
<path d="M-29.403 115.203C-29.403 125.386 -25.3576 135.153 -18.1567 142.354C-10.9559 149.555 -1.18944 153.6 8.99409 153.6V115.203" fill="#FE8E8E"/>
<path d="M47.3999 115.203H9.00281V153.6H47.3999V115.203Z" fill="#FE7E7E"/>
<path d="M9.00281 115.203C19.1863 115.203 28.9528 119.248 36.1536 126.449C43.3545 133.65 47.3999 143.416 47.3999 153.6L9.00281 115.203C9.00281 125.386 13.0482 135.153 20.249 142.354C27.4499 149.555 37.2163 153.6 47.3999 153.6" fill="#F1F1F1"/>
<path d="M124.2 76.8H47.4V153.6H124.2V76.8Z" fill="white"/>
<path d="M85.7971 76.7971H47.4V115.194H85.7971V76.7971Z" fill="#FFDBDB"/>
<path d="M47.4 76.7971C47.4 86.9806 51.4454 96.7471 58.6463 103.948C65.8471 111.149 75.6135 115.194 85.7971 115.194V76.7971" fill="#FEBBBB"/>
<path d="M124.194 76.7971H85.7971V115.194H124.194V76.7971Z" fill="#E5E5E5"/>
<path d="M85.7971 115.194C85.7971 105.011 89.8425 95.2442 97.0433 88.0433C104.244 80.8425 114.011 76.7971 124.194 76.7971L85.7971 115.194C95.9806 115.194 105.747 111.149 112.948 103.948C120.149 96.7471 124.194 86.9806 124.194 76.7971" fill="#FDFDFD"/>
<path d="M85.7971 115.203H47.4V153.6H85.7971V115.203Z" fill="#FE6666"/>
<path d="M47.4 153.6C57.5836 153.6 67.35 149.555 74.5508 142.354C81.7517 135.153 85.7971 125.386 85.7971 115.203H47.4" fill="#FEADAD"/>
<path d="M124.194 115.203H85.7971V153.6H124.194V115.203Z" fill="#FE8A8A"/>
<path d="M85.7971 115.203C95.9806 115.203 105.747 119.248 112.948 126.449C120.149 133.65 124.194 143.416 124.194 153.6H85.7971" fill="#E3E3E3"/>
<path d="M201.006 76.7971H124.203V153.6H201.006V76.7971Z" fill="#DEDEDE"/>
<path d="M124.203 76.7971C124.203 97.1665 132.295 116.702 146.698 131.105C161.101 145.508 180.636 153.6 201.006 153.6V76.7971" fill="#F7F7F7"/>
<path d="M277.8 76.8H201V153.6H277.8V76.8Z" fill="white"/>
<path d="M239.394 76.7971H200.997V115.194H239.394V76.7971Z" fill="#FEB2B2"/>
<path d="M200.997 76.7971C211.181 76.7971 220.947 80.8425 228.148 88.0433C235.349 95.2442 239.394 105.011 239.394 115.194H200.997" fill="#FFD8D8"/>
<path d="M277.8 76.7971H239.403V115.194H277.8V76.7971Z" fill="#FD6060"/>
<path d="M239.403 115.194C239.403 105.011 243.448 95.2442 250.649 88.0433C257.85 80.8425 267.616 76.7971 277.8 76.7971L239.403 115.194C249.586 115.194 259.353 111.149 266.554 103.948C273.755 96.7471 277.8 86.9806 277.8 76.7971" fill="#FD4E4E"/>
<path d="M239.394 115.203H200.997V153.6H239.394V115.203Z" fill="#FE8181"/>
<path d="M200.997 153.6C211.181 153.6 220.947 149.555 228.148 142.354C235.349 135.153 239.394 125.386 239.394 115.203H200.997" fill="#EBEBEB"/>
<path d="M277.8 115.203H239.403V153.6H277.8V115.203Z" fill="#E8E8E8"/>
<path d="M239.403 115.203C239.403 125.386 243.448 135.153 250.649 142.354C257.85 149.555 267.616 153.6 277.8 153.6V115.203" fill="#F7F7F7"/>
<path d="M354.6 76.8H277.8V153.6H354.6V76.8Z" fill="white"/>
<path d="M316.197 76.7971H277.8V115.194H316.197V76.7971Z" fill="#FE8A8A"/>
<path d="M277.8 115.194C277.8 105.011 281.845 95.2442 289.046 88.0433C296.247 80.8425 306.013 76.7971 316.197 76.7971V115.194" fill="#FE6868"/>
<path d="M354.594 76.7971H316.197V115.194H354.594V76.7971Z" fill="#FE8686"/>
<path d="M316.197 76.7971C326.381 76.7971 336.147 80.8425 343.348 88.0433C350.549 95.2442 354.594 105.011 354.594 115.194H316.197" fill="#F5F5F5"/>
<path d="M316.197 115.203H277.8V153.6H316.197V115.203Z" fill="#F6F6F6"/>
<path d="M277.8 153.6C277.8 143.416 281.845 133.65 289.046 126.449C296.247 119.248 306.013 115.203 316.197 115.203V153.6" fill="#FD5555"/>
<path d="M354.594 115.203H316.197V153.6H354.594V115.203Z" fill="#FFE3E3"/>
<path d="M316.197 153.6C326.381 153.6 336.147 149.555 343.348 142.354C350.549 135.153 354.594 125.386 354.594 115.203H316.197" fill="#FE7D7D"/>
<path d="M431.406 76.7971H354.603V153.6H431.406V76.7971Z" fill="#FCFCFC"/>
<path d="M354.603 76.7971C374.972 76.7971 394.508 84.8888 408.911 99.2922C423.314 113.696 431.406 133.231 431.406 153.6L354.603 76.7971C354.603 97.1665 362.695 116.702 377.098 131.105C391.501 145.508 411.037 153.6 431.406 153.6" fill="#EFEFEF"/>
<path d="M508.2 76.7971H431.397V153.6H508.2V76.7971Z" fill="#EEEEEE"/>
<path d="M431.397 76.7971C451.766 76.7971 471.302 84.8888 485.705 99.2922C500.108 113.696 508.2 133.231 508.2 153.6H431.397" fill="#FD5757"/>
<path d="M47.4 153.6H-29.4V230.4H47.4V153.6Z" fill="white"/>
<path d="M8.99409 153.6H-29.403V191.997H8.99409V153.6Z" fill="#F8F8F8"/>
<path d="M-29.403 153.6C-19.2194 153.6 -9.45299 157.645 -2.25215 164.846C4.94869 172.047 8.99409 181.814 8.99409 191.997L-29.403 153.6C-29.403 163.784 -25.3576 173.55 -18.1567 180.751C-10.9559 187.952 -1.18944 191.997 8.99409 191.997" fill="#FE9C9C"/>
<path d="M47.3999 153.6H9.00281V191.997H47.3999V153.6Z" fill="#E7E7E7"/>
<path d="M9.00281 191.997C9.00281 181.814 13.0482 172.047 20.249 164.846C27.4499 157.645 37.2163 153.6 47.3999 153.6L9.00281 191.997C19.1863 191.997 28.9528 187.952 36.1536 180.751C43.3545 173.55 47.3999 163.784 47.3999 153.6" fill="#FD4040"/>
<path d="M8.99409 191.997H-29.403V230.394H8.99409V191.997Z" fill="#FD5050"/>
<path d="M-29.403 230.394C-19.2194 230.394 -9.45299 226.349 -2.25215 219.148C4.94869 211.947 8.99409 202.181 8.99409 191.997H-29.403" fill="#FCFCFC"/>
<path d="M47.3999 191.997H9.00281V230.394H47.3999V191.997Z" fill="#EBEBEB"/>
<path d="M9.00281 230.394C9.00281 220.211 13.0482 210.444 20.249 203.243C27.4499 196.042 37.2163 191.997 47.3999 191.997L9.00281 230.394C19.1863 230.394 28.9528 226.349 36.1536 219.148C43.3545 211.947 47.3999 202.181 47.3999 191.997" fill="#FE9696"/>
<path d="M124.203 153.6H47.4V230.403H124.203V153.6Z" fill="#ECECEC"/>
<path d="M47.4 153.6C57.4859 153.6 67.4731 155.587 76.7912 159.446C86.1094 163.306 94.5761 168.963 101.708 176.095C108.84 183.227 114.497 191.694 118.357 201.012C122.216 210.33 124.203 220.317 124.203 230.403L47.4 153.6C47.4 163.686 49.3866 173.673 53.2463 182.991C57.106 192.309 62.7633 200.776 69.8951 207.908C84.2984 222.311 103.834 230.403 124.203 230.403" fill="#EBEBEB"/>
<path d="M201 153.6H124.2V230.4H201V153.6Z" fill="white"/>
<path d="M162.6 153.6H124.203V191.997H162.6V153.6Z" fill="#FEC3C3"/>
<path d="M124.203 191.997C124.203 181.814 128.248 172.047 135.449 164.846C142.65 157.645 152.416 153.6 162.6 153.6V191.997" fill="#FFF7F7"/>
<path d="M200.997 153.6H162.6V191.997H200.997V153.6Z" fill="#FDFDFD"/>
<path d="M162.6 191.997C172.783 191.997 182.55 187.952 189.751 180.751C196.952 173.55 200.997 163.784 200.997 153.6H162.6" fill="#EEEEEE"/>
<path d="M162.6 191.997H124.203V230.394H162.6V191.997Z" fill="#FE9191"/>
<path d="M124.203 191.997C134.386 191.997 144.153 196.042 151.354 203.243C158.555 210.444 162.6 220.211 162.6 230.394L124.203 191.997C124.203 202.181 128.248 211.947 135.449 219.148C142.65 226.349 152.416 230.394 162.6 230.394" fill="#FE7474"/>
<path d="M200.997 191.997H162.6V230.394H200.997V191.997Z" fill="#FFD6D6"/>
<path d="M162.6 230.394C162.6 220.211 166.645 210.444 173.846 203.243C181.047 196.042 190.813 191.997 200.997 191.997V230.394" fill="#DEDEDE"/>
<path d="M277.8 153.6H201V230.4H277.8V153.6Z" fill="white"/>
<path d="M239.394 153.6H200.997V191.997H239.394V153.6Z" fill="#FE9595"/>
<path d="M200.997 153.6C211.181 153.6 220.947 157.645 228.148 164.846C235.349 172.047 239.394 181.814 239.394 191.997L200.997 153.6C200.997 163.784 205.042 173.55 212.243 180.751C219.444 187.952 229.211 191.997 239.394 191.997" fill="#FEB9B9"/>
<path d="M277.8 153.6H239.403V191.997H277.8V153.6Z" fill="#FFD9D9"/>
<path d="M239.403 153.6C239.403 163.784 243.448 173.55 250.649 180.751C257.85 187.952 267.616 191.997 277.8 191.997V153.6" fill="#FEBBBB"/>
<path d="M239.394 191.997H200.997V230.394H239.394V191.997Z" fill="#FEBFBF"/>
<path d="M200.997 191.997C211.181 191.997 220.947 196.042 228.148 203.243C235.349 210.444 239.394 220.211 239.394 230.394L200.997 191.997C200.997 202.181 205.042 211.947 212.243 219.148C219.444 226.349 229.211 230.394 239.394 230.394" fill="#F1F1F1"/>
<path d="M277.8 191.997H239.403V230.394H277.8V191.997Z" fill="#FD3C3C"/>
<path d="M239.403 191.997C239.403 202.181 243.448 211.947 250.649 219.148C257.85 226.349 267.616 230.394 277.8 230.394V191.997" fill="#FE8888"/>
<path d="M354.6 153.6H277.8V230.4H354.6V153.6Z" fill="white"/>
<path d="M316.197 153.6H277.8V191.997H316.197V153.6Z" fill="#FD4A4A"/>
<path d="M277.8 153.6C282.842 153.6 287.835 154.593 292.494 156.523C297.152 158.453 301.385 161.281 304.951 164.846C308.516 168.412 311.344 172.645 313.274 177.303C315.204 181.962 316.197 186.955 316.197 191.997L277.8 153.6C277.8 163.784 281.845 173.55 289.046 180.751C296.247 187.952 306.013 191.997 316.197 191.997" fill="#FE8282"/>
<path d="M354.594 153.6H316.197V191.997H354.594V153.6Z" fill="#FD3E3E"/>
<path d="M316.197 153.6C326.381 153.6 336.147 157.645 343.348 164.846C350.549 172.047 354.594 181.814 354.594 191.997H316.197" fill="#E5E5E5"/>
<path d="M316.197 191.997H277.8V230.394H316.197V191.997Z" fill="#FE6767"/>
<path d="M277.8 191.997C277.8 202.181 281.845 211.947 289.046 219.148C296.247 226.349 306.013 230.394 316.197 230.394V191.997" fill="#FFD6D6"/>
<path d="M354.594 191.997H316.197V230.394H354.594V191.997Z" fill="#FE7A7A"/>
<path d="M316.197 191.997C326.381 191.997 336.147 196.042 343.348 203.243C350.549 210.444 354.594 220.211 354.594 230.394L316.197 191.997C316.197 202.181 320.242 211.947 327.443 219.148C334.644 226.349 344.411 230.394 354.594 230.394" fill="#E4E4E4"/>
<path d="M47.4 230.403H-29.403V307.206H47.4V230.403Z" fill="#FCFCFC"/>
<path d="M-29.403 307.206C-29.403 286.836 -21.3112 267.301 -6.90789 252.898C7.49545 238.495 27.0306 230.403 47.4 230.403V307.206" fill="#FEB6B6"/>
<path d="M124.2 230.4H47.4V307.2H124.2V230.4Z" fill="white"/>
<path d="M85.7971 230.403H47.4V268.8H85.7971V230.403Z" fill="#FCFCFC"/>
<path d="M47.4 268.8C47.4 258.616 51.4454 248.85 58.6463 241.649C65.8471 234.448 75.6135 230.403 85.7971 230.403V268.8" fill="#FFFCFC"/>
<path d="M124.194 230.403H85.7971V268.8H124.194V230.403Z" fill="#ECECEC"/>
<path d="M85.7971 268.8C95.9806 268.8 105.747 264.754 112.948 257.554C120.149 250.353 124.194 240.586 124.194 230.403H85.7971" fill="#FD6161"/>
<path d="M85.7971 268.8H47.4V307.197H85.7971V268.8Z" fill="#F9F9F9"/>
<path d="M47.4 268.8C47.4 278.984 51.4454 288.75 58.6463 295.951C65.8471 303.152 75.6135 307.197 85.7971 307.197V268.8" fill="#FBFBFB"/>
<path d="M124.194 268.8H85.7971V307.197H124.194V268.8Z" fill="#FD3333"/>
<path d="M85.7971 268.8C85.7971 278.984 89.8425 288.75 97.0433 295.951C104.244 303.152 114.011 307.197 124.194 307.197V268.8" fill="#F1F1F1"/>
<path d="M201 230.4H124.2V307.2H201V230.4Z" fill="white"/>
<path d="M162.6 230.403H124.203V268.8H162.6V230.403Z" fill="#FD4C4C"/>
<path d="M124.203 268.8C124.203 258.616 128.248 248.85 135.449 241.649C142.65 234.448 152.416 230.403 162.6 230.403V268.8" fill="#ECECEC"/>
<path d="M200.997 230.403H162.6V268.8H200.997V230.403Z" fill="#ECECEC"/>
<path d="M162.6 268.8C162.6 258.616 166.645 248.85 173.846 241.649C181.047 234.448 190.813 230.403 200.997 230.403V268.8" fill="#FD3030"/>
<path d="M162.6 268.8H124.203V307.197H162.6V268.8Z" fill="#FE7B7B"/>
<path d="M124.203 307.197C124.203 297.014 128.248 287.247 135.449 280.046C142.65 272.845 152.416 268.8 162.6 268.8V307.197" fill="#ECECEC"/>
<path d="M200.997 268.8H162.6V307.197H200.997V268.8Z" fill="#FEFEFE"/>
<path d="M162.6 268.8C172.783 268.8 182.55 272.845 189.751 280.046C196.952 287.247 200.997 297.014 200.997 307.197L162.6 268.8C162.6 278.984 166.645 288.75 173.846 295.951C181.047 303.152 190.813 307.197 200.997 307.197" fill="#FD3838"/>
<path d="M47.4 307.197H-29.403V384H47.4V307.197Z" fill="#FFD6D6"/>
<path d="M-29.403 384C-29.403 363.631 -21.3112 344.095 -6.90789 329.692C7.49545 315.289 27.0306 307.197 47.4 307.197L-29.403 384C-9.03355 384 10.5016 375.908 24.9049 361.505C39.3083 347.102 47.4 327.566 47.4 307.197" fill="#EEEEEE"/>
<path d="M124.2 307.2H47.4V384H124.2V307.2Z" fill="white"/>
<path d="M85.7971 307.197H47.4V345.594H85.7971V307.197Z" fill="#FEAEAE"/>
<path d="M47.4 307.197C57.5836 307.197 67.35 311.242 74.5508 318.443C81.7517 325.644 85.7971 335.411 85.7971 345.594L47.4 307.197C47.4 317.381 51.4454 327.147 58.6463 334.348C65.8471 341.549 75.6135 345.594 85.7971 345.594" fill="#FE6D6D"/>
<path d="M124.194 307.197H85.7971V345.594H124.194V307.197Z" fill="#ECECEC"/>
<path d="M85.7971 307.197C95.9806 307.197 105.747 311.242 112.948 318.443C120.149 325.644 124.194 335.411 124.194 345.594H85.7971" fill="#FE6969"/>
<path d="M85.7971 345.603H47.4V384H85.7971V345.603Z" fill="#FE6363"/>
<path d="M47.4 384C47.4 373.817 51.4454 364.05 58.6463 356.849C65.8471 349.648 75.6135 345.603 85.7971 345.603L47.4 384C57.5836 384 67.35 379.955 74.5508 372.754C81.7517 365.553 85.7971 355.787 85.7971 345.603" fill="#F0F0F0"/>
<path d="M124.194 345.603H85.7971V384H124.194V345.603Z" fill="#FBFBFB"/>
<path d="M85.7971 384C95.9806 384 105.747 379.955 112.948 372.754C120.149 365.553 124.194 355.787 124.194 345.603H85.7971" fill="#F9F9F9"/>
</svg>
