<svg width="507" height="381" viewBox="0 0 507 381" fill="none" xmlns="http://www.w3.org/2000/svg">
<path d="M126.005 380.995H-1V253.99H126.005V380.995Z" fill="white"/>
<path d="M-1 253.99C32.6838 253.99 64.988 267.371 88.806 291.189C112.624 315.007 126.005 347.311 126.005 380.995H-1" fill="#F1F1F1"/>
<path d="M253 381H126V254H253V381Z" fill="white"/>
<path d="M189.5 380.995H126.005V317.5H189.5V380.995Z" fill="white"/>
<path d="M126.005 380.995C126.005 372.657 127.648 364.4 130.838 356.697C134.029 348.993 138.706 341.993 144.602 336.097C150.499 330.201 157.498 325.524 165.202 322.333C172.905 319.142 181.162 317.5 189.5 317.5V380.995" fill="#E6E6E6"/>
<path d="M252.995 380.995H189.5V317.5H252.995V380.995Z" fill="#F2F2F2"/>
<path d="M189.5 317.5C189.5 334.34 196.19 350.49 208.097 362.398C220.005 374.305 236.155 380.995 252.995 380.995L189.5 317.5C197.839 317.5 206.095 319.142 213.799 322.333C221.502 325.524 228.502 330.201 234.398 336.097C240.294 341.993 244.971 348.993 248.162 356.697C251.353 364.4 252.995 372.657 252.995 380.995" fill="#FE6363"/>
<path d="M189.5 317.5H126.005V254.005H189.5V317.5Z" fill="#FE9393"/>
<path d="M126.005 317.5C126.005 309.162 127.648 300.905 130.838 293.201C134.029 285.498 138.706 278.498 144.602 272.602C150.499 266.706 157.498 262.029 165.202 258.838C172.905 255.647 181.162 254.005 189.5 254.005V317.5" fill="white"/>
<path d="M252.995 317.5H189.5V254.005H252.995V317.5Z" fill="#E0E0E0"/>
<path d="M189.5 317.5C197.839 317.5 206.095 315.858 213.799 312.667C221.502 309.476 228.502 304.799 234.398 298.903C240.294 293.007 244.971 286.007 248.162 278.303C251.353 270.6 252.995 262.343 252.995 254.005L189.5 317.5C189.5 300.66 196.19 284.51 208.097 272.602C220.005 260.695 236.155 254.005 252.995 254.005" fill="#E1E1E1"/>
<path d="M380 381H253V254H380V381Z" fill="white"/>
<path d="M316.49 380.995H252.995V317.5H316.49V380.995Z" fill="#FD6262"/>
<path d="M252.995 380.995C252.995 364.155 259.685 348.005 271.593 336.097C283.5 324.19 299.65 317.5 316.49 317.5V380.995" fill="#EBEBEB"/>
<path d="M380 380.995H316.505V317.5H380V380.995Z" fill="#FE8989"/>
<path d="M316.505 380.995C333.345 380.995 349.495 374.305 361.403 362.398C373.31 350.49 380 334.34 380 317.5H316.505" fill="#FE8A8A"/>
<path d="M316.49 317.5H252.995V254.005H316.49V317.5Z" fill="#FE7878"/>
<path d="M252.995 254.005C269.835 254.005 285.986 260.695 297.893 272.602C309.801 284.51 316.49 300.66 316.49 317.5H252.995" fill="#F7F7F7"/>
<path d="M380 317.5H316.505V254.005H380V317.5Z" fill="#FEA6A6"/>
<path d="M316.505 317.5C316.505 300.66 323.195 284.51 335.102 272.602C347.01 260.695 363.16 254.005 380 254.005V317.5" fill="#FFF8F8"/>
<path d="M507 381H380V254H507V381Z" fill="white"/>
<path d="M443.495 380.995H380V317.5H443.495V380.995Z" fill="#E8E8E8"/>
<path d="M380 317.5C388.338 317.5 396.595 319.142 404.299 322.333C412.002 325.524 419.002 330.201 424.898 336.097C430.794 341.993 435.471 348.993 438.662 356.697C441.853 364.4 443.495 372.657 443.495 380.995H380" fill="#FD3636"/>
<path d="M506.99 380.995H443.495V317.5H506.99V380.995Z" fill="#F1F1F1"/>
<path d="M443.495 317.5C460.335 317.5 476.486 324.19 488.393 336.097C500.301 348.005 506.99 364.155 506.99 380.995H443.495" fill="#FE6868"/>
<path d="M443.495 317.5H380V254.005H443.495V317.5Z" fill="#EEEEEE"/>
<path d="M380 254.005C388.338 254.005 396.595 255.647 404.299 258.838C412.002 262.029 419.002 266.706 424.898 272.602C430.794 278.498 435.471 285.498 438.662 293.201C441.853 300.905 443.495 309.162 443.495 317.5H380" fill="#E6E6E6"/>
<path d="M506.99 317.5H443.495V254.005H506.99V317.5Z" fill="#FE8787"/>
<path d="M443.495 254.005C443.495 270.845 450.185 286.995 462.093 298.903C474 310.81 490.15 317.5 506.99 317.5V254.005" fill="#FE8888"/>
<path d="M126 254H-1V127H126V254Z" fill="white"/>
<path d="M62.4951 254.005H-1V190.51H62.4951V254.005Z" fill="#FE8A8A"/>
<path d="M-1 190.51C-1 207.35 5.68961 223.5 17.5973 235.408C29.5049 247.315 45.6552 254.005 62.4951 254.005V190.51" fill="#FE6868"/>
<path d="M125.99 254.005H62.4954V190.51H125.99V254.005Z" fill="#FE8686"/>
<path d="M62.4954 254.005C79.3353 254.005 95.4855 247.315 107.393 235.408C119.301 223.5 125.99 207.35 125.99 190.51H62.4954" fill="#F5F5F5"/>
<path d="M62.4951 190.495H-1V127H62.4951V190.495Z" fill="#F6F6F6"/>
<path d="M-1 127C-1 143.84 5.68961 159.99 17.5973 171.898C29.5049 183.805 45.6552 190.495 62.4951 190.495V127" fill="#FD5555"/>
<path d="M125.99 190.495H62.4954V127H125.99V190.495Z" fill="#FFE3E3"/>
<path d="M62.4954 127C79.3353 127 95.4855 133.69 107.393 145.597C119.301 157.505 125.99 173.655 125.99 190.495H62.4954" fill="#FE7D7D"/>
<path d="M253.01 254.005H126.005V127H253.01V254.005Z" fill="#FCFCFC"/>
<path d="M126.005 254.005C159.689 254.005 191.993 240.624 215.811 216.806C239.629 192.988 253.01 160.684 253.01 127L126.005 254.005C126.005 220.321 139.386 188.017 163.204 164.199C187.022 140.381 219.326 127 253.01 127" fill="#EFEFEF"/>
<path d="M380 254.005H252.995V127H380V254.005Z" fill="#EEEEEE"/>
<path d="M252.995 254.005C286.679 254.005 318.983 240.624 342.801 216.806C366.619 192.988 380 160.684 380 127H252.995" fill="#FD5757"/>
<path d="M126 127H-1V2.28882e-05H126V127Z" fill="white"/>
<path d="M62.4951 127H-1V63.5049H62.4951V127Z" fill="#FD4A4A"/>
<path d="M-1 127C7.3383 127 15.5949 125.358 23.2985 122.167C31.0021 118.976 38.0017 114.299 43.8978 108.403C49.7939 102.507 54.4709 95.507 57.6618 87.8034C60.8527 80.0998 62.4951 71.8432 62.4951 63.5049L-1 127C-1 110.16 5.68961 94.0098 17.5973 82.1022C29.5049 70.1945 45.6552 63.5049 62.4951 63.5049" fill="#FE8282"/>
<path d="M125.99 127H62.4954V63.5049H125.99V127Z" fill="#FD3E3E"/>
<path d="M62.4954 127C79.3353 127 95.4855 120.31 107.393 108.403C119.301 96.4951 125.99 80.3449 125.99 63.5049H62.4954" fill="#E5E5E5"/>
<path d="M62.4951 63.5049H-1V0.00974655H62.4951V63.5049Z" fill="#FE6767"/>
<path d="M-1 63.5049C-1 46.6649 5.68961 30.5147 17.5973 18.607C29.5049 6.6994 45.6552 0.00974655 62.4951 0.00974655V63.5049" fill="#FFD6D6"/>
<path d="M125.99 63.5049H62.4954V0.00974655H125.99V63.5049Z" fill="#FE7A7A"/>
<path d="M62.4954 63.5049C79.3353 63.5049 95.4855 56.8152 107.393 44.9076C119.301 32.9999 125.99 16.8497 125.99 0.00974655L62.4954 63.5049C62.4954 46.6649 69.185 30.5147 81.0926 18.607C93.0003 6.6994 109.15 0.00974655 125.99 0.00974655" fill="#E4E4E4"/>
</svg>
