<svg width="227" height="460" viewBox="0 0 227 460" fill="none" xmlns="http://www.w3.org/2000/svg">
<path d="M20.01 90.4913H169.25C164.82 90.4366 160.574 88.7173 157.354 85.6751C154.134 82.6329 152.176 78.4906 151.87 74.0713L149.23 29.5913H0L2.63 74.0713C2.93603 78.4906 4.8936 82.6329 8.11365 85.6751C11.3337 88.7173 15.5805 90.4366 20.01 90.4913V90.4913Z" fill="#FD2E2E"/>
<path opacity="0.6" d="M20.01 90.4913H169.25C164.82 90.4366 160.574 88.7173 157.354 85.6751C154.134 82.6329 152.176 78.4906 151.87 74.0713L149.23 29.5913H0L2.63 74.0713C2.93603 78.4906 4.8936 82.6329 8.11365 85.6751C11.3337 88.7173 15.5805 90.4366 20.01 90.4913V90.4913Z" fill="white"/>
<path d="M180.31 0.00137488H47.46C45.3421 -0.0235978 43.2421 0.391434 41.293 1.22019C39.3438 2.04894 37.588 3.27335 36.1366 4.81592C34.6852 6.35849 33.5699 8.18562 32.8613 10.1816C32.1527 12.1776 31.8662 14.2989 32.02 16.4114L35.46 74.0814C35.6169 76.1945 35.3326 78.3171 34.6251 80.3145C33.9176 82.3118 32.8025 84.1402 31.3504 85.6834C29.8984 87.2266 28.1413 88.451 26.1908 89.2787C24.2402 90.1064 22.1388 90.5194 20.02 90.4914H169.25C171.369 90.5194 173.47 90.1064 175.421 89.2787C177.371 88.451 179.128 87.2266 180.58 85.6834C182.032 84.1402 183.148 82.3118 183.855 80.3145C184.563 78.3171 184.847 76.1945 184.69 74.0814L185.06 80.3214L181.28 16.4514C181.117 14.335 181.397 12.208 182.102 10.2059C182.807 8.2038 183.921 6.37049 185.374 4.82285C186.826 3.27521 188.586 2.04719 190.539 1.21706C192.493 0.386929 194.598 -0.0270972 196.72 0.00137488H180.31Z" fill="#FD2E2E"/>
<path d="M196.709 0H47C51.4426 0.0984673 55.7034 3.48554 58.9339 9.4867C62.1644 15.4879 64.1275 23.6628 64.4323 32.3835L77.321 460H227L214.141 32.4625C213.842 23.7309 211.881 15.5418 208.651 9.52602C205.42 3.51022 201.157 0.109099 196.709 0V0Z" fill="#FD2E2E"/>
<path opacity="0.8" d="M196.709 0H47C51.4426 0.0984673 55.7034 3.48554 58.9339 9.4867C62.1644 15.4879 64.1275 23.6628 64.4323 32.3835L77.321 460H227L214.141 32.4625C213.842 23.7309 211.881 15.5418 208.651 9.52602C205.42 3.51022 201.157 0.109099 196.709 0V0Z" fill="white"/>
<path d="M115.12 61.6815H87.46L85.79 34.0015H113.46L115.12 61.6815ZM90.46 58.4215H111.63L110.46 37.2515H89.25L90.46 58.4215Z" fill="white"/>
<path d="M118.98 126.791H91.29L89.65 99.1013H117.34L118.98 126.791ZM94.35 123.531H115.52L114.27 102.361H93.1L94.35 123.531Z" fill="white"/>
<path d="M192.3 33.9915H128.64V37.2514H192.3V33.9915Z" fill="white"/>
<path d="M185.54 46.2114H129.36V49.4714H185.54V46.2114Z" fill="white"/>
<path d="M193.74 58.4214H130.08V61.6814H193.74V58.4214Z" fill="white"/>
<path d="M196.15 99.1013H132.49V102.361H196.15V99.1013Z" fill="white"/>
<path d="M170.58 111.321H133.21V114.581H170.58V111.321Z" fill="white"/>
<path d="M153.23 123.531H133.94V126.791H153.23V123.531Z" fill="white"/>
<path d="M197.6 123.531H165.77V126.791H197.6V123.531Z" fill="white"/>
<path d="M103.09 55.1615C102.398 55.1623 101.732 54.8974 101.23 54.4215L94.46 48.0015C94.2013 47.7566 93.9933 47.4631 93.848 47.1378C93.7027 46.8126 93.623 46.4619 93.6132 46.1057C93.5935 45.3865 93.8603 44.689 94.355 44.1665C94.8496 43.644 95.5315 43.3394 96.2507 43.3197C96.9699 43.3001 97.6675 43.5669 98.19 44.0615L103.01 48.6115L113.86 37.0815C114.353 36.5577 115.034 36.2513 115.754 36.2297C116.473 36.2082 117.171 36.4732 117.695 36.9665C118.219 37.4598 118.525 38.141 118.547 38.8602C118.568 39.5794 118.303 40.2777 117.81 40.8015L105.1 54.3115C104.856 54.5732 104.563 54.7833 104.236 54.9293C103.91 55.0753 103.557 55.1543 103.2 55.1615H103.09Z" fill="#FD2E2E"/>
<path d="M106.95 120.271C106.258 120.274 105.591 120.009 105.09 119.531L98.29 113.111C98.0221 112.869 97.8053 112.576 97.6522 112.25C97.4991 111.923 97.4129 111.569 97.3985 111.208C97.3842 110.847 97.442 110.487 97.5686 110.149C97.6952 109.811 97.8881 109.502 98.1359 109.24C98.3837 108.977 98.6814 108.767 99.0115 108.621C99.3417 108.475 99.6977 108.397 100.059 108.391C100.419 108.384 100.778 108.45 101.113 108.584C101.448 108.718 101.753 108.918 102.01 109.171L106.84 113.721L117.68 102.191C118.173 101.668 118.854 101.361 119.574 101.34C120.293 101.318 120.991 101.583 121.515 102.076C122.039 102.57 122.345 103.251 122.367 103.97C122.388 104.689 122.123 105.388 121.63 105.911L108.92 119.421C108.678 119.682 108.386 119.892 108.061 120.038C107.737 120.184 107.386 120.263 107.03 120.271H106.95Z" fill="#FD2E2E"/>
<path d="M122.83 191.901H95.14L93.46 164.211H121.15L122.83 191.901ZM98.21 188.641H119.38L118.12 167.471H96.95L98.21 188.641Z" fill="white"/>
<path d="M200 164.211H136.34V167.471H200V164.211Z" fill="white"/>
<path d="M200.73 176.431H137.07V179.691H200.73V176.431Z" fill="white"/>
<path d="M173 188.641H137.79V191.901H173V188.641Z" fill="white"/>
<path d="M110.8 185.391C110.106 185.39 109.44 185.122 108.94 184.641L102.14 178.221C101.872 177.979 101.655 177.686 101.502 177.36C101.349 177.033 101.263 176.679 101.248 176.318C101.234 175.957 101.292 175.597 101.419 175.259C101.545 174.921 101.738 174.612 101.986 174.35C102.234 174.087 102.531 173.877 102.862 173.731C103.192 173.585 103.548 173.507 103.909 173.501C104.269 173.494 104.628 173.56 104.963 173.694C105.298 173.828 105.603 174.028 105.86 174.281L110.69 178.831L121.54 167.301C122.048 166.865 122.7 166.632 123.369 166.648C124.039 166.663 124.679 166.926 125.166 167.386C125.653 167.846 125.953 168.47 126.007 169.137C126.061 169.805 125.866 170.469 125.46 171.001L112.75 184.511C112.505 184.772 112.211 184.981 111.885 185.127C111.559 185.273 111.207 185.352 110.85 185.361L110.8 185.391Z" fill="#FD2E2E"/>
<path d="M125.83 247.69H98.14L96.46 220H124.15L125.83 247.69ZM101.21 244.43H122.38L121.12 223.26H99.95L101.21 244.43Z" fill="white"/>
<path d="M203 220H139.34V223.26H203V220Z" fill="white"/>
<path d="M203.73 232.22H140.07V235.48H203.73V232.22Z" fill="white"/>
<path d="M176 244.43H140.79V247.69H176V244.43Z" fill="white"/>
<path d="M113.8 241.18C113.106 241.179 112.44 240.91 111.94 240.43L105.14 234.01C104.872 233.768 104.655 233.475 104.502 233.148C104.349 232.821 104.263 232.467 104.248 232.106C104.234 231.746 104.292 231.386 104.419 231.048C104.545 230.71 104.738 230.401 104.986 230.138C105.234 229.876 105.531 229.665 105.862 229.52C106.192 229.374 106.548 229.295 106.909 229.289C107.269 229.283 107.628 229.349 107.963 229.483C108.298 229.617 108.603 229.816 108.86 230.07L113.69 234.62L124.54 223.09C125.048 222.653 125.7 222.421 126.369 222.436C127.039 222.452 127.679 222.715 128.166 223.175C128.653 223.635 128.953 224.258 129.007 224.926C129.061 225.593 128.866 226.257 128.46 226.79L115.75 240.3C115.505 240.56 115.211 240.769 114.885 240.915C114.559 241.061 114.207 241.141 113.85 241.15L113.8 241.18Z" fill="#FD2E2E"/>
<path d="M128.83 303.479H101.14L99.46 275.789H127.15L128.83 303.479ZM104.21 300.219H125.38L124.12 279.049H102.95L104.21 300.219Z" fill="white"/>
<path d="M206 275.789H142.34V279.049H206V275.789Z" fill="white"/>
<path d="M206.73 288.009H143.07V291.269H206.73V288.009Z" fill="white"/>
<path d="M179 300.219H143.79V303.478H179V300.219Z" fill="white"/>
<path d="M116.8 296.968C116.106 296.968 115.44 296.699 114.94 296.218L108.14 289.798C107.872 289.557 107.655 289.264 107.502 288.937C107.349 288.61 107.263 288.256 107.248 287.895C107.234 287.534 107.292 287.175 107.419 286.837C107.545 286.499 107.738 286.189 107.986 285.927C108.234 285.664 108.531 285.454 108.862 285.308C109.192 285.162 109.548 285.084 109.909 285.078C110.269 285.071 110.628 285.137 110.963 285.271C111.298 285.405 111.603 285.605 111.86 285.858L116.69 290.408L127.54 278.878C128.048 278.442 128.7 278.209 129.369 278.225C130.039 278.241 130.679 278.504 131.166 278.963C131.653 279.423 131.953 280.047 132.007 280.714C132.061 281.382 131.866 282.046 131.46 282.578L118.75 296.088C118.505 296.349 118.211 296.558 117.885 296.704C117.559 296.85 117.207 296.93 116.85 296.938L116.8 296.968Z" fill="#FD2E2E"/>
<path d="M131.83 359.267H104.14L102.46 331.577H130.15L131.83 359.267ZM107.21 356.007H128.38L127.12 334.837H105.95L107.21 356.007Z" fill="white"/>
<path d="M209 331.577H145.34V334.837H209V331.577Z" fill="white"/>
<path d="M209.73 343.797H146.07V347.057H209.73V343.797Z" fill="white"/>
<path d="M182 356.007H146.79V359.267H182V356.007Z" fill="white"/>
<path d="M119.8 352.757C119.106 352.756 118.44 352.487 117.94 352.007L111.14 345.587C110.872 345.345 110.655 345.052 110.502 344.725C110.349 344.398 110.263 344.044 110.248 343.684C110.234 343.323 110.292 342.963 110.419 342.625C110.545 342.287 110.738 341.978 110.986 341.715C111.234 341.453 111.531 341.243 111.862 341.097C112.192 340.951 112.548 340.873 112.909 340.866C113.269 340.86 113.628 340.926 113.963 341.06C114.298 341.194 114.603 341.393 114.86 341.647L119.69 346.197L130.54 334.667C131.048 334.231 131.7 333.998 132.369 334.013C133.039 334.029 133.679 334.292 134.166 334.752C134.653 335.212 134.953 335.835 135.007 336.503C135.061 337.171 134.866 337.835 134.46 338.367L121.75 351.877C121.505 352.137 121.211 352.347 120.885 352.492C120.559 352.638 120.207 352.718 119.85 352.727L119.8 352.757Z" fill="#FD2E2E"/>
<path d="M134.83 415.056H107.14L105.46 387.366H133.15L134.83 415.056ZM110.21 411.796H131.38L130.12 390.626H108.95L110.21 411.796Z" fill="white"/>
<path d="M212 387.366H148.34V390.626H212V387.366Z" fill="white"/>
<path d="M212.73 399.586H149.07V402.846H212.73V399.586Z" fill="white"/>
<path d="M185 411.796H149.79V415.056H185V411.796Z" fill="white"/>
<path d="M122.8 408.546C122.106 408.545 121.44 408.276 120.94 407.796L114.14 401.376C113.872 401.134 113.655 400.841 113.502 400.514C113.349 400.187 113.263 399.833 113.248 399.472C113.234 399.112 113.292 398.752 113.419 398.414C113.545 398.076 113.738 397.766 113.986 397.504C114.234 397.242 114.531 397.031 114.862 396.885C115.192 396.74 115.548 396.661 115.909 396.655C116.269 396.648 116.628 396.714 116.963 396.848C117.298 396.982 117.603 397.182 117.86 397.436L122.69 401.986L133.54 390.456C134.048 390.019 134.7 389.786 135.369 389.802C136.039 389.818 136.679 390.081 137.166 390.541C137.653 391 137.953 391.624 138.007 392.292C138.061 392.959 137.866 393.623 137.46 394.156L124.75 407.666C124.505 407.926 124.211 408.135 123.885 408.281C123.559 408.427 123.207 408.507 122.85 408.516L122.8 408.546Z" fill="#FD2E2E"/>
</svg>
