<svg width="98" height="100" viewBox="0 0 98 100" fill="none" xmlns="http://www.w3.org/2000/svg">
<path d="M88.9979 45.9814C88.8547 45.9814 88.7092 45.9607 88.5649 45.9177C87.7666 45.679 87.3127 44.838 87.5516 44.0396L93.6832 23.5329L88.6631 22.0355C87.8645 21.7972 87.4102 20.9566 87.6485 20.1579C87.8868 19.3593 88.7278 18.9058 89.5256 19.1431L95.9928 21.0722C96.3766 21.1868 96.6989 21.4491 96.8891 21.8013C97.0793 22.1536 97.1217 22.5671 97.0071 22.9505L90.4428 44.9038C90.2473 45.5585 89.6473 45.9814 88.9979 45.9814V45.9814Z" fill="#595959"/>
<path fill-rule="evenodd" clip-rule="evenodd" d="M0 9.46973V98.6473C0 99.3893 0.605664 100 1.34824 100H22.8635H68.9104H78.0512C78.7939 100 79.4051 99.3893 79.4051 98.6473C79.4051 52.3033 79.4051 67.2756 79.4051 16.7875L79.3994 15.9484C79.3994 15.8285 79.3822 15.7373 79.3422 15.6516H68.3961C65.4139 15.6516 62.9687 13.2086 62.9687 10.2232L62.9803 0.0685547C62.8717 0.0171875 62.7687 0 62.626 0H61.6148H1.34824C0.605664 0 0 0.605078 0 1.34707V9.46973Z" fill="#F9F7F7"/>
<path fill-rule="evenodd" clip-rule="evenodd" d="M48.0463 0C58.4211 10.6799 65.1739 28.0951 65.1739 47.7652C65.1739 52.0291 64.8539 56.1846 64.2541 60.1859C64.0598 61.4703 63.8371 62.7432 63.5858 63.9932C63.283 65.5059 62.9403 66.9898 62.5574 68.4455C58.9698 82.0938 51.9369 93.3387 42.9733 100H68.9104H78.0512C78.794 100 79.4051 99.3893 79.4051 98.6473V83.5266V63.5025V16.7875L79.3994 15.9484C79.3994 15.8285 79.3823 15.7373 79.3422 15.6516L62.9801 0.0685547C62.8717 0.0171875 62.7688 0 62.626 0H61.6149L48.0463 0Z" fill="#E2E2E2"/>
<path fill-rule="evenodd" clip-rule="evenodd" d="M62.9801 0.0686035L62.9688 10.2233C62.9688 13.2086 65.4139 15.6516 68.3961 15.6516H79.3422C79.2508 15.469 79.0451 15.309 78.6338 14.9153L63.8486 0.827783C63.3914 0.388135 63.1857 0.171338 62.9801 0.0686035V0.0686035Z" fill="#CECECE"/>
<path d="M51.7041 90.5505C50.2842 90.5505 49.1326 89.6011 48.1875 88.6603C47.7623 88.2382 47.5576 88.2011 47.5555 88.2009C47.4092 88.2282 46.9822 88.5997 46.7274 88.8216C45.6832 89.7304 43.5108 91.621 40.4223 88.7886C39.8082 88.2253 39.7668 87.2706 40.3299 86.6564C40.893 86.0417 41.8473 86.0005 42.4617 86.5638C42.9889 87.0474 43.4525 87.3065 43.7068 87.2634C43.976 87.2149 44.3852 86.8589 44.7463 86.5444C45.7137 85.703 47.7264 83.9511 50.3143 86.519C51.3033 87.5032 51.6541 87.5368 51.715 87.5317C51.7912 87.5273 52.0279 87.4005 52.3787 86.9542C52.8535 86.3517 53.1941 85.7466 53.5233 85.1614C54.158 84.0335 54.8143 82.8673 56.2098 82.598C57.8709 82.2858 58.7387 83.7009 59.3721 84.7343C60.2815 86.2179 60.9215 87.1169 62.5492 86.9356C63.3768 86.8398 64.1238 87.4392 64.2166 88.2675C64.3092 89.0956 63.7129 89.8423 62.8848 89.9349C59.2686 90.3392 57.6623 87.7192 56.7994 86.312C56.7275 86.1946 56.6459 86.0614 56.565 85.9345C56.4279 86.1532 56.2783 86.4192 56.1531 86.6417C55.8035 87.263 55.3684 88.0362 54.7498 88.8214C53.9008 89.9009 52.941 90.4812 51.8979 90.5444C51.833 90.5485 51.7684 90.5505 51.7041 90.5505V90.5505Z" fill="#595959"/>
<path fill-rule="evenodd" clip-rule="evenodd" d="M81.4103 11.5588L84.3959 15.6516L89.2314 13.8936L91.231 7.20937C91.8709 5.05742 90.6369 2.77421 88.4888 2.13496C86.3351 1.49003 84.0498 2.72285 83.4099 4.8748L81.4103 11.5588Z" fill="#838383"/>
<path fill-rule="evenodd" clip-rule="evenodd" d="M61.7918 81.1633L62.5744 88.0758C62.6545 88.5268 62.6486 88.5497 62.9744 88.1958L67.4192 82.8416L72.2067 77.0764L67.7106 71.6194L60.9578 73.72L61.7918 81.1633Z" fill="#838383"/>
<path fill-rule="evenodd" clip-rule="evenodd" d="M79.1822 12.7575L60.9578 73.7198L66.5795 75.398L72.2068 77.0761L89.0945 20.5888L90.4315 16.1194C90.7172 15.1776 90.1744 14.173 89.2317 13.8933L81.4106 11.5587C80.4676 11.279 79.4621 11.8157 79.1822 12.7575V12.7575Z" fill="#FF5656"/>
<path fill-rule="evenodd" clip-rule="evenodd" d="M87.3176 6.03914L85.318 12.7233L89.2315 13.8934L91.2311 7.20925C91.8709 5.0573 90.6369 2.7741 88.4889 2.13484C87.7748 1.92371 87.0492 1.91218 86.375 2.07781C87.3405 3.10535 87.7461 4.60085 87.3176 6.03914Z" fill="#595959"/>
<path fill-rule="evenodd" clip-rule="evenodd" d="M85.1865 19.4246L69.0816 73.2861L68.299 75.9119L72.2066 77.0763L89.0943 20.589L90.4312 16.1197C90.717 15.1779 90.1742 14.1732 89.2314 13.8935L85.318 12.7234C86.2605 13.0087 86.8033 14.0078 86.5234 14.9496L85.1865 19.4246Z" fill="#FF1B1B"/>
<path fill-rule="evenodd" clip-rule="evenodd" d="M68.299 75.9119L63.5115 81.6771L62.049 83.4351L62.5746 88.0757C62.6547 88.5267 62.6488 88.5496 62.9746 88.1957L67.4193 82.8415L72.2068 77.0763L68.299 75.9119Z" fill="#595959"/>
<path d="M60.0666 40.735H19.0984C18.2651 40.735 17.5897 40.0594 17.5897 39.226C17.5897 38.3926 18.2652 37.717 19.0984 37.717H60.0664C60.8998 37.717 61.5752 38.3926 61.5752 39.226C61.5752 40.0594 60.8998 40.735 60.0666 40.735Z" fill="#595959"/>
<path d="M57.5699 52.4652H19.0984C18.2651 52.4652 17.5897 51.7896 17.5897 50.9562C17.5897 50.1227 18.2652 49.4473 19.0984 49.4473H57.5699C58.4033 49.4473 59.0787 50.1229 59.0787 50.9562C59.0789 51.7896 58.4033 52.4652 57.5699 52.4652Z" fill="#595959"/>
<path d="M54.5936 64.1952H19.0984C18.2651 64.1952 17.5897 63.5196 17.5897 62.6862C17.5897 61.8526 18.2652 61.1772 19.0984 61.1772H54.5934C55.4268 61.1772 56.1022 61.8528 56.1022 62.6862C56.1024 63.5196 55.4268 64.1952 54.5936 64.1952V64.1952Z" fill="#595959"/>
<path d="M43.4074 75.9254H19.0984C18.2651 75.9254 17.5897 75.2499 17.5897 74.4165C17.5897 73.5829 18.2652 72.9075 19.0984 72.9075H43.4072C44.2406 72.9075 44.916 73.5831 44.916 74.4165C44.9162 75.25 44.2406 75.9254 43.4074 75.9254Z" fill="#595959"/>
<path fill-rule="evenodd" clip-rule="evenodd" d="M55.2676 19.4875H22.0637C21.498 19.4875 21.0353 19.9499 21.0353 20.5151V26.5999C21.0353 27.1649 21.498 27.6274 22.0637 27.6274H55.2676C55.8332 27.6274 56.2959 27.1651 56.2959 26.5999V20.5151C56.2959 19.9499 55.8332 19.4875 55.2676 19.4875V19.4875Z" fill="#FF5656"/>
<path fill-rule="evenodd" clip-rule="evenodd" d="M55.2676 19.4875H45.8412C46.4068 19.4875 46.8695 19.9499 46.8695 20.5151V26.5999C46.8695 27.1649 46.4068 27.6274 45.8412 27.6274H55.2676C55.8332 27.6274 56.2959 27.1651 56.2959 26.5999V20.5151C56.2959 19.9499 55.8332 19.4875 55.2676 19.4875V19.4875Z" fill="#FF1B1B"/>
</svg>
