<svg width="84" height="84" viewBox="0 0 84 84" fill="none" xmlns="http://www.w3.org/2000/svg">
<g clip-path="url(#clip0)">
<path d="M79.5802 46.1751C76.8954 45.2444 74.0239 46.0856 72.2653 48.3176L61.2339 62.3191C59.8249 64.1072 57.7113 65.1327 55.4348 65.1327H54.3867C58.191 65.1327 61.2934 62.0703 61.3584 58.2813C61.4252 54.3802 58.1648 51.1874 54.263 51.1874H36.876C31.078 46.2547 22.6017 45.8474 16.3373 50.3218L13.4531 52.382V79.078H32.3203H58.1285C63.8448 79.078 69.1735 76.2542 72.3831 71.5243L82.8662 56.0755C83.6079 54.9825 84 53.7064 84 52.3851C84 49.5433 82.265 47.1057 79.5802 46.1751V46.1751Z" fill="#FFD5B2"/>
<path d="M79.5802 46.1751C76.8954 45.2444 74.0239 46.0856 72.2653 48.3176L61.2339 62.3191C59.8249 64.1072 57.7113 65.1327 55.4348 65.1327H54.3867C58.191 65.1327 61.2934 62.0703 61.3584 58.2813C61.4252 54.3802 58.1648 51.1874 54.263 51.1874H42V79.078H58.1285C63.8448 79.078 69.1735 76.2542 72.3831 71.5243L82.8662 56.0755C83.6079 54.9825 84 53.7064 84 52.3851C84 49.5433 82.265 47.1057 79.5802 46.1751V46.1751Z" fill="#FAC394"/>
<path d="M33.4688 67.5938C33.4688 68.9529 34.5706 70.0547 35.9297 70.0547H54.3867C60.9454 70.0547 66.2812 64.7189 66.2812 58.1602C66.2812 57.4698 66.2187 56.7944 66.1054 56.136L61.2337 62.3192C59.8247 64.1073 57.7111 65.1329 55.4346 65.1329H54.3867H35.9297C34.5706 65.1329 33.4688 66.2347 33.4688 67.5938V67.5938Z" fill="#FAC394"/>
<path d="M61.2337 62.3192C59.8247 64.1073 57.7111 65.1329 55.4346 65.1329H54.3867H42V70.0547H54.3867C60.9454 70.0547 66.2812 64.7189 66.2812 58.1602C66.2812 57.4698 66.2187 56.7944 66.1054 56.136L61.2337 62.3192Z" fill="#F0B47F"/>
<path d="M12.3047 84H2.46094C1.10184 84 0 82.8982 0 81.5391V48.7266C0 47.3675 1.10184 46.2656 2.46094 46.2656H12.3047C13.6638 46.2656 14.7656 47.3675 14.7656 48.7266V81.5391C14.7656 82.8982 13.6638 84 12.3047 84Z" fill="#FF8C8C"/>
<path d="M12.3047 84H2.46094C1.10184 84 0 82.8982 0 81.5391V65.1328H14.7656V81.5391C14.7656 82.8982 13.6638 84 12.3047 84Z" fill="#FF5353"/>
<path d="M76.3919 33.8208H18.6188C12.4075 33.8208 7.37231 28.7856 7.37231 22.5743V20.4174C7.37231 14.2061 12.4075 9.1709 18.6188 9.1709H76.3919V33.8208Z" fill="#FFEBB7"/>
<path d="M15.9999 11.6357H9.8374V31.3556H15.9999V11.6357Z" fill="#5C546A"/>
<path d="M76.4258 36.2856H19.7311C11.576 36.2856 4.94116 29.6514 4.94116 21.4957C4.94116 13.34 11.576 6.70581 19.7311 6.70581H76.4258C77.787 6.70581 78.8907 7.80951 78.8907 9.1708C78.8907 10.5321 77.787 11.6358 76.4258 11.6358H19.7311C14.2944 11.6358 9.87113 16.059 9.87113 21.4957C9.87113 26.9324 14.2944 31.3557 19.7311 31.3557H76.4258C77.787 31.3557 78.8907 32.4594 78.8907 33.8207C78.8907 35.1819 77.787 36.2856 76.4258 36.2856Z" fill="#FF5353"/>
<path d="M19.6973 28.8906C19.0161 28.8906 18.4648 29.4419 18.4648 30.1231C18.4648 30.8044 19.0161 31.3556 19.6973 31.3556H76.392V28.8906H19.6973Z" fill="#E6BE94"/>
<path d="M19.6973 23.9607C19.0161 23.9607 18.4648 24.5119 18.4648 25.1932C18.4648 25.8744 19.0161 26.4257 19.6973 26.4257H76.392V23.9607H19.6973Z" fill="#E6BE94"/>
<path d="M19.6973 19.0308C19.0161 19.0308 18.4648 19.582 18.4648 20.2633C18.4648 20.9445 19.0161 21.4957 19.6973 21.4957H76.392V19.0308H19.6973Z" fill="#E6BE94"/>
<path d="M19.6973 14.1008C19.0161 14.1008 18.4648 14.6521 18.4648 15.3333C18.4648 16.0146 19.0161 16.5658 19.6973 16.5658H76.392V14.1008H19.6973Z" fill="#E6BE94"/>
</g>
<defs>
<clipPath id="clip0">
<rect width="84" height="84" fill="white"/>
</clipPath>
</defs>
</svg>
