<svg width="73" height="86" viewBox="0 0 73 86" fill="none" xmlns="http://www.w3.org/2000/svg">
<path d="M0 80.069V74.138V25.207C0 21.1131 3.31263 17.7932 7.39756 17.7932H11.8361H19.2337H54.7419V62.2761V68.207V74.138" fill="#55D8D8"/>
<path d="M54.7419 71.1723H22.1927C18.1078 71.1723 14.7952 67.8524 14.7952 63.7585V17.793H54.7419V71.1723Z" fill="#32C6C6"/>
<path d="M0 80.0689H10.3565V74.1379V17.793H7.39756C3.31263 17.793 0 21.1129 0 25.2068V80.0689Z" fill="#32C6C6"/>
<path d="M54.7419 85.9999H5.91798C2.64977 85.9999 0 83.3443 0 80.0689C0 76.7935 2.64977 74.1379 5.91798 74.1379H54.7417V85.9999H54.7419Z" fill="#B9B9B9"/>
<path d="M19.2336 62.2759V56.345V7.41381C19.2336 3.3199 22.5463 0 26.6312 0H31.0698H72.496V56.3448" fill="#FF5353"/>
<path d="M66.5787 5.93091H35.5089V23.7238H66.5787V5.93091Z" fill="#FF8C8C"/>
<path d="M62.1389 29.655H39.9469V32.6205H62.1389V29.655Z" fill="#FF8C8C"/>
<path d="M62.1389 35.5859H39.9469V38.5514H62.1389V35.5859Z" fill="#FF8C8C"/>
<path d="M62.1407 48.9309H54.7428V51.8964H62.1407V48.9309Z" fill="#FF8C8C"/>
<path d="M29.5902 0V56.3448V62.2758H19.2336V17.7931V7.41381C19.2336 3.3199 22.5463 0 26.6312 0H29.5902Z" fill="#FF8C8C"/>
<path d="M54.7418 68.2069H25.1516C21.8834 68.2069 19.2336 65.5513 19.2336 62.2759C19.2336 59.0006 21.8834 56.345 25.1516 56.345H72.496V68.2071H66.578" fill="#DBDBDB"/>
<path d="M25.1516 68.2071H54.7418H66.578H72.496V62.2761H19.2336C19.2336 65.5515 21.8834 68.2071 25.1516 68.2071Z" fill="#B9B9B9"/>
<path d="M54.7418 62.2761H66.5779V80.0692L60.6598 74.1381L54.7418 80.0692V62.2761Z" fill="#DC4D41"/>
<path d="M66.5788 62.2761H54.7428V66.7244H66.5788V62.2761Z" fill="#C7463B"/>
</svg>
