<svg width="116" height="100" viewBox="0 0 116 100" fill="none" xmlns="http://www.w3.org/2000/svg">
<path d="M47.0366 92.7104L47.032 92.722V99.9999H2.78227C2.04437 99.9999 1.33669 99.7068 0.814908 99.185C0.293131 98.6632 0 97.9556 0 97.2177V37.7327C0 36.9948 0.293131 36.2871 0.814908 35.7653C1.33669 35.2436 2.04437 34.9504 2.78227 34.9504H9.37857V83.4292C9.37833 84.3784 9.56507 85.3184 9.92815 86.1955C10.2912 87.0725 10.8235 87.8695 11.4946 88.5408C12.1657 89.2121 12.9625 89.7446 13.8394 90.108C14.7164 90.4713 15.6563 90.6584 16.6055 90.6585H40.1203C40.9626 90.6577 41.7985 90.8053 42.5896 91.0943L47.0366 92.7104Z" fill="#FF5353"/>
<path d="M58.4764 92.722V100H58.3187C54.7309 98.6552 50.7775 98.6552 47.1896 100H47.032V92.722L47.0366 92.7104L50.2849 93.8906C51.8798 94.4718 53.6286 94.4718 55.2234 93.8906L58.4718 92.7104L58.4764 92.722Z" fill="#FF8C8C"/>
<path d="M105.508 37.7327V97.2177C105.508 97.9556 105.215 98.6632 104.694 99.185C104.172 99.7068 103.464 99.9999 102.726 99.9999H58.4764V92.722L58.4718 92.7104L62.9188 91.0943C63.7099 90.8053 64.5458 90.6577 65.3881 90.6585H88.9029C89.8521 90.6584 90.792 90.4713 91.669 90.108C92.5459 89.7446 93.3427 89.2121 94.0138 88.5408C94.6849 87.8695 95.2172 87.0725 95.5803 86.1955C95.9433 85.3184 96.1301 84.3784 96.1298 83.4292V34.9504H102.726C103.464 34.9504 104.172 35.2436 104.694 35.7653C105.215 36.2871 105.508 36.9948 105.508 37.7327V37.7327Z" fill="#FF5353"/>
<path d="M52.7541 94.2476V27.7165C53.5963 27.7161 54.432 27.5686 55.2234 27.2807L62.9187 24.4845C63.7098 24.1954 64.5457 24.0479 65.388 24.0486H88.9028C89.852 24.0486 90.792 24.2357 91.6689 24.5991C92.5458 24.9624 93.3426 25.4949 94.0137 26.1663C94.6848 26.8376 95.2171 27.6345 95.5802 28.5116C95.9432 29.3886 96.13 30.3286 96.1297 31.2779V83.4292C96.13 84.3784 95.9432 85.3184 95.5802 86.1955C95.2171 87.0725 94.6848 87.8695 94.0137 88.5408C93.3426 89.2121 92.5458 89.7446 91.6689 90.108C90.792 90.4714 89.852 90.6584 88.9028 90.6585H65.388C64.5457 90.6577 63.7098 90.8053 62.9187 91.0944L58.4717 92.7104L55.2234 93.8905C54.4312 94.1786 53.5948 94.3261 52.7518 94.3264L52.7541 94.2476Z" fill="#D1D3D4"/>
<path d="M50.2849 27.2808L42.5896 24.4602C41.7999 24.1634 40.9641 24.0076 40.1204 24H16.6055C14.6854 24.0119 12.8483 24.7847 11.497 26.149C10.1457 27.5133 9.39059 29.3578 9.39714 31.278V83.4293C9.39714 87.4219 12.613 90.7745 16.6055 90.7745H40.1204C40.9593 90.7541 41.7952 90.882 42.5896 91.1524L47.0366 92.7395L50.2849 93.9052C51.076 94.1908 51.9109 94.3358 52.7519 94.3337L52.7542 94.2477V27.7166C51.912 27.7162 51.0764 27.5687 50.2849 27.2808V27.2808Z" fill="#F4F8FC"/>
<path d="M20.2131 40.3645H42.1073V52.6529H20.2131V40.3645Z" fill="#FF8C8C"/>
<path d="M72.6473 41.7554H63.4014C63.0324 41.7554 62.6786 41.6089 62.4177 41.348C62.1568 41.0871 62.0103 40.7332 62.0103 40.3643C62.0103 39.9953 62.1568 39.6415 62.4177 39.3806C62.6786 39.1197 63.0324 38.9731 63.4014 38.9731H72.6473C73.0163 38.9731 73.3701 39.1197 73.631 39.3806C73.8919 39.6415 74.0385 39.9953 74.0385 40.3643C74.0385 40.7332 73.8919 41.0871 73.631 41.348C73.3701 41.6089 73.0163 41.7554 72.6473 41.7554Z" fill="#B0B5CA"/>
<path d="M85.2962 53.116H63.4014C63.0324 53.116 62.6786 52.9694 62.4177 52.7086C62.1568 52.4477 62.0103 52.0938 62.0103 51.7249C62.0103 51.3559 62.1568 51.0021 62.4177 50.7412C62.6786 50.4803 63.0324 50.3337 63.4014 50.3337H85.2962C85.6652 50.3337 86.019 50.4803 86.2799 50.7412C86.5408 51.0021 86.6874 51.3559 86.6874 51.7249C86.6874 52.0938 86.5408 52.4477 86.2799 52.7086C86.019 52.9694 85.6652 53.116 85.2962 53.116V53.116Z" fill="#B0B5CA"/>
<path d="M85.2962 64.4766H63.4014C63.0324 64.4766 62.6786 64.33 62.4177 64.0691C62.1568 63.8083 62.0103 63.4544 62.0103 63.0855C62.0103 62.7165 62.1568 62.3627 62.4177 62.1018C62.6786 61.8409 63.0324 61.6943 63.4014 61.6943H85.2962C85.6652 61.6943 86.019 61.8409 86.2799 62.1018C86.5408 62.3627 86.6874 62.7165 86.6874 63.0855C86.6874 63.4544 86.5408 63.8083 86.2799 64.0691C86.019 64.33 85.6652 64.4766 85.2962 64.4766Z" fill="#B0B5CA"/>
<path d="M85.2962 75.837H63.4014C63.0324 75.837 62.6786 75.6904 62.4177 75.4295C62.1568 75.1686 62.0103 74.8148 62.0103 74.4458C62.0103 74.0769 62.1568 73.723 62.4177 73.4621C62.6786 73.2013 63.0324 73.0547 63.4014 73.0547H85.2962C85.6652 73.0547 86.019 73.2013 86.2799 73.4621C86.5408 73.723 86.6874 74.0769 86.6874 74.4458C86.6874 74.8148 86.5408 75.1686 86.2799 75.4295C86.019 75.6904 85.6652 75.837 85.2962 75.837Z" fill="#B0B5CA"/>
<path d="M42.1069 64.4766H20.2121C19.8431 64.4766 19.4893 64.33 19.2284 64.0691C18.9675 63.8083 18.8209 63.4544 18.8209 63.0855C18.8209 62.7165 18.9675 62.3627 19.2284 62.1018C19.4893 61.8409 19.8431 61.6943 20.2121 61.6943H42.1069C42.4759 61.6943 42.8297 61.8409 43.0906 62.1018C43.3515 62.3627 43.498 62.7165 43.498 63.0855C43.498 63.4544 43.3515 63.8083 43.0906 64.0691C42.8297 64.33 42.4759 64.4766 42.1069 64.4766V64.4766Z" fill="#CCD3DF"/>
<path d="M42.1069 75.837H20.2121C19.8431 75.837 19.4893 75.6904 19.2284 75.4295C18.9675 75.1686 18.8209 74.8148 18.8209 74.4458C18.8209 74.0769 18.9675 73.723 19.2284 73.4621C19.4893 73.2013 19.8431 73.0547 20.2121 73.0547H42.1069C42.4759 73.0547 42.8297 73.2013 43.0906 73.4621C43.3515 73.723 43.498 74.0769 43.498 74.4458C43.498 74.8148 43.3515 75.1686 43.0906 75.4295C42.8297 75.6904 42.4759 75.837 42.1069 75.837V75.837Z" fill="#CCD3DF"/>
<path d="M16.3528 83.4293V31.278C16.3463 29.3578 17.1014 27.5133 18.4527 26.149C19.8039 24.7847 21.641 24.0119 23.5612 24H16.6055C14.6854 24.0119 12.8483 24.7847 11.497 26.149C10.1457 27.5133 9.39059 29.3578 9.39714 31.278V83.4293C9.39714 87.4219 12.613 90.7745 16.6055 90.7745H23.5612C19.5687 90.7745 16.3528 87.4219 16.3528 83.4293Z" fill="#CCD3DF"/>
<path d="M6.95568 97.2177V37.7327C6.95582 37.0573 7.2018 36.4051 7.64767 35.8979C8.09353 35.3906 8.70881 35.063 9.37857 34.9762V34.9504H2.78227C2.04437 34.9504 1.33669 35.2436 0.814908 35.7653C0.293131 36.2871 0 36.9948 0 37.7327V97.2177C0 97.9556 0.293131 98.6632 0.814908 99.185C1.33669 99.7068 2.04437 99.9999 2.78227 99.9999H9.73795C9.00004 99.9999 8.29236 99.7068 7.77058 99.185C7.24881 98.6632 6.95568 97.9556 6.95568 97.2177Z" fill="#FF8C8C"/>
<path d="M71.3276 1.22163C70.9309 0.636268 70.0686 0.636275 69.6719 1.22165L58.0578 18.3611C57.6078 19.0251 58.0835 19.922 58.8856 19.922H63.2732C63.8255 19.922 64.2732 20.3698 64.2732 20.922V50.5C64.2732 51.0523 64.7209 51.5 65.2732 51.5H75.7268C76.2791 51.5 76.7268 51.0523 76.7268 50.5V20.922C76.7268 20.3698 77.1745 19.922 77.7268 19.922H82.1144C82.9165 19.922 83.3922 19.0251 82.9422 18.3611L71.3276 1.22163Z" fill="#35CC00"/>
<path d="M103.328 52.2784C102.931 52.8637 102.069 52.8637 101.672 52.2784L90.0578 35.1389C89.6078 34.4749 90.0835 33.578 90.8856 33.578H95.2732C95.8255 33.578 96.2732 33.1302 96.2732 32.578V3C96.2732 2.44771 96.7209 2 97.2732 2H107.727C108.279 2 108.727 2.44772 108.727 3V32.578C108.727 33.1302 109.175 33.578 109.727 33.578H114.114C114.916 33.578 115.392 34.4749 114.942 35.1389L103.328 52.2784Z" fill="#FF2203"/>
</svg>
